<svg width="863" height="114" viewBox="0 0 863 114" fill="none" xmlns="http://www.w3.org/2000/svg">
<path d="M39.2605 23.9896C39.2605 27.2504 38.7306 30.2361 37.6708 32.9466C36.6111 35.6368 35.1131 37.9499 33.177 39.886C31.2613 41.8221 28.9482 43.3302 26.2376 44.4104C23.5475 45.4701 20.5516 46 17.2501 46H0.619987V1.9792H17.2501C20.5516 1.9792 23.5475 2.51927 26.2376 3.59941C28.9482 4.65917 31.2613 6.1571 33.177 8.0932C35.1131 10.0293 36.6111 12.3526 37.6708 15.0632C38.7306 17.7533 39.2605 20.7288 39.2605 23.9896ZM31.9542 23.9896C31.9542 21.4625 31.6078 19.1901 30.9149 17.1725C30.2423 15.1549 29.2641 13.4531 27.9801 12.0673C26.7166 10.6815 25.1779 9.6217 23.3641 8.88802C21.5502 8.13396 19.5122 7.75693 17.2501 7.75693H7.80394V40.2223H17.2501C19.5122 40.2223 21.5502 39.8554 23.3641 39.1217C25.1779 38.3881 26.7166 37.3283 27.9801 35.9425C29.2641 34.5362 30.2423 32.8345 30.9149 30.8373C31.6078 28.8197 31.9542 26.5371 31.9542 23.9896ZM65.9423 26.8938C65.9423 25.7932 65.7793 24.7742 65.4532 23.8367C65.1475 22.8789 64.689 22.0535 64.0776 21.3606C63.4662 20.6473 62.7019 20.097 61.7848 19.7098C60.8881 19.3022 59.8487 19.0984 58.6667 19.0984C56.2822 19.0984 54.4073 19.7811 53.0418 21.1466C51.6763 22.512 50.8102 24.4278 50.4434 26.8938H65.9423ZM50.2599 30.929C50.3415 32.702 50.6166 34.2407 51.0853 35.5451C51.5541 36.829 52.1757 37.8989 52.9501 38.7549C53.7449 39.6109 54.6824 40.2528 55.7625 40.6808C56.8631 41.0884 58.0859 41.2922 59.4309 41.2922C60.7149 41.2922 61.8256 41.1496 62.7631 40.8642C63.7005 40.5585 64.5157 40.2325 65.2087 39.886C65.9016 39.5192 66.4926 39.1931 66.9817 38.9078C67.4708 38.6021 67.9192 38.4492 68.3268 38.4492C68.8567 38.4492 69.2643 38.653 69.5496 39.0606L71.4144 41.4756C70.6399 42.3927 69.7636 43.1672 68.7854 43.799C67.8071 44.4307 66.7677 44.9504 65.6672 45.358C64.5667 45.7452 63.4356 46.0204 62.2739 46.1834C61.1123 46.3668 59.9812 46.4586 58.8807 46.4586C56.7204 46.4586 54.713 46.1019 52.8584 45.3886C51.0242 44.6549 49.4244 43.585 48.0589 42.1788C46.7138 40.7725 45.6541 39.03 44.8796 36.9513C44.1256 34.8725 43.7485 32.4779 43.7485 29.7673C43.7485 27.607 44.0848 25.5894 44.7573 23.7145C45.4503 21.8395 46.4285 20.2091 47.6921 18.8233C48.976 17.4374 50.5249 16.3471 52.3387 15.5523C54.1729 14.7371 56.2415 14.3295 58.5444 14.3295C60.4601 14.3295 62.2332 14.6454 63.8636 15.2772C65.494 15.8885 66.9002 16.7955 68.0822 17.9979C69.2643 19.2003 70.1814 20.6778 70.8335 22.4305C71.5061 24.1628 71.8424 26.1397 71.8424 28.3611C71.8424 29.3801 71.7303 30.0628 71.5061 30.4093C71.2819 30.7558 70.8743 30.929 70.2833 30.929H50.2599ZM96.5888 20.474C96.4257 20.7594 96.2423 20.9632 96.0385 21.0854C95.8347 21.2077 95.58 21.2689 95.2743 21.2689C94.9278 21.2689 94.5508 21.167 94.1432 20.9632C93.7356 20.739 93.2566 20.4944 92.7064 20.2295C92.1561 19.9645 91.504 19.7302 90.7499 19.5264C90.0162 19.3022 89.1501 19.1901 88.1514 19.1901C87.3362 19.1901 86.5924 19.292 85.9198 19.4958C85.2677 19.6792 84.7072 19.9544 84.2385 20.3212C83.7901 20.6677 83.4437 21.0854 83.1991 21.5746C82.9545 22.0433 82.8323 22.5528 82.8323 23.1031C82.8323 23.8367 83.0564 24.4481 83.5048 24.9373C83.9532 25.4264 84.5442 25.8544 85.2779 26.2212C86.0115 26.5677 86.8471 26.8836 87.7846 27.1689C88.7221 27.4542 89.6799 27.7599 90.6582 28.086C91.6364 28.4121 92.5943 28.7891 93.5318 29.2171C94.4692 29.645 95.3048 30.1749 96.0385 30.8067C96.7722 31.4181 97.3632 32.1722 97.8116 33.0689C98.2599 33.9452 98.4841 35.0152 98.4841 36.2787C98.4841 37.7461 98.2192 39.1014 97.6893 40.3445C97.1594 41.5877 96.385 42.6679 95.366 43.585C94.347 44.5021 93.0732 45.2154 91.5447 45.7249C90.0366 46.2344 88.3043 46.4891 86.3478 46.4891C85.2677 46.4891 84.2181 46.3872 83.1991 46.1834C82.2005 46 81.2426 45.7452 80.3255 45.4192C79.4288 45.0727 78.583 44.6651 77.7882 44.1964C77.0138 43.7276 76.3209 43.2181 75.7095 42.6679L77.238 40.1611C77.4214 39.8554 77.6456 39.6211 77.9105 39.458C78.1958 39.2746 78.5423 39.1829 78.9499 39.1829C79.3779 39.1829 79.7956 39.3255 80.2032 39.6109C80.6312 39.8758 81.1203 40.1713 81.6706 40.4974C82.2412 40.8235 82.924 41.1292 83.7188 41.4145C84.5136 41.6794 85.502 41.8119 86.6841 41.8119C87.6623 41.8119 88.5081 41.6998 89.2214 41.4756C89.9347 41.2311 90.5257 40.905 90.9945 40.4974C91.4632 40.0898 91.8097 39.6312 92.0338 39.1217C92.258 38.5919 92.3701 38.0314 92.3701 37.4404C92.3701 36.6456 92.1459 35.9934 91.6976 35.4839C91.2492 34.9744 90.648 34.5362 89.8939 34.1694C89.1603 33.8026 88.3145 33.4765 87.3566 33.1912C86.4191 32.9058 85.4613 32.6001 84.483 32.2741C83.5048 31.948 82.5368 31.571 81.5789 31.143C80.6414 30.715 79.7956 30.1749 79.0416 29.5228C78.3079 28.8502 77.7169 28.0452 77.2685 27.1077C76.8202 26.1499 76.596 24.9882 76.596 23.6228C76.596 22.3796 76.8405 21.1975 77.3297 20.0766C77.8392 18.9557 78.5728 17.9673 79.5307 17.1113C80.5089 16.2554 81.7012 15.5828 83.1074 15.0937C84.534 14.5842 86.1746 14.3295 88.0292 14.3295C90.1283 14.3295 92.0338 14.6657 93.7458 15.3383C95.4577 16.0108 96.8945 16.9279 98.0561 18.0896L96.5888 20.474ZM126.702 20.9326C126.498 21.1975 126.304 21.4013 126.121 21.544C125.937 21.6867 125.672 21.758 125.326 21.758C124.98 21.758 124.613 21.6357 124.225 21.3911C123.859 21.1466 123.41 20.8816 122.88 20.5963C122.371 20.2906 121.749 20.0155 121.016 19.7709C120.282 19.5264 119.365 19.4041 118.264 19.4041C116.838 19.4041 115.584 19.6588 114.504 20.1683C113.444 20.6778 112.548 21.4115 111.814 22.3694C111.101 23.3069 110.561 24.4583 110.194 25.8238C109.847 27.1689 109.674 28.6872 109.674 30.3787C109.674 32.1314 109.868 33.6905 110.255 35.0559C110.642 36.4214 111.192 37.5729 111.906 38.5103C112.639 39.4478 113.516 40.1611 114.535 40.6502C115.574 41.1394 116.736 41.3839 118.02 41.3839C119.283 41.3839 120.313 41.2311 121.107 40.9254C121.902 40.6197 122.565 40.2834 123.094 39.9166C123.624 39.5497 124.073 39.2135 124.439 38.9078C124.827 38.6021 125.234 38.4492 125.662 38.4492C126.192 38.4492 126.6 38.653 126.885 39.0606L128.75 41.4756C127.996 42.3927 127.16 43.1672 126.243 43.799C125.326 44.4307 124.358 44.9504 123.339 45.358C122.32 45.7452 121.26 46.0204 120.16 46.1834C119.059 46.3668 117.948 46.4586 116.828 46.4586C114.891 46.4586 113.078 46.1019 111.386 45.3886C109.715 44.6549 108.248 43.6053 106.984 42.2399C105.741 40.854 104.752 39.1727 104.019 37.1958C103.305 35.1986 102.949 32.9262 102.949 30.3787C102.949 28.0758 103.275 25.9461 103.927 23.9896C104.579 22.0127 105.527 20.311 106.77 18.8844C108.034 17.4578 109.593 16.3471 111.447 15.5523C113.302 14.7371 115.442 14.3295 117.867 14.3295C120.129 14.3295 122.116 14.6963 123.828 15.43C125.56 16.1637 127.099 17.2031 128.444 18.5481L126.702 20.9326ZM160.327 14.8186V46H156.353C155.476 46 154.916 45.5822 154.671 44.7466L154.182 41.8425C153.53 42.5354 152.837 43.1672 152.103 43.7378C151.39 44.3085 150.626 44.7976 149.811 45.2052C148.995 45.6128 148.119 45.9287 147.182 46.1529C146.265 46.377 145.276 46.4891 144.216 46.4891C142.504 46.4891 140.996 46.2038 139.692 45.6332C138.388 45.0625 137.287 44.2575 136.39 43.2181C135.514 42.1787 134.852 40.9356 134.403 39.4886C133.955 38.0212 133.731 36.4112 133.731 34.6585V14.8186H140.303V34.6585C140.303 36.7577 140.782 38.3881 141.74 39.5497C142.718 40.7114 144.196 41.2922 146.173 41.2922C147.62 41.2922 148.965 40.9661 150.208 40.314C151.472 39.6414 152.654 38.7243 153.754 37.5627V14.8186H160.327ZM174.881 38.1741C175.798 39.3561 176.797 40.1917 177.877 40.6808C178.977 41.1496 180.17 41.3839 181.453 41.3839C184.042 41.3839 186.059 40.4464 187.506 38.5715C188.953 36.6965 189.677 33.7924 189.677 29.859C189.677 26.2722 189.045 23.6533 187.781 22.0025C186.538 20.3518 184.755 19.5264 182.432 19.5264C180.822 19.5264 179.415 19.8932 178.213 20.6269C177.031 21.3402 175.92 22.3694 174.881 23.7145V38.1741ZM174.881 18.9455C176.165 17.5393 177.602 16.4184 179.191 15.5828C180.781 14.7473 182.595 14.3295 184.633 14.3295C186.447 14.3295 188.077 14.6861 189.524 15.3994C190.991 16.0923 192.235 17.1012 193.254 18.4259C194.273 19.7506 195.057 21.3606 195.607 23.2559C196.158 25.1309 196.433 27.2504 196.433 29.6145C196.433 32.1416 196.117 34.4445 195.485 36.5233C194.874 38.5817 193.987 40.3547 192.826 41.8425C191.664 43.3098 190.258 44.4511 188.607 45.2663C186.956 46.0611 185.112 46.4586 183.074 46.4586C182.075 46.4586 181.168 46.3567 180.353 46.1529C179.538 45.9694 178.784 45.6943 178.091 45.3275C177.398 44.9606 176.756 44.5224 176.165 44.0129C175.594 43.5034 175.044 42.9226 174.514 42.2705L174.239 44.6855C174.137 45.1542 173.954 45.4905 173.689 45.6943C173.424 45.8981 173.057 46 172.588 46H168.308V0.7564H174.881V18.9455ZM209.025 20.5963C210.003 18.6195 211.185 17.0706 212.571 15.9497C213.957 14.8084 215.618 14.2378 217.554 14.2378C218.226 14.2378 218.858 14.3193 219.449 14.4823C220.04 14.625 220.57 14.8492 221.039 15.1549L220.58 20.1072C220.499 20.4537 220.366 20.6982 220.183 20.8409C220.02 20.9632 219.796 21.0243 219.51 21.0243C219.205 21.0243 218.766 20.9734 218.196 20.8715C217.625 20.7492 217.024 20.688 216.392 20.688C215.475 20.688 214.66 20.8205 213.947 21.0854C213.254 21.3504 212.622 21.7376 212.051 22.2471C211.501 22.7566 211.012 23.3782 210.584 24.1119C210.156 24.8456 209.758 25.6811 209.392 26.6186V46H202.819V14.8186H206.64C207.333 14.8186 207.812 14.9511 208.077 15.216C208.342 15.4606 208.525 15.8987 208.627 16.5305L209.025 20.5963ZM244.765 26.8938C244.765 25.7932 244.602 24.7742 244.276 23.8367C243.97 22.8789 243.512 22.0535 242.9 21.3606C242.289 20.6473 241.524 20.097 240.607 19.7098C239.711 19.3022 238.671 19.0984 237.489 19.0984C235.105 19.0984 233.23 19.7811 231.864 21.1466C230.499 22.512 229.633 24.4278 229.266 26.8938H244.765ZM229.082 30.929C229.164 32.702 229.439 34.2407 229.908 35.5451C230.377 36.829 230.998 37.8989 231.773 38.7549C232.567 39.6109 233.505 40.2528 234.585 40.6808C235.686 41.0884 236.908 41.2922 238.253 41.2922C239.537 41.2922 240.648 41.1496 241.586 40.8642C242.523 40.5585 243.338 40.2325 244.031 39.886C244.724 39.5192 245.315 39.1931 245.804 38.9078C246.293 38.6021 246.742 38.4492 247.149 38.4492C247.679 38.4492 248.087 38.653 248.372 39.0606L250.237 41.4756C249.462 42.3927 248.586 43.1672 247.608 43.799C246.63 44.4307 245.59 44.9504 244.49 45.358C243.389 45.7452 242.258 46.0204 241.096 46.1834C239.935 46.3668 238.804 46.4586 237.703 46.4586C235.543 46.4586 233.536 46.1019 231.681 45.3886C229.847 44.6549 228.247 43.585 226.881 42.1788C225.536 40.7725 224.477 39.03 223.702 36.9513C222.948 34.8725 222.571 32.4779 222.571 29.7673C222.571 27.607 222.907 25.5894 223.58 23.7145C224.273 21.8395 225.251 20.2091 226.515 18.8233C227.799 17.4374 229.347 16.3471 231.161 15.5523C232.995 14.7371 235.064 14.3295 237.367 14.3295C239.283 14.3295 241.056 14.6454 242.686 15.2772C244.317 15.8885 245.723 16.7955 246.905 17.9979C248.087 19.2003 249.004 20.6778 249.656 22.4305C250.329 24.1628 250.665 26.1397 250.665 28.3611C250.665 29.3801 250.553 30.0628 250.329 30.4093C250.104 30.7558 249.697 30.929 249.106 30.929H229.082ZM292.471 26.8938C292.471 25.7932 292.308 24.7742 291.982 23.8367C291.676 22.8789 291.217 22.0535 290.606 21.3606C289.995 20.6473 289.23 20.097 288.313 19.7098C287.417 19.3022 286.377 19.0984 285.195 19.0984C282.811 19.0984 280.936 19.7811 279.57 21.1466C278.205 22.512 277.339 24.4278 276.972 26.8938H292.471ZM276.788 30.929C276.87 32.702 277.145 34.2407 277.614 35.5451C278.083 36.829 278.704 37.8989 279.479 38.7549C280.273 39.6109 281.211 40.2528 282.291 40.6808C283.392 41.0884 284.614 41.2922 285.959 41.2922C287.243 41.2922 288.354 41.1496 289.292 40.8642C290.229 40.5585 291.044 40.2325 291.737 39.886C292.43 39.5192 293.021 39.1931 293.51 38.9078C293.999 38.6021 294.448 38.4492 294.855 38.4492C295.385 38.4492 295.793 38.653 296.078 39.0606L297.943 41.4756C297.168 42.3927 296.292 43.1672 295.314 43.799C294.336 44.4307 293.296 44.9504 292.196 45.358C291.095 45.7452 289.964 46.0204 288.802 46.1834C287.641 46.3668 286.51 46.4586 285.409 46.4586C283.249 46.4586 281.241 46.1019 279.387 45.3886C277.553 44.6549 275.953 43.585 274.587 42.1788C273.242 40.7725 272.183 39.03 271.408 36.9513C270.654 34.8725 270.277 32.4779 270.277 29.7673C270.277 27.607 270.613 25.5894 271.286 23.7145C271.979 21.8395 272.957 20.2091 274.221 18.8233C275.504 17.4374 277.053 16.3471 278.867 15.5523C280.701 14.7371 282.77 14.3295 285.073 14.3295C286.989 14.3295 288.762 14.6454 290.392 15.2772C292.022 15.8885 293.429 16.7955 294.611 17.9979C295.793 19.2003 296.71 20.6778 297.362 22.4305C298.035 24.1628 298.371 26.1397 298.371 28.3611C298.371 29.3801 298.259 30.0628 298.035 30.4093C297.81 30.7558 297.403 30.929 296.812 30.929H276.788ZM311.195 0.7564V46H304.622V0.7564H311.195ZM341.38 14.8186V47.6202C341.38 48.9245 341.207 50.1473 340.861 51.2886C340.514 52.4503 339.964 53.4591 339.21 54.315C338.456 55.171 337.478 55.8435 336.275 56.3327C335.093 56.8218 333.656 57.0663 331.965 57.0663C331.252 57.0663 330.61 57.0154 330.039 56.9135C329.468 56.8116 328.887 56.6689 328.296 56.4855L328.541 52.9088C328.602 52.5012 328.775 52.2669 329.061 52.2057C329.326 52.1446 329.845 52.114 330.62 52.114C332.169 52.114 333.249 51.7675 333.86 51.0746C334.492 50.4021 334.808 49.2506 334.808 47.6202V14.8186H341.38ZM342.45 5.40304C342.45 5.99406 342.328 6.55451 342.084 7.08439C341.859 7.61427 341.543 8.08301 341.136 8.49061C340.728 8.87783 340.26 9.19372 339.73 9.43828C339.2 9.66246 338.629 9.77455 338.018 9.77455C337.427 9.77455 336.866 9.66246 336.336 9.43828C335.827 9.19372 335.368 8.87783 334.961 8.49061C334.574 8.08301 334.268 7.61427 334.044 7.08439C333.819 6.55451 333.707 5.99406 333.707 5.40304C333.707 4.79164 333.819 4.221 334.044 3.69112C334.268 3.16124 334.574 2.70269 334.961 2.31547C335.368 1.90787 335.827 1.59198 336.336 1.3678C336.866 1.12324 337.427 1.00096 338.018 1.00096C338.629 1.00096 339.2 1.12324 339.73 1.3678C340.26 1.59198 340.728 1.90787 341.136 2.31547C341.543 2.70269 341.859 3.16124 342.084 3.69112C342.328 4.221 342.45 4.79164 342.45 5.40304ZM375.929 14.8186V46H371.955C371.078 46 370.518 45.5822 370.273 44.7466L369.784 41.8425C369.132 42.5354 368.439 43.1672 367.706 43.7378C366.992 44.3085 366.228 44.7976 365.413 45.2052C364.598 45.6128 363.721 45.9287 362.784 46.1529C361.867 46.377 360.878 46.4891 359.818 46.4891C358.107 46.4891 356.598 46.2038 355.294 45.6332C353.99 45.0625 352.889 44.2575 351.993 43.2181C351.116 42.1787 350.454 40.9356 350.005 39.4886C349.557 38.0212 349.333 36.4112 349.333 34.6585V14.8186H355.905V34.6585C355.905 36.7577 356.384 38.3881 357.342 39.5497C358.321 40.7114 359.798 41.2922 361.775 41.2922C363.222 41.2922 364.567 40.9661 365.81 40.314C367.074 39.6414 368.256 38.7243 369.356 37.5627V14.8186H375.929ZM404.362 26.8938C404.362 25.7932 404.199 24.7742 403.873 23.8367C403.567 22.8789 403.108 22.0535 402.497 21.3606C401.886 20.6473 401.121 20.097 400.204 19.7098C399.308 19.3022 398.268 19.0984 397.086 19.0984C394.702 19.0984 392.827 19.7811 391.461 21.1466C390.096 22.512 389.23 24.4278 388.863 26.8938H404.362ZM388.679 30.929C388.761 32.702 389.036 34.2407 389.505 35.5451C389.974 36.829 390.595 37.8989 391.37 38.7549C392.164 39.6109 393.102 40.2528 394.182 40.6808C395.283 41.0884 396.505 41.2922 397.85 41.2922C399.134 41.2922 400.245 41.1496 401.183 40.8642C402.12 40.5585 402.935 40.2325 403.628 39.886C404.321 39.5192 404.912 39.1931 405.401 38.9078C405.89 38.6021 406.339 38.4492 406.746 38.4492C407.276 38.4492 407.684 38.653 407.969 39.0606L409.834 41.4756C409.059 42.3927 408.183 43.1672 407.205 43.799C406.227 44.4307 405.187 44.9504 404.087 45.358C402.986 45.7452 401.855 46.0204 400.693 46.1834C399.532 46.3668 398.401 46.4586 397.3 46.4586C395.14 46.4586 393.132 46.1019 391.278 45.3886C389.444 44.6549 387.844 43.585 386.478 42.1788C385.133 40.7725 384.074 39.03 383.299 36.9513C382.545 34.8725 382.168 32.4779 382.168 29.7673C382.168 27.607 382.504 25.5894 383.177 23.7145C383.87 21.8395 384.848 20.2091 386.112 18.8233C387.395 17.4374 388.944 16.3471 390.758 15.5523C392.592 14.7371 394.661 14.3295 396.964 14.3295C398.88 14.3295 400.653 14.6454 402.283 15.2772C403.913 15.8885 405.32 16.7955 406.502 17.9979C407.684 19.2003 408.601 20.6778 409.253 22.4305C409.926 24.1628 410.262 26.1397 410.262 28.3611C410.262 29.3801 410.15 30.0628 409.926 30.4093C409.701 30.7558 409.294 30.929 408.703 30.929H388.679ZM427.519 30.1342C429.557 30.1342 431.085 29.6145 432.104 28.5751C433.123 27.5357 433.633 26.1804 433.633 24.5093C433.633 22.7974 433.123 21.4421 432.104 20.4435C431.085 19.4449 429.557 18.9455 427.519 18.9455C425.501 18.9455 423.972 19.4449 422.933 20.4435C421.914 21.4421 421.405 22.7974 421.405 24.5093C421.405 25.3245 421.537 26.0785 421.802 26.7715C422.067 27.4644 422.454 28.0656 422.964 28.5751C423.473 29.0642 424.105 29.4514 424.859 29.7368C425.633 30.0017 426.52 30.1342 427.519 30.1342ZM436.659 47.5285C436.659 46.8356 436.455 46.2853 436.048 45.8777C435.66 45.4497 435.13 45.1237 434.458 44.8995C433.785 44.6549 433.001 44.4817 432.104 44.3798C431.207 44.2575 430.249 44.176 429.23 44.1352C428.232 44.0741 427.203 44.0231 426.143 43.9824C425.104 43.9212 424.095 43.8193 423.116 43.6767C422.138 44.1862 421.333 44.7976 420.701 45.5109C420.09 46.2242 419.784 47.0496 419.784 47.9871C419.784 48.5985 419.937 49.1691 420.243 49.699C420.569 50.2289 421.058 50.6874 421.71 51.0746C422.383 51.4618 423.229 51.7675 424.248 51.9917C425.287 52.2159 426.53 52.328 427.977 52.328C430.871 52.328 433.042 51.8796 434.489 50.9829C435.936 50.0862 436.659 48.9347 436.659 47.5285ZM443.262 15.9497V18.3953C443.262 19.2105 442.773 19.7098 441.795 19.8932L438.677 20.4129C439.206 21.5949 439.471 22.9095 439.471 24.3564C439.471 25.8849 439.166 27.2708 438.554 28.514C437.963 29.7571 437.138 30.8169 436.078 31.6932C435.018 32.5696 433.755 33.2421 432.287 33.7109C430.82 34.1796 429.23 34.414 427.519 34.414C426.866 34.414 426.224 34.3834 425.593 34.3223C424.981 34.2407 424.38 34.1388 423.789 34.0166C423.198 34.363 422.76 34.7299 422.475 35.1171C422.189 35.5043 422.047 35.9017 422.047 36.3093C422.047 36.9818 422.342 37.4812 422.933 37.8072C423.524 38.1333 424.299 38.3677 425.256 38.5103C426.235 38.653 427.345 38.7447 428.589 38.7855C429.832 38.8262 431.095 38.8976 432.379 38.9995C433.663 39.1014 434.927 39.2746 436.17 39.5192C437.413 39.7433 438.514 40.1306 439.471 40.6808C440.45 41.2107 441.234 41.9342 441.825 42.8513C442.416 43.7684 442.712 44.9606 442.712 46.428C442.712 47.7731 442.376 49.0876 441.703 50.3715C441.031 51.6555 440.052 52.7967 438.768 53.7954C437.505 54.794 435.956 55.5888 434.122 56.1798C432.287 56.7912 430.199 57.0969 427.855 57.0969C425.532 57.0969 423.504 56.8727 421.771 56.4244C420.059 55.976 418.623 55.3646 417.461 54.5902C416.32 53.8361 415.464 52.9598 414.893 51.9612C414.343 50.9625 414.068 49.9232 414.068 48.843C414.068 47.3757 414.526 46.1223 415.443 45.0829C416.381 44.0435 417.644 43.2283 419.234 42.6373C418.378 42.2297 417.685 41.6692 417.155 40.9559C416.646 40.2426 416.391 39.3052 416.391 38.1435C416.391 37.2264 416.727 36.2685 417.4 35.2699C418.072 34.2713 419.081 33.4255 420.426 32.7326C418.877 31.8767 417.655 30.7456 416.758 29.3393C415.861 27.9127 415.413 26.2518 415.413 24.3564C415.413 22.8076 415.708 21.4115 416.299 20.1683C416.911 18.9252 417.757 17.8654 418.837 16.9891C419.917 16.1127 421.191 15.4402 422.658 14.9714C424.146 14.5027 425.766 14.2683 427.519 14.2683C430.209 14.2683 432.552 14.8288 434.55 15.9497H443.262ZM461.398 14.3295C463.701 14.3295 465.779 14.7065 467.634 15.4606C469.509 16.2146 471.099 17.2846 472.403 18.6704C473.728 20.0563 474.747 21.7376 475.46 23.7145C476.173 25.6913 476.53 27.9127 476.53 30.3787C476.53 32.8447 476.173 35.0661 475.46 37.043C474.747 39.0198 473.728 40.7114 472.403 42.1176C471.099 43.5034 469.509 44.5734 467.634 45.3275C465.779 46.0815 463.701 46.4586 461.398 46.4586C459.074 46.4586 456.975 46.0815 455.1 45.3275C453.246 44.5734 451.656 43.5034 450.331 42.1176C449.007 40.7114 447.988 39.0198 447.274 37.043C446.561 35.0661 446.204 32.8447 446.204 30.3787C446.204 27.9127 446.561 25.6913 447.274 23.7145C447.988 21.7376 449.007 20.0563 450.331 18.6704C451.656 17.2846 453.246 16.2146 455.1 15.4606C456.975 14.7065 459.074 14.3295 461.398 14.3295ZM461.398 41.3228C464.21 41.3228 466.299 40.3853 467.665 38.5103C469.05 36.615 469.743 33.9147 469.743 30.4093C469.743 26.9039 469.05 24.2036 467.665 22.3082C466.299 20.3925 464.21 19.4347 461.398 19.4347C458.545 19.4347 456.425 20.3925 455.039 22.3082C453.653 24.2036 452.96 26.9039 452.96 30.4093C452.96 33.9147 453.653 36.615 455.039 38.5103C456.425 40.3853 458.545 41.3228 461.398 41.3228ZM517.971 22.4917C517.054 21.33 516.046 20.5148 514.945 20.0461C513.844 19.5569 512.652 19.3124 511.368 19.3124C508.8 19.3124 506.793 20.2601 505.346 22.1554C503.899 24.0304 503.176 26.8122 503.176 30.501C503.176 32.4167 503.339 34.0573 503.665 35.4228C503.991 36.7679 504.459 37.8684 505.071 38.7243C505.682 39.5803 506.426 40.2019 507.302 40.5891C508.179 40.9763 509.167 41.1699 510.268 41.1699C511.939 41.1699 513.376 40.8133 514.578 40.1C515.801 39.3663 516.932 38.3371 517.971 37.0124V22.4917ZM524.544 14.8186V56.3632H517.971V41.7508C516.687 43.157 515.24 44.2983 513.63 45.1746C512.041 46.0306 510.186 46.4586 508.067 46.4586C506.314 46.4586 504.724 46.1121 503.298 45.4192C501.871 44.7059 500.648 43.6767 499.629 42.3316C498.61 40.9865 497.816 39.3255 497.245 37.3487C496.695 35.3514 496.42 33.0689 496.42 30.501C496.42 28.1777 496.725 26.0276 497.337 24.0507C497.968 22.0739 498.865 20.362 500.027 18.915C501.188 17.4476 502.595 16.3063 504.245 15.4911C505.917 14.6556 507.781 14.2378 509.84 14.2378C510.838 14.2378 511.745 14.3295 512.561 14.5129C513.396 14.6759 514.16 14.9307 514.853 15.2772C515.567 15.6032 516.219 16.0108 516.81 16.4999C517.401 16.9687 517.961 17.5088 518.491 18.1202L518.889 16.072C519.133 15.2364 519.694 14.8186 520.57 14.8186H524.544ZM558.871 14.8186V46H554.897C554.021 46 553.46 45.5822 553.216 44.7466L552.727 41.8425C552.074 42.5354 551.382 43.1672 550.648 43.7378C549.935 44.3085 549.17 44.7976 548.355 45.2052C547.54 45.6128 546.664 45.9287 545.726 46.1529C544.809 46.377 543.821 46.4891 542.761 46.4891C541.049 46.4891 539.541 46.2038 538.236 45.6332C536.932 45.0625 535.832 44.2575 534.935 43.2181C534.059 42.1787 533.396 40.9356 532.948 39.4886C532.499 38.0212 532.275 36.4112 532.275 34.6585V14.8186H538.848V34.6585C538.848 36.7577 539.327 38.3881 540.285 39.5497C541.263 40.7114 542.74 41.2922 544.717 41.2922C546.164 41.2922 547.509 40.9661 548.752 40.314C550.016 39.6414 551.198 38.7243 552.299 37.5627V14.8186H558.871ZM587.304 26.8938C587.304 25.7932 587.141 24.7742 586.815 23.8367C586.509 22.8789 586.051 22.0535 585.439 21.3606C584.828 20.6473 584.064 20.097 583.147 19.7098C582.25 19.3022 581.211 19.0984 580.028 19.0984C577.644 19.0984 575.769 19.7811 574.404 21.1466C573.038 22.512 572.172 24.4278 571.805 26.8938H587.304ZM571.622 30.929C571.703 32.702 571.978 34.2407 572.447 35.5451C572.916 36.829 573.537 37.8989 574.312 38.7549C575.107 39.6109 576.044 40.2528 577.124 40.6808C578.225 41.0884 579.448 41.2922 580.793 41.2922C582.077 41.2922 583.187 41.1496 584.125 40.8642C585.062 40.5585 585.878 40.2325 586.57 39.886C587.263 39.5192 587.854 39.1931 588.344 38.9078C588.833 38.6021 589.281 38.4492 589.689 38.4492C590.218 38.4492 590.626 38.653 590.911 39.0606L592.776 41.4756C592.002 42.3927 591.125 43.1672 590.147 43.799C589.169 44.4307 588.13 44.9504 587.029 45.358C585.928 45.7452 584.797 46.0204 583.636 46.1834C582.474 46.3668 581.343 46.4586 580.242 46.4586C578.082 46.4586 576.075 46.1019 574.22 45.3886C572.386 44.6549 570.786 43.585 569.421 42.1788C568.076 40.7725 567.016 39.03 566.241 36.9513C565.487 34.8725 565.11 32.4779 565.11 29.7673C565.11 27.607 565.447 25.5894 566.119 23.7145C566.812 21.8395 567.79 20.2091 569.054 18.8233C570.338 17.4374 571.887 16.3471 573.7 15.5523C575.535 14.7371 577.603 14.3295 579.906 14.3295C581.822 14.3295 583.595 14.6454 585.225 15.2772C586.856 15.8885 588.262 16.7955 589.444 17.9979C590.626 19.2003 591.543 20.6778 592.195 22.4305C592.868 24.1628 593.204 26.1397 593.204 28.3611C593.204 29.3801 593.092 30.0628 592.868 30.4093C592.644 30.7558 592.236 30.929 591.645 30.929H571.622ZM636.6 20.9326C636.396 21.1975 636.202 21.4013 636.019 21.544C635.835 21.6867 635.571 21.758 635.224 21.758C634.878 21.758 634.511 21.6357 634.124 21.3911C633.757 21.1466 633.308 20.8816 632.778 20.5963C632.269 20.2906 631.647 20.0155 630.914 19.7709C630.18 19.5264 629.263 19.4041 628.162 19.4041C626.736 19.4041 625.482 19.6588 624.402 20.1683C623.343 20.6778 622.446 21.4115 621.712 22.3694C620.999 23.3069 620.459 24.4583 620.092 25.8238C619.745 27.1689 619.572 28.6872 619.572 30.3787C619.572 32.1314 619.766 33.6905 620.153 35.0559C620.54 36.4214 621.091 37.5729 621.804 38.5103C622.538 39.4478 623.414 40.1611 624.433 40.6502C625.472 41.1394 626.634 41.3839 627.918 41.3839C629.181 41.3839 630.211 41.2311 631.005 40.9254C631.8 40.6197 632.463 40.2834 632.992 39.9166C633.522 39.5497 633.971 39.2135 634.338 38.9078C634.725 38.6021 635.132 38.4492 635.56 38.4492C636.09 38.4492 636.498 38.653 636.783 39.0606L638.648 41.4756C637.894 42.3927 637.058 43.1672 636.141 43.799C635.224 44.4307 634.256 44.9504 633.237 45.358C632.218 45.7452 631.158 46.0204 630.058 46.1834C628.957 46.3668 627.847 46.4586 626.726 46.4586C624.79 46.4586 622.976 46.1019 621.284 45.3886C619.613 44.6549 618.146 43.6053 616.882 42.2399C615.639 40.854 614.65 39.1727 613.917 37.1958C613.203 35.1986 612.847 32.9262 612.847 30.3787C612.847 28.0758 613.173 25.9461 613.825 23.9896C614.477 22.0127 615.425 20.311 616.668 18.8844C617.932 17.4578 619.491 16.3471 621.345 15.5523C623.2 14.7371 625.34 14.3295 627.765 14.3295C630.027 14.3295 632.014 14.6963 633.726 15.43C635.458 16.1637 636.997 17.2031 638.342 18.5481L636.6 20.9326ZM656.879 14.3295C659.181 14.3295 661.26 14.7065 663.115 15.4606C664.99 16.2146 666.579 17.2846 667.884 18.6704C669.208 20.0563 670.227 21.7376 670.941 23.7145C671.654 25.6913 672.011 27.9127 672.011 30.3787C672.011 32.8447 671.654 35.0661 670.941 37.043C670.227 39.0198 669.208 40.7114 667.884 42.1176C666.579 43.5034 664.99 44.5734 663.115 45.3275C661.26 46.0815 659.181 46.4586 656.879 46.4586C654.555 46.4586 652.456 46.0815 650.581 45.3275C648.727 44.5734 647.137 43.5034 645.812 42.1176C644.488 40.7114 643.469 39.0198 642.755 37.043C642.042 35.0661 641.685 32.8447 641.685 30.3787C641.685 27.9127 642.042 25.6913 642.755 23.7145C643.469 21.7376 644.488 20.0563 645.812 18.6704C647.137 17.2846 648.727 16.2146 650.581 15.4606C652.456 14.7065 654.555 14.3295 656.879 14.3295ZM656.879 41.3228C659.691 41.3228 661.78 40.3853 663.145 38.5103C664.531 36.615 665.224 33.9147 665.224 30.4093C665.224 26.9039 664.531 24.2036 663.145 22.3082C661.78 20.3925 659.691 19.4347 656.879 19.4347C654.025 19.4347 651.906 20.3925 650.52 22.3082C649.134 24.2036 648.441 26.9039 648.441 30.4093C648.441 33.9147 649.134 36.615 650.52 38.5103C651.906 40.3853 654.025 41.3228 656.879 41.3228ZM684.47 18.9455C685.143 18.2526 685.836 17.631 686.549 17.0808C687.283 16.5101 688.057 16.021 688.872 15.6134C689.688 15.2058 690.554 14.8899 691.471 14.6657C692.388 14.4416 693.387 14.3295 694.467 14.3295C696.179 14.3295 697.677 14.6148 698.961 15.1854C700.265 15.7561 701.355 16.5611 702.232 17.6005C703.128 18.6398 703.801 19.8932 704.249 21.3606C704.698 22.8076 704.922 24.4074 704.922 26.1601V46H698.38V26.1601C698.38 24.0609 697.891 22.4305 696.912 21.2689C695.955 20.1072 694.487 19.5264 692.51 19.5264C691.043 19.5264 689.677 19.8626 688.414 20.5352C687.171 21.2077 685.999 22.1248 684.898 23.2865V46H678.326V14.8186H682.3C683.197 14.8186 683.767 15.2364 684.012 16.072L684.47 18.9455ZM739.393 14.8186L726.859 46H720.928L708.395 14.8186H713.806C714.315 14.8186 714.733 14.9511 715.059 15.216C715.405 15.4606 715.63 15.7561 715.732 16.1025L722.64 34.2611C722.926 35.1171 723.18 35.9628 723.405 36.7984C723.629 37.634 723.822 38.4798 723.985 39.3357C724.149 38.4798 724.342 37.6442 724.566 36.829C724.811 35.9934 725.076 35.1375 725.361 34.2611L732.392 16.1025C732.514 15.7357 732.739 15.43 733.065 15.1854C733.391 14.9409 733.788 14.8186 734.257 14.8186H739.393ZM750.732 14.8186V46H744.159V14.8186H750.732ZM751.832 5.40304C751.832 5.99406 751.71 6.55451 751.465 7.08439C751.241 7.61427 750.925 8.08301 750.518 8.49061C750.11 8.87783 749.631 9.19372 749.081 9.43828C748.551 9.66246 747.981 9.77455 747.369 9.77455C746.778 9.77455 746.218 9.66246 745.688 9.43828C745.178 9.19372 744.73 8.87783 744.343 8.49061C743.955 8.08301 743.64 7.61427 743.395 7.08439C743.171 6.55451 743.059 5.99406 743.059 5.40304C743.059 4.79164 743.171 4.221 743.395 3.69112C743.64 3.16124 743.955 2.70269 744.343 2.31547C744.73 1.90787 745.178 1.59198 745.688 1.3678C746.218 1.12324 746.778 1.00096 747.369 1.00096C747.981 1.00096 748.551 1.12324 749.081 1.3678C749.631 1.59198 750.11 1.90787 750.518 2.31547C750.925 2.70269 751.241 3.16124 751.465 3.69112C751.71 4.221 751.832 4.79164 751.832 5.40304ZM779.441 26.8938C779.441 25.7932 779.278 24.7742 778.952 23.8367C778.647 22.8789 778.188 22.0535 777.577 21.3606C776.965 20.6473 776.201 20.097 775.284 19.7098C774.387 19.3022 773.348 19.0984 772.166 19.0984C769.781 19.0984 767.906 19.7811 766.541 21.1466C765.175 22.512 764.309 24.4278 763.942 26.8938H779.441ZM763.759 30.929C763.84 32.702 764.116 34.2407 764.584 35.5451C765.053 36.829 765.675 37.8989 766.449 38.7549C767.244 39.6109 768.181 40.2528 769.262 40.6808C770.362 41.0884 771.585 41.2922 772.93 41.2922C774.214 41.2922 775.325 41.1496 776.262 40.8642C777.2 40.5585 778.015 40.2325 778.708 39.886C779.401 39.5192 779.992 39.1931 780.481 38.9078C780.97 38.6021 781.418 38.4492 781.826 38.4492C782.356 38.4492 782.763 38.653 783.049 39.0606L784.913 41.4756C784.139 42.3927 783.263 43.1672 782.284 43.799C781.306 44.4307 780.267 44.9504 779.166 45.358C778.066 45.7452 776.935 46.0204 775.773 46.1834C774.611 46.3668 773.48 46.4586 772.38 46.4586C770.219 46.4586 768.212 46.1019 766.357 45.3886C764.523 44.6549 762.923 43.585 761.558 42.1788C760.213 40.7725 759.153 39.03 758.379 36.9513C757.625 34.8725 757.248 32.4779 757.248 29.7673C757.248 27.607 757.584 25.5894 758.256 23.7145C758.949 21.8395 759.928 20.2091 761.191 18.8233C762.475 17.4374 764.024 16.3471 765.838 15.5523C767.672 14.7371 769.74 14.3295 772.043 14.3295C773.959 14.3295 775.732 14.6454 777.363 15.2772C778.993 15.8885 780.399 16.7955 781.581 17.9979C782.763 19.2003 783.68 20.6778 784.333 22.4305C785.005 24.1628 785.341 26.1397 785.341 28.3611C785.341 29.3801 785.229 30.0628 785.005 30.4093C784.781 30.7558 784.373 30.929 783.782 30.929H763.759ZM797.676 20.5963C798.655 18.6195 799.837 17.0706 801.223 15.9497C802.608 14.8084 804.269 14.2378 806.205 14.2378C806.878 14.2378 807.51 14.3193 808.101 14.4823C808.692 14.625 809.222 14.8492 809.69 15.1549L809.232 20.1072C809.15 20.4537 809.018 20.6982 808.834 20.8409C808.671 20.9632 808.447 21.0243 808.162 21.0243C807.856 21.0243 807.418 20.9734 806.847 20.8715C806.277 20.7492 805.676 20.688 805.044 20.688C804.127 20.688 803.311 20.8205 802.598 21.0854C801.905 21.3504 801.273 21.7376 800.703 22.2471C800.153 22.7566 799.663 23.3782 799.235 24.1119C798.807 24.8456 798.41 25.6811 798.043 26.6186V46H791.471V14.8186H795.292C795.985 14.8186 796.464 14.9511 796.729 15.216C796.994 15.4606 797.177 15.8987 797.279 16.5305L797.676 20.5963ZM824.036 46.4891C821.448 46.4891 819.451 45.7656 818.045 44.3186C816.659 42.8513 815.966 40.7929 815.966 38.1435V19.9849H812.542C812.175 19.9849 811.859 19.8728 811.594 19.6487C811.329 19.4041 811.197 19.0474 811.197 18.5787V15.9191L816.241 15.1854L817.678 6.16729C817.78 5.82083 817.953 5.5457 818.197 5.3419C818.442 5.11772 818.768 5.00563 819.176 5.00563H822.538V15.2466H831.19V19.9849H822.538V37.685C822.538 38.8059 822.813 39.6618 823.364 40.2528C823.914 40.8439 824.648 41.1394 825.565 41.1394C826.074 41.1394 826.512 41.0782 826.879 40.9559C827.246 40.8133 827.562 40.6706 827.827 40.528C828.092 40.3649 828.316 40.2223 828.499 40.1C828.703 39.9573 828.897 39.886 829.08 39.886C829.447 39.886 829.743 40.0898 829.967 40.4974L831.923 43.7072C830.904 44.604 829.702 45.2969 828.316 45.786C826.93 46.2548 825.504 46.4891 824.036 46.4891ZM856.583 26.8938C856.583 25.7932 856.42 24.7742 856.094 23.8367C855.788 22.8789 855.329 22.0535 854.718 21.3606C854.107 20.6473 853.342 20.097 852.425 19.7098C851.529 19.3022 850.489 19.0984 849.307 19.0984C846.923 19.0984 845.048 19.7811 843.682 21.1466C842.317 22.512 841.451 24.4278 841.084 26.8938H856.583ZM840.9 30.929C840.982 32.702 841.257 34.2407 841.726 35.5451C842.195 36.829 842.816 37.8989 843.591 38.7549C844.385 39.6109 845.323 40.2528 846.403 40.6808C847.504 41.0884 848.726 41.2922 850.071 41.2922C851.355 41.2922 852.466 41.1496 853.404 40.8642C854.341 40.5585 855.156 40.2325 855.849 39.886C856.542 39.5192 857.133 39.1931 857.622 38.9078C858.111 38.6021 858.56 38.4492 858.967 38.4492C859.497 38.4492 859.905 38.653 860.19 39.0606L862.055 41.4756C861.28 42.3927 860.404 43.1672 859.426 43.799C858.448 44.4307 857.408 44.9504 856.308 45.358C855.207 45.7452 854.076 46.0204 852.914 46.1834C851.753 46.3668 850.622 46.4586 849.521 46.4586C847.361 46.4586 845.353 46.1019 843.499 45.3886C841.665 44.6549 840.065 43.585 838.699 42.1788C837.354 40.7725 836.295 39.03 835.52 36.9513C834.766 34.8725 834.389 32.4779 834.389 29.7673C834.389 27.607 834.725 25.5894 835.398 23.7145C836.091 21.8395 837.069 20.2091 838.333 18.8233C839.616 17.4374 841.165 16.3471 842.979 15.5523C844.813 14.7371 846.882 14.3295 849.185 14.3295C851.101 14.3295 852.874 14.6454 854.504 15.2772C856.134 15.8885 857.541 16.7955 858.723 17.9979C859.905 19.2003 860.822 20.6778 861.474 22.4305C862.147 24.1628 862.483 26.1397 862.483 28.3611C862.483 29.3801 862.371 30.0628 862.147 30.4093C861.922 30.7558 861.515 30.929 860.924 30.929H840.9ZM56.5743 67.7564V113H50.0018V67.7564H56.5743ZM81.3475 99.3658C79.0038 99.4473 77.0269 99.6409 75.4169 99.9466C73.8069 100.232 72.5026 100.609 71.5039 101.078C70.5053 101.526 69.7818 102.066 69.3335 102.698C68.9055 103.33 68.6915 104.023 68.6915 104.777C68.6915 105.51 68.8036 106.142 69.0278 106.672C69.2723 107.182 69.5984 107.609 70.006 107.956C70.434 108.282 70.9231 108.527 71.4734 108.69C72.044 108.832 72.6656 108.904 73.3381 108.904C75.0501 108.904 76.5174 108.588 77.7402 107.956C78.9834 107.304 80.1858 106.366 81.3475 105.144V99.3658ZM63.9226 86.1595C67.4483 82.8784 71.6466 81.2378 76.5174 81.2378C78.3109 81.2378 79.9005 81.5333 81.2863 82.1243C82.6926 82.6949 83.8644 83.5101 84.8019 84.5699C85.7598 85.6297 86.4832 86.8932 86.9724 88.3606C87.4819 89.8076 87.7366 91.4176 87.7366 93.1906V113H84.8019C84.1701 113 83.6912 112.908 83.3651 112.725C83.039 112.521 82.7639 112.124 82.5397 111.533L81.8977 108.995C81.1029 109.709 80.3183 110.351 79.5439 110.921C78.7694 111.471 77.9644 111.94 77.1288 112.327C76.3136 112.715 75.4271 113 74.4692 113.183C73.5318 113.387 72.4924 113.489 71.3511 113.489C70.0875 113.489 68.9055 113.316 67.805 112.969C66.7248 112.623 65.7873 112.103 64.9925 111.41C64.1977 110.697 63.5659 109.821 63.0972 108.781C62.6488 107.742 62.4246 106.519 62.4246 105.113C62.4246 103.911 62.7405 102.739 63.3723 101.597C64.0245 100.456 65.0842 99.4371 66.5516 98.5404C68.0393 97.6233 69.9856 96.8692 72.3905 96.2782C74.8157 95.6872 77.8014 95.3509 81.3475 95.2694V93.1906C81.3475 90.9488 80.8686 89.2777 79.9107 88.1772C78.9528 87.0766 77.5466 86.5264 75.692 86.5264C74.4285 86.5264 73.3687 86.6894 72.5128 87.0155C71.6568 87.3212 70.9129 87.6575 70.2811 88.0243C69.6494 88.3911 69.0889 88.7376 68.5998 89.0637C68.1107 89.3694 67.591 89.5222 67.0407 89.5222C66.5924 89.5222 66.2051 89.4101 65.8791 89.186C65.5734 88.9414 65.3186 88.6459 65.1148 88.2994L63.9226 86.1595ZM114.053 87.474C113.89 87.7594 113.707 87.9632 113.503 88.0854C113.299 88.2077 113.044 88.2689 112.739 88.2689C112.392 88.2689 112.015 88.167 111.607 87.9632C111.2 87.739 110.721 87.4944 110.171 87.2295C109.62 86.9645 108.968 86.7302 108.214 86.5264C107.481 86.3022 106.614 86.1901 105.616 86.1901C104.801 86.1901 104.057 86.292 103.384 86.4958C102.732 86.6792 102.172 86.9544 101.703 87.3212C101.254 87.6677 100.908 88.0854 100.663 88.5746C100.419 89.0433 100.297 89.5528 100.297 90.1031C100.297 90.8367 100.521 91.4481 100.969 91.9373C101.417 92.4264 102.008 92.8544 102.742 93.2212C103.476 93.5677 104.311 93.8836 105.249 94.1689C106.186 94.4542 107.144 94.7599 108.122 95.086C109.101 95.4121 110.059 95.7891 110.996 96.2171C111.934 96.645 112.769 97.1749 113.503 97.8067C114.236 98.4181 114.828 99.1722 115.276 100.069C115.724 100.945 115.948 102.015 115.948 103.279C115.948 104.746 115.683 106.101 115.154 107.345C114.624 108.588 113.849 109.668 112.83 110.585C111.811 111.502 110.538 112.215 109.009 112.725C107.501 113.234 105.769 113.489 103.812 113.489C102.732 113.489 101.682 113.387 100.663 113.183C99.6648 113 98.7069 112.745 97.7898 112.419C96.8931 112.073 96.0473 111.665 95.2525 111.196C94.4781 110.728 93.7852 110.218 93.1738 109.668L94.7023 107.161C94.8857 106.855 95.1099 106.621 95.3748 106.458C95.6601 106.275 96.0066 106.183 96.4142 106.183C96.8422 106.183 97.26 106.326 97.6676 106.611C98.0955 106.876 98.5847 107.171 99.1349 107.497C99.7056 107.823 100.388 108.129 101.183 108.414C101.978 108.679 102.966 108.812 104.148 108.812C105.127 108.812 105.972 108.7 106.686 108.476C107.399 108.231 107.99 107.905 108.459 107.497C108.928 107.09 109.274 106.631 109.498 106.122C109.722 105.592 109.834 105.031 109.834 104.44C109.834 103.646 109.61 102.993 109.162 102.484C108.714 101.974 108.112 101.536 107.358 101.169C106.625 100.803 105.779 100.476 104.821 100.191C103.883 99.9058 102.926 99.6001 101.947 99.2741C100.969 98.948 100.001 98.571 99.0432 98.143C98.1057 97.715 97.26 97.1749 96.5059 96.5228C95.7722 95.8502 95.1812 95.0452 94.7328 94.1077C94.2845 93.1499 94.0603 91.9882 94.0603 90.6228C94.0603 89.3796 94.3049 88.1975 94.794 87.0766C95.3035 85.9557 96.0372 84.9673 96.995 84.1113C97.9733 83.2554 99.1655 82.5828 100.572 82.0937C101.998 81.5842 103.639 81.3295 105.493 81.3295C107.593 81.3295 109.498 81.6657 111.21 82.3383C112.922 83.0108 114.359 83.9279 115.52 85.0896L114.053 87.474ZM185.59 68.7958L180.148 113H173.178L176.724 84.2031C176.806 83.6732 176.898 83.1025 177 82.4911C177.122 81.8797 177.254 81.248 177.397 80.5958L162.204 105.785C161.857 106.356 161.419 106.784 160.889 107.069C160.38 107.355 159.819 107.497 159.208 107.497H158.107C157.496 107.497 156.956 107.355 156.487 107.069C156.039 106.784 155.713 106.356 155.509 105.785L146.399 80.5958C146.379 81.2276 146.348 81.839 146.307 82.43C146.287 83.021 146.246 83.5713 146.185 84.0808L142.7 113H135.7L141.141 68.7958H147.102C147.449 68.7958 147.734 68.8162 147.958 68.8569C148.203 68.8773 148.417 68.9384 148.6 69.0403C148.783 69.1219 148.957 69.2543 149.12 69.4377C149.283 69.6008 149.456 69.8148 149.639 70.0797L158.78 95.3305C159.147 96.4107 159.452 97.5112 159.697 98.6321C159.962 98.0615 160.227 97.501 160.492 96.9507C160.777 96.4005 161.083 95.8604 161.409 95.3305L176.755 70.0797C177 69.8148 177.214 69.6008 177.397 69.4377C177.601 69.2543 177.805 69.1219 178.008 69.0403C178.212 68.9384 178.436 68.8773 178.681 68.8569C178.925 68.8162 179.221 68.7958 179.567 68.7958H185.59ZM208.197 86.5875C207.911 86.5671 207.636 86.5569 207.371 86.5569C207.127 86.5366 206.882 86.5264 206.638 86.5264C204.946 86.5264 203.377 86.9136 201.93 87.688C200.483 88.4625 199.23 89.512 198.17 90.8367C197.13 92.1411 196.305 93.6696 195.694 95.4222C195.103 97.1545 194.807 98.9887 194.807 100.925C194.807 103.126 195.154 104.736 195.846 105.755C196.539 106.774 197.487 107.283 198.689 107.283C199.525 107.283 200.34 106.998 201.135 106.427C201.95 105.836 202.715 105.042 203.428 104.043C204.162 103.024 204.824 101.832 205.415 100.466C206.026 99.1008 206.556 97.6335 207.005 96.0642L208.197 86.5875ZM206.118 106.458C204.732 108.598 203.163 110.3 201.41 111.563C199.678 112.827 197.783 113.459 195.724 113.459C194.542 113.459 193.431 113.224 192.392 112.755C191.373 112.287 190.476 111.594 189.702 110.677C188.948 109.739 188.347 108.578 187.898 107.192C187.47 105.785 187.256 104.145 187.256 102.27C187.256 100.395 187.491 98.571 187.959 96.7979C188.428 95.0248 189.09 93.3639 189.946 91.815C190.823 90.2457 191.872 88.8089 193.095 87.5046C194.318 86.2003 195.683 85.0794 197.192 84.1419C198.72 83.2044 200.361 82.4809 202.113 81.9714C203.886 81.4416 205.751 81.1766 207.708 81.1766C209.114 81.1766 210.52 81.2785 211.926 81.4823C213.353 81.6861 214.739 82.053 216.084 82.5828L212.324 113H208.319C207.361 113 206.709 112.766 206.363 112.297C206.036 111.808 205.873 111.207 205.873 110.493L206.118 106.458ZM221.893 106.611C221.893 106.468 221.893 106.305 221.893 106.122C221.893 105.918 221.903 105.633 221.923 105.266C221.964 104.879 222.015 104.379 222.076 103.768C222.158 103.136 222.259 102.331 222.382 101.353L224.124 87.2906H221.159C220.792 87.2906 220.486 87.1582 220.242 86.8932C220.018 86.6283 219.946 86.2309 220.028 85.701L220.364 82.7051L225.133 81.8797L227.64 73.3201C227.782 72.9125 227.996 72.5966 228.282 72.3725C228.567 72.1483 228.924 72.0362 229.352 72.0362H233.387L232.164 81.9103H239.745L239.103 87.2906H231.492L229.81 100.955C229.708 101.791 229.627 102.453 229.566 102.942C229.505 103.432 229.454 103.819 229.413 104.104C229.392 104.369 229.382 104.563 229.382 104.685C229.382 104.787 229.382 104.858 229.382 104.899C229.382 105.673 229.566 106.285 229.932 106.733C230.32 107.182 230.86 107.406 231.553 107.406C231.981 107.406 232.348 107.355 232.653 107.253C232.959 107.131 233.224 107.008 233.448 106.886C233.672 106.764 233.876 106.652 234.059 106.55C234.243 106.427 234.416 106.366 234.579 106.366C234.803 106.366 234.977 106.427 235.099 106.55C235.221 106.652 235.333 106.815 235.435 107.039L237.055 110.707C235.934 111.624 234.691 112.317 233.326 112.786C231.981 113.255 230.605 113.489 229.199 113.489C226.977 113.489 225.215 112.888 223.91 111.685C222.626 110.483 221.954 108.792 221.893 106.611ZM257.321 86.4652C256.302 86.4652 255.355 86.6792 254.478 87.1072C253.602 87.5148 252.807 88.0956 252.094 88.8497C251.401 89.6038 250.789 90.5107 250.26 91.5704C249.75 92.6098 249.343 93.7511 249.037 94.9943C251.564 94.6478 253.592 94.2708 255.12 93.8632C256.669 93.4352 257.861 92.9868 258.697 92.5181C259.533 92.029 260.083 91.5093 260.348 90.959C260.633 90.3884 260.776 89.7974 260.776 89.186C260.776 88.8803 260.704 88.5644 260.562 88.2383C260.439 87.9122 260.236 87.6269 259.95 87.3823C259.685 87.1174 259.329 86.9034 258.88 86.7404C258.452 86.5569 257.933 86.4652 257.321 86.4652ZM248.395 100.222C248.395 105.154 250.484 107.62 254.662 107.62C255.558 107.62 256.353 107.538 257.046 107.375C257.739 107.192 258.34 106.978 258.85 106.733C259.38 106.489 259.848 106.213 260.256 105.908C260.684 105.602 261.071 105.327 261.418 105.082C261.785 104.838 262.141 104.634 262.488 104.471C262.834 104.288 263.211 104.196 263.619 104.196C263.863 104.196 264.098 104.257 264.322 104.379C264.566 104.502 264.78 104.665 264.964 104.868L266.89 107.192C265.81 108.272 264.75 109.209 263.71 110.004C262.671 110.799 261.611 111.451 260.531 111.961C259.451 112.47 258.31 112.847 257.107 113.092C255.905 113.336 254.601 113.459 253.194 113.459C251.36 113.459 249.699 113.153 248.211 112.541C246.724 111.91 245.45 111.033 244.39 109.912C243.33 108.771 242.505 107.406 241.914 105.816C241.343 104.206 241.058 102.413 241.058 100.436C241.058 98.7849 241.231 97.1647 241.578 95.5751C241.945 93.9855 242.464 92.4773 243.137 91.0507C243.809 89.6241 244.635 88.3096 245.613 87.1072C246.591 85.9048 247.692 84.8654 248.915 83.9891C250.158 83.1127 251.513 82.43 252.98 81.9409C254.468 81.4518 256.058 81.2072 257.749 81.2072C259.38 81.2072 260.806 81.4416 262.029 81.9103C263.272 82.379 264.301 82.9904 265.117 83.7445C265.952 84.4782 266.574 85.3036 266.981 86.2207C267.389 87.1378 267.593 88.0345 267.593 88.9108C267.593 90.3171 267.307 91.601 266.737 92.7627C266.187 93.9243 265.188 94.9637 263.741 95.8808C262.314 96.7979 260.358 97.5927 257.872 98.2653C255.385 98.9174 252.226 99.4371 248.395 99.8243V100.222ZM270.76 113L274.551 81.6046H278.403C279.197 81.6046 279.809 81.7982 280.237 82.1854C280.685 82.5727 280.909 83.1942 280.909 84.0502L280.757 87.5046C282.163 85.3647 283.691 83.7751 285.342 82.7357C286.993 81.6759 288.715 81.1461 290.508 81.1461C292.424 81.1461 293.942 81.788 295.063 83.072C296.184 84.3559 296.836 86.2105 297.02 88.6357C298.487 86.0678 300.107 84.1827 301.88 82.9803C303.674 81.7575 305.62 81.1461 307.719 81.1461C309.044 81.1461 310.206 81.411 311.204 81.9409C312.203 82.4708 313.018 83.2452 313.65 84.2642C314.282 85.2628 314.71 86.506 314.934 87.9937C315.158 89.4611 315.148 91.1424 314.903 93.0378L312.549 113H305.09L307.444 93.0378C307.709 90.9998 307.648 89.5426 307.261 88.6663C306.894 87.7696 306.14 87.3212 304.999 87.3212C304.224 87.3212 303.47 87.525 302.736 87.9326C302.003 88.3402 301.3 88.9312 300.627 89.7057C299.975 90.4801 299.363 91.4278 298.793 92.5487C298.243 93.6696 297.753 94.9331 297.325 96.3393L295.369 113H287.91L290.294 93.0378C290.539 90.9998 290.488 89.5426 290.142 88.6663C289.795 87.7696 289.041 87.3212 287.879 87.3212C287.064 87.3212 286.28 87.5352 285.525 87.9632C284.792 88.3911 284.089 89.0127 283.416 89.8279C282.764 90.6228 282.153 91.601 281.582 92.7627C281.032 93.9039 280.543 95.1879 280.115 96.6145L278.158 113H270.76ZM340.03 86.5875C339.745 86.5671 339.469 86.5569 339.204 86.5569C338.96 86.5366 338.715 86.5264 338.471 86.5264C336.779 86.5264 335.21 86.9136 333.763 87.688C332.316 88.4625 331.063 89.512 330.003 90.8367C328.964 92.1411 328.138 93.6696 327.527 95.4222C326.936 97.1545 326.64 98.9887 326.64 100.925C326.64 103.126 326.987 104.736 327.68 105.755C328.373 106.774 329.32 107.283 330.523 107.283C331.358 107.283 332.173 106.998 332.968 106.427C333.783 105.836 334.548 105.042 335.261 104.043C335.995 103.024 336.657 101.832 337.248 100.466C337.859 99.1008 338.389 97.6335 338.838 96.0642L340.03 86.5875ZM337.951 106.458C336.565 108.598 334.996 110.3 333.243 111.563C331.511 112.827 329.616 113.459 327.557 113.459C326.375 113.459 325.265 113.224 324.225 112.755C323.206 112.287 322.309 111.594 321.535 110.677C320.781 109.739 320.18 108.578 319.731 107.192C319.303 105.785 319.089 104.145 319.089 102.27C319.089 100.395 319.324 98.571 319.793 96.7979C320.261 95.0248 320.924 93.3639 321.78 91.815C322.656 90.2457 323.705 88.8089 324.928 87.5046C326.151 86.2003 327.517 85.0794 329.025 84.1419C330.553 83.2044 332.194 82.4809 333.946 81.9714C335.72 81.4416 337.584 81.1766 339.541 81.1766C340.947 81.1766 342.353 81.2785 343.759 81.4823C345.186 81.6861 346.572 82.053 347.917 82.5828L344.157 113H340.152C339.194 113 338.542 112.766 338.196 112.297C337.87 111.808 337.707 111.207 337.707 110.493L337.951 106.458ZM350.699 68.3067L342.842 76.2854C342.455 76.693 342.088 76.9783 341.742 77.1414C341.395 77.284 340.957 77.3554 340.427 77.3554H336.27L341.1 69.9269C341.446 69.397 341.823 68.9996 342.231 68.7346C342.639 68.4493 343.219 68.3067 343.973 68.3067H350.699ZM380.505 113H373.229L376.409 87.1683H363.355L361.643 100.955C361.541 101.791 361.46 102.453 361.399 102.942C361.338 103.432 361.287 103.819 361.246 104.104C361.226 104.369 361.205 104.563 361.185 104.685C361.185 104.787 361.185 104.858 361.185 104.899C361.185 105.673 361.368 106.285 361.735 106.733C362.122 107.182 362.662 107.406 363.355 107.406C363.783 107.406 364.15 107.355 364.456 107.253C364.761 107.131 365.026 107.008 365.251 106.886C365.475 106.764 365.679 106.652 365.862 106.55C366.045 106.427 366.219 106.366 366.382 106.366C366.606 106.366 366.779 106.427 366.901 106.55C367.024 106.652 367.136 106.815 367.238 107.039L368.888 110.707C367.747 111.624 366.494 112.317 365.128 112.786C363.783 113.255 362.418 113.489 361.032 113.489C358.811 113.489 357.048 112.888 355.743 111.685C354.459 110.483 353.777 108.792 353.695 106.611C353.695 106.468 353.695 106.305 353.695 106.122C353.695 105.918 353.705 105.633 353.726 105.266C353.766 104.879 353.817 104.379 353.879 103.768C353.96 103.136 354.062 102.331 354.184 101.353L355.927 87.1683H353.114C352.707 87.1683 352.381 87.0461 352.136 86.8015C351.912 86.5366 351.83 86.1493 351.892 85.6398L352.258 82.7357L356.905 81.9409L359.473 73.3201C359.595 72.9125 359.799 72.5966 360.084 72.3725C360.37 72.1483 360.726 72.0362 361.154 72.0362H365.22L363.997 82.002H384.326L380.505 113ZM386.925 72.4947C386.925 73.1469 386.782 73.7583 386.497 74.3289C386.232 74.8996 385.875 75.3989 385.427 75.8269C384.999 76.2549 384.5 76.6013 383.929 76.8663C383.358 77.1108 382.767 77.2331 382.156 77.2331C381.565 77.2331 380.984 77.1108 380.413 76.8663C379.863 76.6013 379.374 76.2549 378.946 75.8269C378.518 75.3989 378.172 74.8996 377.907 74.3289C377.662 73.7583 377.54 73.1469 377.54 72.4947C377.54 71.8426 377.672 71.221 377.937 70.63C378.202 70.039 378.549 69.5295 378.977 69.1015C379.405 68.6531 379.894 68.3067 380.444 68.0621C381.015 67.7972 381.595 67.6647 382.186 67.6647C382.798 67.6647 383.389 67.7972 383.959 68.0621C384.53 68.3067 385.029 68.6429 385.457 69.0709C385.906 69.4989 386.262 70.0084 386.527 70.5994C386.792 71.1904 386.925 71.8222 386.925 72.4947ZM411.967 107.436C410.927 108.578 409.929 109.535 408.971 110.31C408.033 111.084 407.076 111.706 406.097 112.175C405.119 112.643 404.09 112.969 403.01 113.153C401.95 113.357 400.778 113.459 399.494 113.459C397.68 113.459 396.05 113.153 394.603 112.541C393.176 111.91 391.964 111.023 390.965 109.882C389.967 108.741 389.202 107.365 388.672 105.755C388.143 104.145 387.878 102.351 387.878 100.375C387.878 98.683 388.061 97.0323 388.428 95.4222C388.795 93.8122 389.325 92.2939 390.018 90.8673C390.71 89.4407 391.546 88.1364 392.524 86.9544C393.503 85.7723 394.603 84.7533 395.826 83.8974C397.049 83.0414 398.373 82.379 399.8 81.9103C401.247 81.4212 402.775 81.1766 404.385 81.1766C406.464 81.1766 408.227 81.5435 409.674 82.2772C411.141 83.0108 412.436 84.1113 413.556 85.5787L411.141 88.4523C410.978 88.6357 410.775 88.8089 410.53 88.972C410.285 89.1146 410.021 89.186 409.735 89.186C409.389 89.186 409.073 89.0841 408.788 88.8803C408.523 88.6561 408.197 88.4217 407.809 88.1772C407.442 87.9326 406.974 87.7084 406.403 87.5046C405.853 87.2804 405.129 87.1683 404.233 87.1683C403.071 87.1683 401.96 87.4842 400.9 88.116C399.841 88.7478 398.903 89.6445 398.088 90.8062C397.273 91.9678 396.621 93.3639 396.132 94.9943C395.663 96.6247 395.428 98.4283 395.428 100.405C395.428 102.708 395.938 104.491 396.957 105.755C397.976 106.998 399.362 107.62 401.114 107.62C401.889 107.62 402.572 107.538 403.163 107.375C403.754 107.212 404.273 107.018 404.722 106.794C405.19 106.55 405.598 106.295 405.945 106.03C406.291 105.745 406.617 105.49 406.923 105.266C407.228 105.021 407.514 104.817 407.779 104.654C408.064 104.491 408.37 104.41 408.696 104.41C408.961 104.41 409.205 104.481 409.43 104.624C409.674 104.746 409.888 104.909 410.071 105.113L411.967 107.436ZM435.8 86.5875C435.515 86.5671 435.24 86.5569 434.975 86.5569C434.73 86.5366 434.485 86.5264 434.241 86.5264C432.549 86.5264 430.98 86.9136 429.533 87.688C428.086 88.4625 426.833 89.512 425.773 90.8367C424.734 92.1411 423.908 93.6696 423.297 95.4222C422.706 97.1545 422.41 98.9887 422.41 100.925C422.41 103.126 422.757 104.736 423.45 105.755C424.143 106.774 425.09 107.283 426.293 107.283C427.128 107.283 427.943 106.998 428.738 106.427C429.553 105.836 430.318 105.042 431.031 104.043C431.765 103.024 432.427 101.832 433.018 100.466C433.629 99.1008 434.159 97.6335 434.608 96.0642L435.8 86.5875ZM433.721 106.458C432.335 108.598 430.766 110.3 429.013 111.563C427.281 112.827 425.386 113.459 423.327 113.459C422.145 113.459 421.035 113.224 419.995 112.755C418.976 112.287 418.08 111.594 417.305 110.677C416.551 109.739 415.95 108.578 415.501 107.192C415.073 105.785 414.86 104.145 414.86 102.27C414.86 100.395 415.094 98.571 415.563 96.7979C416.031 95.0248 416.694 93.3639 417.55 91.815C418.426 90.2457 419.476 88.8089 420.698 87.5046C421.921 86.2003 423.287 85.0794 424.795 84.1419C426.323 83.2044 427.964 82.4809 429.717 81.9714C431.49 81.4416 433.354 81.1766 435.311 81.1766C436.717 81.1766 438.123 81.2785 439.529 81.4823C440.956 81.6861 442.342 82.053 443.687 82.5828L439.927 113H435.922C434.964 113 434.312 112.766 433.966 112.297C433.64 111.808 433.477 111.207 433.477 110.493L433.721 106.458ZM467.746 87.5352C467.522 87.8613 467.308 88.0956 467.104 88.2383C466.9 88.3606 466.635 88.4217 466.309 88.4217C465.942 88.4217 465.576 88.3198 465.209 88.116C464.842 87.9122 464.414 87.688 463.925 87.4435C463.456 87.1785 462.906 86.9442 462.274 86.7404C461.663 86.5366 460.929 86.4347 460.073 86.4347C458.463 86.4347 457.23 86.8015 456.374 87.5352C455.518 88.2485 455.09 89.1452 455.09 90.2253C455.09 91.0609 455.386 91.7335 455.977 92.243C456.588 92.7525 457.352 93.2008 458.269 93.588C459.186 93.9753 460.165 94.3727 461.204 94.7803C462.264 95.1675 463.252 95.6668 464.169 96.2782C465.086 96.8692 465.841 97.6437 466.432 98.6015C467.043 99.539 467.349 100.752 467.349 102.239C467.349 103.747 467.043 105.184 466.432 106.55C465.841 107.915 464.985 109.118 463.864 110.157C462.743 111.176 461.387 111.991 459.798 112.603C458.229 113.194 456.456 113.489 454.479 113.489C453.5 113.489 452.543 113.387 451.605 113.183C450.668 113 449.791 112.735 448.976 112.389C448.181 112.042 447.448 111.635 446.775 111.166C446.102 110.697 445.532 110.188 445.063 109.637L446.928 106.764C447.152 106.417 447.417 106.152 447.723 105.969C448.028 105.785 448.405 105.694 448.854 105.694C449.282 105.694 449.669 105.826 450.015 106.091C450.362 106.356 450.759 106.652 451.208 106.978C451.676 107.283 452.237 107.569 452.889 107.834C453.562 108.099 454.418 108.231 455.457 108.231C456.292 108.231 457.026 108.119 457.658 107.895C458.31 107.671 458.86 107.365 459.309 106.978C459.757 106.59 460.093 106.142 460.318 105.633C460.542 105.123 460.654 104.583 460.654 104.012C460.654 103.319 460.481 102.749 460.134 102.3C459.788 101.832 459.319 101.434 458.728 101.108C458.157 100.762 457.505 100.466 456.771 100.222C456.038 99.9568 455.284 99.6817 454.509 99.3963C453.755 99.111 453.011 98.7849 452.278 98.4181C451.564 98.0513 450.912 97.5927 450.321 97.0425C449.751 96.4718 449.292 95.7891 448.946 94.9943C448.599 94.1791 448.426 93.1906 448.426 92.029C448.426 90.6431 448.691 89.2981 449.221 87.9937C449.751 86.669 450.525 85.5074 451.544 84.5088C452.563 83.4898 453.816 82.6746 455.304 82.0632C456.812 81.4518 458.534 81.1461 460.47 81.1461C462.468 81.1461 464.241 81.4925 465.79 82.1854C467.338 82.858 468.633 83.7241 469.672 84.7839L467.746 87.5352ZM510.073 93.8938C510.073 92.7932 509.91 91.7742 509.584 90.8367C509.278 89.8789 508.82 89.0535 508.208 88.3606C507.597 87.6473 506.833 87.097 505.916 86.7098C505.019 86.3022 503.979 86.0984 502.797 86.0984C500.413 86.0984 498.538 86.7811 497.173 88.1466C495.807 89.512 494.941 91.4278 494.574 93.8938H510.073ZM494.391 97.929C494.472 99.702 494.747 101.241 495.216 102.545C495.685 103.829 496.306 104.899 497.081 105.755C497.876 106.611 498.813 107.253 499.893 107.681C500.994 108.088 502.217 108.292 503.562 108.292C504.846 108.292 505.956 108.15 506.894 107.864C507.831 107.559 508.646 107.232 509.339 106.886C510.032 106.519 510.623 106.193 511.112 105.908C511.602 105.602 512.05 105.449 512.458 105.449C512.987 105.449 513.395 105.653 513.68 106.061L515.545 108.476C514.771 109.393 513.894 110.167 512.916 110.799C511.938 111.431 510.898 111.95 509.798 112.358C508.697 112.745 507.566 113.02 506.405 113.183C505.243 113.367 504.112 113.459 503.011 113.459C500.851 113.459 498.844 113.102 496.989 112.389C495.155 111.655 493.555 110.585 492.19 109.179C490.845 107.773 489.785 106.03 489.01 103.951C488.256 101.873 487.879 99.4779 487.879 96.7673C487.879 94.607 488.216 92.5894 488.888 90.7145C489.581 88.8395 490.559 87.2091 491.823 85.8233C493.107 84.4374 494.656 83.3471 496.469 82.5523C498.304 81.7371 500.372 81.3295 502.675 81.3295C504.591 81.3295 506.364 81.6454 507.994 82.2772C509.625 82.8885 511.031 83.7955 512.213 84.9979C513.395 86.2003 514.312 87.6778 514.964 89.4305C515.637 91.1628 515.973 93.1397 515.973 95.3611C515.973 96.3801 515.861 97.0628 515.637 97.4093C515.413 97.7558 515.005 97.929 514.414 97.929H494.391ZM528.247 85.9455C528.919 85.2526 529.612 84.631 530.326 84.0808C531.059 83.5101 531.834 83.021 532.649 82.6134C533.464 82.2058 534.33 81.8899 535.247 81.6657C536.165 81.4416 537.163 81.3295 538.243 81.3295C539.955 81.3295 541.453 81.6148 542.737 82.1854C544.041 82.7561 545.132 83.5611 546.008 84.6005C546.905 85.6398 547.577 86.8932 548.026 88.3606C548.474 89.8076 548.698 91.4074 548.698 93.1601V113H542.156V93.1601C542.156 91.0609 541.667 89.4305 540.689 88.2689C539.731 87.1072 538.264 86.5264 536.287 86.5264C534.82 86.5264 533.454 86.8626 532.19 87.5352C530.947 88.2077 529.775 89.1248 528.675 90.2865V113H522.102V81.8186H526.076C526.973 81.8186 527.544 82.2364 527.788 83.072L528.247 85.9455ZM591.501 89.4917C590.583 88.3096 589.575 87.4842 588.474 87.0155C587.374 86.5468 586.181 86.3124 584.897 86.3124C582.33 86.3124 580.322 87.2601 578.875 89.1554C577.428 91.0304 576.705 93.8122 576.705 97.501C576.705 99.4167 576.868 101.057 577.194 102.423C577.52 103.768 577.989 104.868 578.6 105.724C579.211 106.58 579.955 107.202 580.832 107.589C581.708 107.976 582.696 108.17 583.797 108.17C585.468 108.17 586.905 107.813 588.107 107.1C589.33 106.366 590.461 105.337 591.501 104.012V89.4917ZM598.073 67.7564V113H594.099C593.223 113 592.662 112.582 592.418 111.747L591.837 108.353C590.533 109.882 589.045 111.115 587.374 112.052C585.723 112.99 583.797 113.459 581.596 113.459C579.843 113.459 578.254 113.112 576.827 112.419C575.4 111.706 574.178 110.677 573.159 109.332C572.14 107.987 571.345 106.326 570.774 104.349C570.224 102.351 569.949 100.069 569.949 97.501C569.949 95.1777 570.254 93.0276 570.866 91.0507C571.498 89.0739 572.394 87.362 573.556 85.915C574.718 84.4476 576.124 83.3063 577.775 82.4911C579.446 81.6556 581.311 81.2378 583.369 81.2378C585.203 81.2378 586.762 81.5333 588.046 82.1243C589.33 82.6949 590.482 83.4999 591.501 84.5393V67.7564H598.073ZM612.958 81.8186V113H606.385V81.8186H612.958ZM614.058 72.403C614.058 72.9941 613.936 73.5545 613.692 74.0844C613.467 74.6143 613.151 75.083 612.744 75.4906C612.336 75.8778 611.857 76.1937 611.307 76.4383C610.777 76.6625 610.207 76.7745 609.595 76.7745C609.004 76.7745 608.444 76.6625 607.914 76.4383C607.404 76.1937 606.956 75.8778 606.569 75.4906C606.182 75.083 605.866 74.6143 605.621 74.0844C605.397 73.5545 605.285 72.9941 605.285 72.403C605.285 71.7916 605.397 71.221 605.621 70.6911C605.866 70.1612 606.182 69.7027 606.569 69.3155C606.956 68.9079 607.404 68.592 607.914 68.3678C608.444 68.1232 609.004 68.001 609.595 68.001C610.207 68.001 610.777 68.1232 611.307 68.3678C611.857 68.592 612.336 68.9079 612.744 69.3155C613.151 69.7027 613.467 70.1612 613.692 70.6911C613.936 71.221 614.058 71.7916 614.058 72.403ZM648.668 81.8186L636.134 113H630.204L617.67 81.8186H623.081C623.59 81.8186 624.008 81.9511 624.334 82.216C624.681 82.4606 624.905 82.7561 625.007 83.1025L631.916 101.261C632.201 102.117 632.456 102.963 632.68 103.798C632.904 104.634 633.098 105.48 633.261 106.336C633.424 105.48 633.617 104.644 633.841 103.829C634.086 102.993 634.351 102.137 634.636 101.261L641.667 83.1025C641.79 82.7357 642.014 82.43 642.34 82.1854C642.666 81.9409 643.063 81.8186 643.532 81.8186H648.668ZM672.715 93.8938C672.715 92.7932 672.552 91.7742 672.226 90.8367C671.92 89.8789 671.462 89.0535 670.85 88.3606C670.239 87.6473 669.475 87.097 668.558 86.7098C667.661 86.3022 666.621 86.0984 665.439 86.0984C663.055 86.0984 661.18 86.7811 659.814 88.1466C658.449 89.512 657.583 91.4278 657.216 93.8938H672.715ZM657.033 97.929C657.114 99.702 657.389 101.241 657.858 102.545C658.327 103.829 658.948 104.899 659.723 105.755C660.518 106.611 661.455 107.253 662.535 107.681C663.636 108.088 664.859 108.292 666.204 108.292C667.488 108.292 668.598 108.15 669.536 107.864C670.473 107.559 671.288 107.232 671.981 106.886C672.674 106.519 673.265 106.193 673.754 105.908C674.244 105.602 674.692 105.449 675.099 105.449C675.629 105.449 676.037 105.653 676.322 106.061L678.187 108.476C677.413 109.393 676.536 110.167 675.558 110.799C674.58 111.431 673.54 111.95 672.44 112.358C671.339 112.745 670.208 113.02 669.047 113.183C667.885 113.367 666.754 113.459 665.653 113.459C663.493 113.459 661.486 113.102 659.631 112.389C657.797 111.655 656.197 110.585 654.832 109.179C653.487 107.773 652.427 106.03 651.652 103.951C650.898 101.873 650.521 99.4779 650.521 96.7673C650.521 94.607 650.857 92.5894 651.53 90.7145C652.223 88.8395 653.201 87.2091 654.465 85.8233C655.749 84.4374 657.298 83.3471 659.111 82.5523C660.946 81.7371 663.014 81.3295 665.317 81.3295C667.233 81.3295 669.006 81.6454 670.636 82.2772C672.267 82.8885 673.673 83.7955 674.855 84.9979C676.037 86.2003 676.954 87.6778 677.606 89.4305C678.279 91.1628 678.615 93.1397 678.615 95.3611C678.615 96.3801 678.503 97.0628 678.279 97.4093C678.055 97.7558 677.647 97.929 677.056 97.929H657.033ZM690.95 87.5963C691.928 85.6195 693.11 84.0706 694.496 82.9497C695.882 81.8084 697.543 81.2378 699.479 81.2378C700.152 81.2378 700.783 81.3193 701.374 81.4823C701.965 81.625 702.495 81.8492 702.964 82.1549L702.506 87.1072C702.424 87.4537 702.292 87.6982 702.108 87.8409C701.945 87.9632 701.721 88.0243 701.436 88.0243C701.13 88.0243 700.692 87.9734 700.121 87.8715C699.55 87.7492 698.949 87.688 698.317 87.688C697.4 87.688 696.585 87.8205 695.872 88.0854C695.179 88.3504 694.547 88.7376 693.976 89.2471C693.426 89.7566 692.937 90.3782 692.509 91.1119C692.081 91.8456 691.684 92.6811 691.317 93.6186V113H684.744V81.8186H688.566C689.259 81.8186 689.737 81.9511 690.002 82.216C690.267 82.4606 690.451 82.8987 690.553 83.5305L690.95 87.5963ZM725.752 87.474C725.589 87.7594 725.405 87.9632 725.201 88.0854C724.998 88.2077 724.743 88.2689 724.437 88.2689C724.091 88.2689 723.714 88.167 723.306 87.9632C722.898 87.739 722.419 87.4944 721.869 87.2295C721.319 86.9645 720.667 86.7302 719.913 86.5264C719.179 86.3022 718.313 86.1901 717.314 86.1901C716.499 86.1901 715.755 86.292 715.083 86.4958C714.431 86.6792 713.87 86.9544 713.401 87.3212C712.953 87.6677 712.607 88.0854 712.362 88.5746C712.117 89.0433 711.995 89.5528 711.995 90.1031C711.995 90.8367 712.219 91.4481 712.668 91.9373C713.116 92.4264 713.707 92.8544 714.441 93.2212C715.174 93.5677 716.01 93.8836 716.947 94.1689C717.885 94.4542 718.843 94.7599 719.821 95.086C720.799 95.4121 721.757 95.7891 722.695 96.2171C723.632 96.645 724.468 97.1749 725.201 97.8067C725.935 98.4181 726.526 99.1722 726.974 100.069C727.423 100.945 727.647 102.015 727.647 103.279C727.647 104.746 727.382 106.101 726.852 107.345C726.322 108.588 725.548 109.668 724.529 110.585C723.51 111.502 722.236 112.215 720.708 112.725C719.199 113.234 717.467 113.489 715.511 113.489C714.431 113.489 713.381 113.387 712.362 113.183C711.363 113 710.405 112.745 709.488 112.419C708.592 112.073 707.746 111.665 706.951 111.196C706.177 110.728 705.484 110.218 704.872 109.668L706.401 107.161C706.584 106.855 706.808 106.621 707.073 106.458C707.359 106.275 707.705 106.183 708.113 106.183C708.541 106.183 708.959 106.326 709.366 106.611C709.794 106.876 710.283 107.171 710.833 107.497C711.404 107.823 712.087 108.129 712.882 108.414C713.676 108.679 714.665 108.812 715.847 108.812C716.825 108.812 717.671 108.7 718.384 108.476C719.098 108.231 719.689 107.905 720.157 107.497C720.626 107.09 720.973 106.631 721.197 106.122C721.421 105.592 721.533 105.031 721.533 104.44C721.533 103.646 721.309 102.993 720.86 102.484C720.412 101.974 719.811 101.536 719.057 101.169C718.323 100.803 717.477 100.476 716.519 100.191C715.582 99.9058 714.624 99.6001 713.646 99.2741C712.668 98.948 711.7 98.571 710.742 98.143C709.804 97.715 708.959 97.1749 708.204 96.5228C707.471 95.8502 706.88 95.0452 706.431 94.1077C705.983 93.1499 705.759 91.9882 705.759 90.6228C705.759 89.3796 706.003 88.1975 706.493 87.0766C707.002 85.9557 707.736 84.9673 708.694 84.1113C709.672 83.2554 710.864 82.5828 712.27 82.0937C713.697 81.5842 715.337 81.3295 717.192 81.3295C719.291 81.3295 721.197 81.6657 722.909 82.3383C724.621 83.0108 726.057 83.9279 727.219 85.0896L725.752 87.474ZM740.671 81.8186V113H734.099V81.8186H740.671ZM741.772 72.403C741.772 72.9941 741.649 73.5545 741.405 74.0844C741.181 74.6143 740.865 75.083 740.457 75.4906C740.05 75.8778 739.571 76.1937 739.02 76.4383C738.491 76.6625 737.92 76.7745 737.308 76.7745C736.717 76.7745 736.157 76.6625 735.627 76.4383C735.118 76.1937 734.669 75.8778 734.282 75.4906C733.895 75.083 733.579 74.6143 733.334 74.0844C733.11 73.5545 732.998 72.9941 732.998 72.403C732.998 71.7916 733.11 71.221 733.334 70.6911C733.579 70.1612 733.895 69.7027 734.282 69.3155C734.669 68.9079 735.118 68.592 735.627 68.3678C736.157 68.1232 736.717 68.001 737.308 68.001C737.92 68.001 738.491 68.1232 739.02 68.3678C739.571 68.592 740.05 68.9079 740.457 69.3155C740.865 69.7027 741.181 70.1612 741.405 70.6911C741.649 71.221 741.772 71.7916 741.772 72.403ZM762.411 81.3295C764.714 81.3295 766.792 81.7065 768.647 82.4606C770.522 83.2146 772.112 84.2846 773.416 85.6704C774.741 87.0563 775.76 88.7376 776.473 90.7145C777.186 92.6913 777.543 94.9127 777.543 97.3787C777.543 99.8447 777.186 102.066 776.473 104.043C775.76 106.02 774.741 107.711 773.416 109.118C772.112 110.503 770.522 111.573 768.647 112.327C766.792 113.082 764.714 113.459 762.411 113.459C760.087 113.459 757.988 113.082 756.113 112.327C754.259 111.573 752.669 110.503 751.344 109.118C750.02 107.711 749.001 106.02 748.287 104.043C747.574 102.066 747.217 99.8447 747.217 97.3787C747.217 94.9127 747.574 92.6913 748.287 90.7145C749.001 88.7376 750.02 87.0563 751.344 85.6704C752.669 84.2846 754.259 83.2146 756.113 82.4606C757.988 81.7065 760.087 81.3295 762.411 81.3295ZM762.411 108.323C765.223 108.323 767.312 107.385 768.678 105.51C770.063 103.615 770.756 100.915 770.756 97.4093C770.756 93.9039 770.063 91.2036 768.678 89.3082C767.312 87.3925 765.223 86.4347 762.411 86.4347C759.558 86.4347 757.438 87.3925 756.052 89.3082C754.666 91.2036 753.973 93.9039 753.973 97.4093C753.973 100.915 754.666 103.615 756.052 105.51C757.438 107.385 759.558 108.323 762.411 108.323ZM772.224 68.4901L764.856 76.4077C764.53 76.7745 764.204 77.0293 763.878 77.172C763.572 77.3146 763.165 77.3859 762.655 77.3859H758.742L763.175 69.988C763.46 69.4785 763.786 69.1015 764.153 68.8569C764.54 68.6124 765.101 68.4901 765.835 68.4901H772.224ZM790.003 85.9455C790.675 85.2526 791.368 84.631 792.081 84.0808C792.815 83.5101 793.589 83.021 794.405 82.6134C795.22 82.2058 796.086 81.8899 797.003 81.6657C797.92 81.4416 798.919 81.3295 799.999 81.3295C801.711 81.3295 803.209 81.6148 804.493 82.1854C805.797 82.7561 806.887 83.5611 807.764 84.6005C808.66 85.6398 809.333 86.8932 809.781 88.3606C810.23 89.8076 810.454 91.4074 810.454 93.1601V113H803.912V93.1601C803.912 91.0609 803.423 89.4305 802.445 88.2689C801.487 87.1072 800.019 86.5264 798.042 86.5264C796.575 86.5264 795.21 86.8626 793.946 87.5352C792.703 88.2077 791.531 89.1248 790.431 90.2865V113H783.858V81.8186H787.832C788.729 81.8186 789.299 82.2364 789.544 83.072L790.003 85.9455Z" fill="white"/>
</svg>
