<svg width="461" height="124" viewBox="0 0 461 124" fill="none" xmlns="http://www.w3.org/2000/svg">
<path d="M22.5705 30.394V35H3.0185V1.16H8.5175V30.394H22.5705ZM39.1663 24.519C37.3646 24.5817 35.8449 24.7305 34.6073 24.9655C33.3696 25.1848 32.3669 25.4747 31.5993 25.835C30.8316 26.1797 30.2754 26.5948 29.9308 27.0805C29.6018 27.5662 29.4373 28.0988 29.4373 28.6785C29.4373 29.2425 29.5234 29.7282 29.6958 30.1355C29.8838 30.5272 30.1344 30.8562 30.4478 31.1225C30.7768 31.3732 31.1528 31.5612 31.5758 31.6865C32.0144 31.7962 32.4923 31.851 33.0093 31.851C34.3253 31.851 35.4533 31.6082 36.3933 31.1225C37.3489 30.6212 38.2733 29.9005 39.1663 28.9605V24.519ZM25.7713 14.367C28.4816 11.8447 31.7089 10.5835 35.4533 10.5835C36.8319 10.5835 38.0539 10.8107 39.1193 11.265C40.2003 11.7037 41.1011 12.3303 41.8218 13.145C42.5581 13.9597 43.1143 14.931 43.4903 16.059C43.8819 17.1713 44.0778 18.409 44.0778 19.772V35H41.8218C41.3361 35 40.9679 34.9295 40.7173 34.7885C40.4666 34.6318 40.2551 34.3263 40.0828 33.872L39.5893 31.9215C38.9783 32.4698 38.3751 32.9633 37.7798 33.402C37.1844 33.825 36.5656 34.1853 35.9233 34.483C35.2966 34.7807 34.6151 35 33.8788 35.141C33.1581 35.2977 32.3591 35.376 31.4818 35.376C30.5104 35.376 29.6018 35.2428 28.7558 34.9765C27.9254 34.7102 27.2048 34.3107 26.5938 33.778C25.9828 33.2297 25.4971 32.556 25.1368 31.757C24.7921 30.958 24.6198 30.018 24.6198 28.937C24.6198 28.0127 24.8626 27.1118 25.3483 26.2345C25.8496 25.3572 26.6643 24.5738 27.7923 23.8845C28.9359 23.1795 30.4321 22.5998 32.2808 22.1455C34.1451 21.6912 36.4403 21.4327 39.1663 21.37V19.772C39.1663 18.0487 38.7981 16.764 38.0618 15.918C37.3254 15.072 36.2444 14.649 34.8188 14.649C33.8474 14.649 33.0328 14.7743 32.3748 15.025C31.7168 15.26 31.1449 15.5185 30.6593 15.8005C30.1736 16.0825 29.7428 16.3488 29.3668 16.5995C28.9908 16.8345 28.5913 16.952 28.1683 16.952C27.8236 16.952 27.5259 16.8658 27.2753 16.6935C27.0403 16.5055 26.8444 16.2783 26.6878 16.012L25.7713 14.367ZM74.5081 24.519C72.7064 24.5817 71.1867 24.7305 69.9491 24.9655C68.7114 25.1848 67.7087 25.4747 66.9411 25.835C66.1734 26.1797 65.6172 26.5948 65.2726 27.0805C64.9436 27.5662 64.7791 28.0988 64.7791 28.6785C64.7791 29.2425 64.8652 29.7282 65.0376 30.1355C65.2256 30.5272 65.4762 30.8562 65.7896 31.1225C66.1186 31.3732 66.4946 31.5612 66.9176 31.6865C67.3562 31.7962 67.8341 31.851 68.3511 31.851C69.6671 31.851 70.7951 31.6082 71.7351 31.1225C72.6907 30.6212 73.6151 29.9005 74.5081 28.9605V24.519ZM61.1131 14.367C63.8234 11.8447 67.0507 10.5835 70.7951 10.5835C72.1737 10.5835 73.3957 10.8107 74.4611 11.265C75.5421 11.7037 76.4429 12.3303 77.1636 13.145C77.8999 13.9597 78.4561 14.931 78.8321 16.059C79.2237 17.1713 79.4196 18.409 79.4196 19.772V35H77.1636C76.6779 35 76.3097 34.9295 76.0591 34.7885C75.8084 34.6318 75.5969 34.3263 75.4246 33.872L74.9311 31.9215C74.3201 32.4698 73.7169 32.9633 73.1216 33.402C72.5262 33.825 71.9074 34.1853 71.2651 34.483C70.6384 34.7807 69.9569 35 69.2206 35.141C68.4999 35.2977 67.7009 35.376 66.8236 35.376C65.8522 35.376 64.9436 35.2428 64.0976 34.9765C63.2672 34.7102 62.5466 34.3107 61.9356 33.778C61.3246 33.2297 60.8389 32.556 60.4786 31.757C60.1339 30.958 59.9616 30.018 59.9616 28.937C59.9616 28.0127 60.2044 27.1118 60.6901 26.2345C61.1914 25.3572 62.0061 24.5738 63.1341 23.8845C64.2777 23.1795 65.7739 22.5998 67.6226 22.1455C69.4869 21.6912 71.7821 21.4327 74.5081 21.37V19.772C74.5081 18.0487 74.1399 16.764 73.4036 15.918C72.6672 15.072 71.5862 14.649 70.1606 14.649C69.1892 14.649 68.3746 14.7743 67.7166 15.025C67.0586 15.26 66.4867 15.5185 66.0011 15.8005C65.5154 16.0825 65.0846 16.3488 64.7086 16.5995C64.3326 16.8345 63.9331 16.952 63.5101 16.952C63.1654 16.952 62.8677 16.8658 62.6171 16.6935C62.3821 16.5055 62.1862 16.2783 62.0296 16.012L61.1131 14.367ZM90.3908 28.984C91.0958 29.8927 91.8634 30.535 92.6938 30.911C93.5398 31.2713 94.4719 31.4515 95.4903 31.4515C97.4643 31.4515 98.9996 30.7308 100.096 29.2895C101.209 27.8482 101.765 25.7018 101.765 22.8505C101.765 21.3778 101.639 20.1245 101.389 19.0905C101.138 18.0408 100.778 17.187 100.308 16.529C99.8378 15.871 99.2659 15.3932 98.5923 15.0955C97.9186 14.7978 97.1588 14.649 96.3128 14.649C95.0281 14.649 93.9158 14.931 92.9758 15.495C92.0514 16.0433 91.1898 16.8345 90.3908 17.8685V28.984ZM90.1323 14.508C91.1349 13.333 92.2708 12.3852 93.5398 11.6645C94.8244 10.9438 96.3128 10.5835 98.0048 10.5835C99.3521 10.5835 100.574 10.8577 101.671 11.406C102.767 11.9387 103.707 12.722 104.491 13.756C105.274 14.79 105.877 16.0747 106.3 17.61C106.739 19.1297 106.958 20.8765 106.958 22.8505C106.958 24.6208 106.715 26.2737 106.23 27.809C105.76 29.3287 105.078 30.6525 104.185 31.7805C103.292 32.8928 102.211 33.7702 100.942 34.4125C99.6733 35.0392 98.2398 35.3525 96.6418 35.3525C95.2318 35.3525 94.0333 35.1253 93.0463 34.671C92.0749 34.2167 91.1898 33.59 90.3908 32.791V42.9665H85.3383V11.03H88.3933C89.0826 11.03 89.5213 11.3512 89.7093 11.9935L90.1323 14.508ZM116.92 28.984C117.625 29.8927 118.393 30.535 119.223 30.911C120.069 31.2713 121.001 31.4515 122.02 31.4515C123.994 31.4515 125.529 30.7308 126.626 29.2895C127.738 27.8482 128.294 25.7018 128.294 22.8505C128.294 21.3778 128.169 20.1245 127.918 19.0905C127.667 18.0408 127.307 17.187 126.837 16.529C126.367 15.871 125.795 15.3932 125.122 15.0955C124.448 14.7978 123.688 14.649 122.842 14.649C121.557 14.649 120.445 14.931 119.505 15.495C118.581 16.0433 117.719 16.8345 116.92 17.8685V28.984ZM116.662 14.508C117.664 13.333 118.8 12.3852 120.069 11.6645C121.354 10.9438 122.842 10.5835 124.534 10.5835C125.881 10.5835 127.103 10.8577 128.2 11.406C129.297 11.9387 130.237 12.722 131.02 13.756C131.803 14.79 132.407 16.0747 132.83 17.61C133.268 19.1297 133.488 20.8765 133.488 22.8505C133.488 24.6208 133.245 26.2737 132.759 27.809C132.289 29.3287 131.608 30.6525 130.715 31.7805C129.822 32.8928 128.741 33.7702 127.472 34.4125C126.203 35.0392 124.769 35.3525 123.171 35.3525C121.761 35.3525 120.563 35.1253 119.576 34.671C118.604 34.2167 117.719 33.59 116.92 32.791V42.9665H111.868V11.03H114.923C115.612 11.03 116.051 11.3512 116.239 11.9935L116.662 14.508ZM150.101 35V11.03H153.156C153.845 11.03 154.284 11.3512 154.472 11.9935L154.801 14.085C155.24 13.5837 155.694 13.1293 156.164 12.722C156.634 12.299 157.135 11.9387 157.668 11.641C158.216 11.3277 158.796 11.0848 159.407 10.9125C160.034 10.7402 160.707 10.654 161.428 10.654C162.196 10.654 162.901 10.7637 163.543 10.983C164.185 11.2023 164.749 11.5157 165.235 11.923C165.736 12.3303 166.167 12.8238 166.527 13.4035C166.888 13.9832 167.185 14.6333 167.42 15.354C167.781 14.5237 168.235 13.8108 168.783 13.2155C169.332 12.6202 169.943 12.1345 170.616 11.7585C171.29 11.3825 172.003 11.1083 172.755 10.936C173.523 10.748 174.298 10.654 175.081 10.654C176.366 10.654 177.51 10.8577 178.512 11.265C179.531 11.6723 180.385 12.2677 181.074 13.051C181.779 13.8187 182.312 14.7665 182.672 15.8945C183.032 17.0225 183.212 18.3072 183.212 19.7485V35H178.16V19.7485C178.16 18.0565 177.792 16.7875 177.055 15.9415C176.335 15.0798 175.262 14.649 173.836 14.649C173.194 14.649 172.59 14.7587 172.026 14.978C171.462 15.1973 170.969 15.5185 170.546 15.9415C170.123 16.3645 169.786 16.8972 169.535 17.5395C169.3 18.1662 169.183 18.9025 169.183 19.7485V35H164.13V19.7485C164.13 17.9938 163.778 16.7092 163.073 15.8945C162.368 15.0642 161.334 14.649 159.971 14.649C159.031 14.649 158.161 14.8918 157.362 15.3775C156.563 15.8475 155.827 16.4977 155.153 17.328V35H150.101ZM201.922 24.519C200.12 24.5817 198.601 24.7305 197.363 24.9655C196.125 25.1848 195.123 25.4747 194.355 25.835C193.587 26.1797 193.031 26.5948 192.687 27.0805C192.358 27.5662 192.193 28.0988 192.193 28.6785C192.193 29.2425 192.279 29.7282 192.452 30.1355C192.64 30.5272 192.89 30.8562 193.204 31.1225C193.533 31.3732 193.909 31.5612 194.332 31.6865C194.77 31.7962 195.248 31.851 195.765 31.851C197.081 31.851 198.209 31.6082 199.149 31.1225C200.105 30.6212 201.029 29.9005 201.922 28.9605V24.519ZM188.527 14.367C191.237 11.8447 194.465 10.5835 198.209 10.5835C199.588 10.5835 200.81 10.8107 201.875 11.265C202.956 11.7037 203.857 12.3303 204.578 13.145C205.314 13.9597 205.87 14.931 206.246 16.059C206.638 17.1713 206.834 18.409 206.834 19.772V35H204.578C204.092 35 203.724 34.9295 203.473 34.7885C203.222 34.6318 203.011 34.3263 202.839 33.872L202.345 31.9215C201.734 32.4698 201.131 32.9633 200.536 33.402C199.94 33.825 199.321 34.1853 198.679 34.483C198.052 34.7807 197.371 35 196.635 35.141C195.914 35.2977 195.115 35.376 194.238 35.376C193.266 35.376 192.358 35.2428 191.512 34.9765C190.681 34.7102 189.961 34.3107 189.35 33.778C188.739 33.2297 188.253 32.556 187.893 31.757C187.548 30.958 187.376 30.018 187.376 28.937C187.376 28.0127 187.618 27.1118 188.104 26.2345C188.605 25.3572 189.42 24.5738 190.548 23.8845C191.692 23.1795 193.188 22.5998 195.037 22.1455C196.901 21.6912 199.196 21.4327 201.922 21.37V19.772C201.922 18.0487 201.554 16.764 200.818 15.918C200.081 15.072 199 14.649 197.575 14.649C196.603 14.649 195.789 14.7743 195.131 15.025C194.473 15.26 193.901 15.5185 193.415 15.8005C192.929 16.0825 192.499 16.3488 192.123 16.5995C191.747 16.8345 191.347 16.952 190.924 16.952C190.579 16.952 190.282 16.8658 190.031 16.6935C189.796 16.5055 189.6 16.2783 189.444 16.012L188.527 14.367ZM205.189 0.783998L199.525 6.8705C199.274 7.1525 199.024 7.34833 198.773 7.458C198.538 7.56767 198.225 7.6225 197.833 7.6225H194.825L198.233 1.9355C198.452 1.54383 198.703 1.254 198.985 1.066C199.282 0.877998 199.713 0.783998 200.277 0.783998H205.189ZM227.064 15.3775C226.938 15.5968 226.797 15.7535 226.641 15.8475C226.484 15.9415 226.288 15.9885 226.053 15.9885C225.787 15.9885 225.497 15.9102 225.184 15.7535C224.87 15.5812 224.502 15.3932 224.079 15.1895C223.656 14.9858 223.155 14.8057 222.575 14.649C222.011 14.4767 221.345 14.3905 220.578 14.3905C219.951 14.3905 219.379 14.4688 218.862 14.6255C218.361 14.7665 217.93 14.978 217.57 15.26C217.225 15.5263 216.959 15.8475 216.771 16.2235C216.583 16.5838 216.489 16.9755 216.489 17.3985C216.489 17.9625 216.661 18.4325 217.006 18.8085C217.35 19.1845 217.805 19.5135 218.369 19.7955C218.933 20.0618 219.575 20.3047 220.296 20.524C221.016 20.7433 221.753 20.9783 222.505 21.229C223.257 21.4797 223.993 21.7695 224.714 22.0985C225.434 22.4275 226.077 22.8348 226.641 23.3205C227.205 23.7905 227.659 24.3702 228.004 25.0595C228.348 25.7332 228.521 26.5557 228.521 27.527C228.521 28.655 228.317 29.6968 227.91 30.6525C227.502 31.6082 226.907 32.4385 226.124 33.1435C225.34 33.8485 224.361 34.3968 223.186 34.7885C222.027 35.1802 220.695 35.376 219.191 35.376C218.361 35.376 217.554 35.2977 216.771 35.141C216.003 35 215.267 34.8042 214.562 34.5535C213.872 34.2872 213.222 33.9738 212.611 33.6135C212.016 33.2532 211.483 32.8615 211.013 32.4385L212.188 30.5115C212.329 30.2765 212.502 30.0963 212.705 29.971C212.925 29.83 213.191 29.7595 213.504 29.7595C213.833 29.7595 214.154 29.8692 214.468 30.0885C214.797 30.2922 215.173 30.5193 215.596 30.77C216.034 31.0207 216.559 31.2557 217.17 31.475C217.781 31.6787 218.541 31.7805 219.45 31.7805C220.202 31.7805 220.852 31.6943 221.4 31.522C221.949 31.334 222.403 31.0833 222.763 30.77C223.124 30.4567 223.39 30.1042 223.562 29.7125C223.735 29.3052 223.821 28.8743 223.821 28.42C223.821 27.809 223.648 27.3077 223.304 26.916C222.959 26.5243 222.497 26.1875 221.917 25.9055C221.353 25.6235 220.703 25.3728 219.967 25.1535C219.246 24.9342 218.51 24.6992 217.758 24.4485C217.006 24.1978 216.262 23.908 215.525 23.579C214.805 23.25 214.154 22.8348 213.575 22.3335C213.011 21.8165 212.556 21.1977 212.212 20.477C211.867 19.7407 211.695 18.8477 211.695 17.798C211.695 16.8423 211.883 15.9337 212.259 15.072C212.65 14.2103 213.214 13.4505 213.951 12.7925C214.703 12.1345 215.619 11.6175 216.7 11.2415C217.797 10.8498 219.058 10.654 220.484 10.654C222.097 10.654 223.562 10.9125 224.878 11.4295C226.194 11.9465 227.299 12.6515 228.192 13.5445L227.064 15.3775ZM260.272 16.9285C259.567 16.0198 258.791 15.3853 257.945 15.025C257.099 14.6647 256.183 14.4845 255.196 14.4845C253.222 14.4845 251.678 15.213 250.566 16.67C249.454 18.1113 248.898 20.2498 248.898 23.0855C248.898 24.5582 249.023 25.8193 249.274 26.869C249.524 27.903 249.885 28.749 250.355 29.407C250.825 30.065 251.396 30.5428 252.07 30.8405C252.744 31.1382 253.504 31.287 254.35 31.287C255.634 31.287 256.739 31.0128 257.663 30.4645C258.603 29.9005 259.473 29.1093 260.272 28.091V16.9285ZM265.324 0.22V35H262.269C261.595 35 261.165 34.6788 260.977 34.0365L260.53 31.428C259.527 32.603 258.384 33.5508 257.099 34.2715C255.83 34.9922 254.35 35.3525 252.658 35.3525C251.31 35.3525 250.088 35.0862 248.992 34.5535C247.895 34.0052 246.955 33.214 246.172 32.18C245.388 31.146 244.777 29.8692 244.339 28.3495C243.916 26.8142 243.704 25.0595 243.704 23.0855C243.704 21.2995 243.939 19.6467 244.409 18.127C244.895 16.6073 245.584 15.2913 246.477 14.179C247.37 13.051 248.451 12.1737 249.72 11.547C251.005 10.9047 252.438 10.5835 254.021 10.5835C255.431 10.5835 256.629 10.8107 257.616 11.265C258.603 11.7037 259.488 12.3225 260.272 13.1215V0.22H265.324ZM276.766 11.03V35H271.714V11.03H276.766ZM277.612 3.792C277.612 4.24633 277.518 4.67717 277.33 5.0845C277.158 5.49183 276.915 5.85216 276.602 6.1655C276.288 6.46316 275.92 6.706 275.497 6.894C275.09 7.06633 274.651 7.1525 274.181 7.1525C273.727 7.1525 273.296 7.06633 272.889 6.894C272.497 6.706 272.152 6.46316 271.855 6.1655C271.557 5.85216 271.314 5.49183 271.126 5.0845C270.954 4.67717 270.868 4.24633 270.868 3.792C270.868 3.322 270.954 2.88333 271.126 2.476C271.314 2.06866 271.557 1.71617 271.855 1.4185C272.152 1.10516 272.497 0.862331 272.889 0.689999C273.296 0.501998 273.727 0.407997 274.181 0.407997C274.651 0.407997 275.09 0.501998 275.497 0.689999C275.92 0.862331 276.288 1.10516 276.602 1.4185C276.915 1.71617 277.158 2.06866 277.33 2.476C277.518 2.88333 277.612 3.322 277.612 3.792ZM304.218 11.03L294.583 35H290.024L280.389 11.03H284.548C284.94 11.03 285.261 11.1318 285.512 11.3355C285.778 11.5235 285.95 11.7507 286.029 12.017L291.34 25.976C291.559 26.634 291.755 27.2842 291.927 27.9265C292.099 28.5688 292.248 29.219 292.374 29.877C292.499 29.219 292.648 28.5767 292.82 27.95C293.008 27.3077 293.212 26.6497 293.431 25.976L298.836 12.017C298.93 11.735 299.102 11.5 299.353 11.312C299.604 11.124 299.909 11.03 300.27 11.03H304.218ZM322.703 20.3125C322.703 19.4665 322.578 18.6832 322.327 17.9625C322.092 17.2262 321.74 16.5917 321.27 16.059C320.8 15.5107 320.212 15.0877 319.507 14.79C318.818 14.4767 318.019 14.32 317.11 14.32C315.277 14.32 313.836 14.8448 312.786 15.8945C311.737 16.9442 311.071 18.4168 310.789 20.3125H322.703ZM310.648 23.4145C310.71 24.7775 310.922 25.9603 311.282 26.963C311.643 27.95 312.12 28.7725 312.716 29.4305C313.327 30.0885 314.047 30.582 314.878 30.911C315.724 31.2243 316.664 31.381 317.698 31.381C318.685 31.381 319.539 31.2713 320.259 31.052C320.98 30.817 321.607 30.5663 322.139 30.3C322.672 30.018 323.126 29.7673 323.502 29.548C323.878 29.313 324.223 29.1955 324.536 29.1955C324.944 29.1955 325.257 29.3522 325.476 29.6655L326.91 31.522C326.314 32.227 325.641 32.8223 324.889 33.308C324.137 33.7937 323.338 34.1932 322.492 34.5065C321.646 34.8042 320.776 35.0157 319.883 35.141C318.99 35.282 318.121 35.3525 317.275 35.3525C315.614 35.3525 314.071 35.0783 312.645 34.53C311.235 33.966 310.005 33.1435 308.956 32.0625C307.922 30.9815 307.107 29.642 306.512 28.044C305.932 26.446 305.642 24.6052 305.642 22.5215C305.642 20.8608 305.901 19.3098 306.418 17.8685C306.95 16.4272 307.702 15.1738 308.674 14.1085C309.661 13.0432 310.851 12.205 312.246 11.594C313.656 10.9673 315.246 10.654 317.016 10.654C318.489 10.654 319.852 10.8968 321.105 11.3825C322.359 11.8525 323.44 12.5497 324.348 13.474C325.257 14.3983 325.962 15.5342 326.463 16.8815C326.98 18.2132 327.239 19.7328 327.239 21.4405C327.239 22.2238 327.153 22.7487 326.98 23.015C326.808 23.2813 326.495 23.4145 326.04 23.4145H310.648ZM336.721 15.4715C337.473 13.9518 338.382 12.7612 339.447 11.8995C340.512 11.0222 341.789 10.5835 343.278 10.5835C343.795 10.5835 344.28 10.6462 344.735 10.7715C345.189 10.8812 345.596 11.0535 345.957 11.2885L345.604 15.0955C345.541 15.3618 345.44 15.5498 345.299 15.6595C345.173 15.7535 345.001 15.8005 344.782 15.8005C344.547 15.8005 344.21 15.7613 343.771 15.683C343.332 15.589 342.87 15.542 342.385 15.542C341.68 15.542 341.053 15.6438 340.505 15.8475C339.972 16.0512 339.486 16.3488 339.048 16.7405C338.625 17.1322 338.249 17.61 337.92 18.174C337.591 18.738 337.285 19.3803 337.003 20.101V35H331.951V11.03H334.888C335.421 11.03 335.789 11.1318 335.993 11.3355C336.196 11.5235 336.337 11.8603 336.416 12.346L336.721 15.4715ZM372.565 35H367.513V15.0015H355.833V28.608C355.833 29.4697 356.045 30.1277 356.468 30.582C356.891 31.0363 357.455 31.2635 358.16 31.2635C358.551 31.2635 358.888 31.2165 359.17 31.1225C359.452 31.0128 359.695 30.9032 359.899 30.7935C360.102 30.6682 360.275 30.5585 360.416 30.4645C360.572 30.3548 360.721 30.3 360.862 30.3C361.144 30.3 361.371 30.4567 361.544 30.77L363.048 33.2375C362.264 33.9268 361.34 34.4595 360.275 34.8355C359.209 35.1958 358.113 35.376 356.985 35.376C354.995 35.376 353.46 34.8198 352.379 33.7075C351.313 32.5795 350.781 30.9972 350.781 28.9605V15.0015H348.149C347.867 15.0015 347.624 14.9153 347.42 14.743C347.217 14.555 347.115 14.2808 347.115 13.9205V11.876L350.992 11.312L352.097 4.3795C352.175 4.11317 352.308 3.90167 352.496 3.745C352.684 3.57267 352.935 3.4865 353.248 3.4865H355.833V11.359H372.565V35ZM373.599 3.6745C373.599 4.12883 373.505 4.55967 373.317 4.967C373.145 5.35867 372.902 5.71117 372.589 6.0245C372.275 6.32216 371.907 6.565 371.484 6.753C371.077 6.92533 370.646 7.0115 370.192 7.0115C369.737 7.0115 369.307 6.92533 368.899 6.753C368.508 6.565 368.155 6.32216 367.842 6.0245C367.544 5.71117 367.301 5.35867 367.113 4.967C366.941 4.55967 366.855 4.12883 366.855 3.6745C366.855 3.2045 366.941 2.76583 367.113 2.3585C367.301 1.9355 367.544 1.57517 367.842 1.2775C368.155 0.964166 368.508 0.721332 368.899 0.548998C369.307 0.360999 369.737 0.266999 370.192 0.266999C370.646 0.266999 371.077 0.360999 371.484 0.548998C371.907 0.721332 372.275 0.964166 372.589 1.2775C372.902 1.57517 373.145 1.9355 373.317 2.3585C373.505 2.76583 373.599 3.2045 373.599 3.6745ZM394.249 16.9285C393.544 16.0198 392.769 15.3853 391.923 15.025C391.077 14.6647 390.16 14.4845 389.173 14.4845C387.199 14.4845 385.656 15.213 384.544 16.67C383.431 18.1113 382.875 20.2498 382.875 23.0855C382.875 24.5582 383 25.8193 383.251 26.869C383.502 27.903 383.862 28.749 384.332 29.407C384.802 30.065 385.374 30.5428 386.048 30.8405C386.721 31.1382 387.481 31.287 388.327 31.287C389.612 31.287 390.716 31.0128 391.641 30.4645C392.581 29.9005 393.45 29.1093 394.249 28.091V16.9285ZM399.302 0.22V35H396.247C395.573 35 395.142 34.6788 394.954 34.0365L394.508 31.428C393.505 32.603 392.361 33.5508 391.077 34.2715C389.808 34.9922 388.327 35.3525 386.635 35.3525C385.288 35.3525 384.066 35.0862 382.969 34.5535C381.872 34.0052 380.932 33.214 380.149 32.18C379.366 31.146 378.755 29.8692 378.316 28.3495C377.893 26.8142 377.682 25.0595 377.682 23.0855C377.682 21.2995 377.917 19.6467 378.387 18.127C378.872 16.6073 379.562 15.2913 380.455 14.179C381.348 13.051 382.429 12.1737 383.698 11.547C384.982 10.9047 386.416 10.5835 387.998 10.5835C389.408 10.5835 390.607 10.8107 391.594 11.265C392.581 11.7037 393.466 12.3225 394.249 13.1215V0.22H399.302ZM418.287 24.519C416.486 24.5817 414.966 24.7305 413.728 24.9655C412.491 25.1848 411.488 25.4747 410.72 25.835C409.953 26.1797 409.397 26.5948 409.052 27.0805C408.723 27.5662 408.558 28.0988 408.558 28.6785C408.558 29.2425 408.645 29.7282 408.817 30.1355C409.005 30.5272 409.256 30.8562 409.569 31.1225C409.898 31.3732 410.274 31.5612 410.697 31.6865C411.136 31.7962 411.613 31.851 412.13 31.851C413.446 31.851 414.574 31.6082 415.514 31.1225C416.47 30.6212 417.394 29.9005 418.287 28.9605V24.519ZM404.892 14.367C407.603 11.8447 410.83 10.5835 414.574 10.5835C415.953 10.5835 417.175 10.8107 418.24 11.265C419.321 11.7037 420.222 12.3303 420.943 13.145C421.679 13.9597 422.235 14.931 422.611 16.059C423.003 17.1713 423.199 18.409 423.199 19.772V35H420.943C420.457 35 420.089 34.9295 419.838 34.7885C419.588 34.6318 419.376 34.3263 419.204 33.872L418.71 31.9215C418.099 32.4698 417.496 32.9633 416.901 33.402C416.306 33.825 415.687 34.1853 415.044 34.483C414.418 34.7807 413.736 35 413 35.141C412.279 35.2977 411.48 35.376 410.603 35.376C409.632 35.376 408.723 35.2428 407.877 34.9765C407.047 34.7102 406.326 34.3107 405.715 33.778C405.104 33.2297 404.618 32.556 404.258 31.757C403.913 30.958 403.741 30.018 403.741 28.937C403.741 28.0127 403.984 27.1118 404.469 26.2345C404.971 25.3572 405.785 24.5738 406.913 23.8845C408.057 23.1795 409.553 22.5998 411.402 22.1455C413.266 21.6912 415.561 21.4327 418.287 21.37V19.772C418.287 18.0487 417.919 16.764 417.183 15.918C416.447 15.072 415.366 14.649 413.94 14.649C412.969 14.649 412.154 14.7743 411.496 15.025C410.838 15.26 410.266 15.5185 409.78 15.8005C409.295 16.0825 408.864 16.3488 408.488 16.5995C408.112 16.8345 407.712 16.952 407.289 16.952C406.945 16.952 406.647 16.8658 406.396 16.6935C406.161 16.5055 405.966 16.2783 405.809 16.012L404.892 14.367ZM460.896 11.03L447.689 41.815C447.516 42.1753 447.305 42.4573 447.054 42.661C446.819 42.8647 446.451 42.9665 445.95 42.9665H442.213L446.631 33.3785L436.855 11.03H441.25C441.673 11.03 441.994 11.1318 442.213 11.3355C442.448 11.5235 442.621 11.7507 442.73 12.017L448.441 25.6235C448.582 26.0152 448.707 26.4068 448.817 26.7985C448.942 27.1745 449.06 27.5662 449.169 27.9735C449.295 27.5662 449.42 27.1667 449.545 26.775C449.671 26.3833 449.812 25.9917 449.968 25.6L455.444 12.017C455.553 11.735 455.734 11.5 455.984 11.312C456.251 11.124 456.54 11.03 456.854 11.03H460.896ZM17.8 64.3125C17.8 63.4665 17.6747 62.6832 17.424 61.9625C17.189 61.2262 16.8365 60.5917 16.3665 60.059C15.8965 59.5107 15.309 59.0877 14.604 58.79C13.9147 58.4767 13.1157 58.32 12.207 58.32C10.374 58.32 8.93267 58.8448 7.883 59.8945C6.83333 60.9442 6.1675 62.4168 5.8855 64.3125H17.8ZM5.7445 67.4145C5.80717 68.7775 6.01867 69.9603 6.379 70.963C6.73933 71.95 7.21717 72.7725 7.8125 73.4305C8.4235 74.0885 9.14417 74.582 9.9745 74.911C10.8205 75.2243 11.7605 75.381 12.7945 75.381C13.7815 75.381 14.6353 75.2713 15.356 75.052C16.0767 74.817 16.7033 74.5663 17.236 74.3C17.7687 74.018 18.223 73.7673 18.599 73.548C18.975 73.313 19.3197 73.1955 19.633 73.1955C20.0403 73.1955 20.3537 73.3522 20.573 73.6655L22.0065 75.522C21.4112 76.227 20.7375 76.8223 19.9855 77.308C19.2335 77.7937 18.4345 78.1932 17.5885 78.5065C16.7425 78.8042 15.873 79.0157 14.98 79.141C14.087 79.282 13.2175 79.3525 12.3715 79.3525C10.7108 79.3525 9.16767 79.0783 7.742 78.53C6.332 77.966 5.10217 77.1435 4.0525 76.0625C3.0185 74.9815 2.20383 73.642 1.6085 72.044C1.02883 70.446 0.739 68.6052 0.739 66.5215C0.739 64.8608 0.9975 63.3098 1.5145 61.8685C2.04717 60.4272 2.79917 59.1738 3.7705 58.1085C4.7575 57.0432 5.94817 56.205 7.3425 55.594C8.7525 54.9673 10.3427 54.654 12.113 54.654C13.5857 54.654 14.9487 54.8968 16.202 55.3825C17.4553 55.8525 18.5363 56.5497 19.445 57.474C20.3537 58.3983 21.0587 59.5342 21.56 60.8815C22.077 62.2132 22.3355 63.7328 22.3355 65.4405C22.3355 66.2238 22.2493 66.7487 22.077 67.015C21.9047 67.2813 21.5913 67.4145 21.137 67.4145H5.7445ZM42.3458 60.9285C41.6408 60.0198 40.8653 59.3853 40.0193 59.025C39.1733 58.6647 38.2568 58.4845 37.2698 58.4845C35.2958 58.4845 33.7526 59.213 32.6403 60.67C31.5279 62.1113 30.9718 64.2498 30.9718 67.0855C30.9718 68.5582 31.0971 69.8193 31.3478 70.869C31.5984 71.903 31.9588 72.749 32.4288 73.407C32.8988 74.065 33.4706 74.5428 34.1443 74.8405C34.8179 75.1382 35.5778 75.287 36.4238 75.287C37.7084 75.287 38.8129 75.0128 39.7373 74.4645C40.6773 73.9005 41.5468 73.1093 42.3458 72.091V60.9285ZM47.3983 44.22V79H44.3433C43.6696 79 43.2388 78.6788 43.0508 78.0365L42.6043 75.428C41.6016 76.603 40.4579 77.5508 39.1733 78.2715C37.9043 78.9922 36.4238 79.3525 34.7318 79.3525C33.3844 79.3525 32.1624 79.0862 31.0658 78.5535C29.9691 78.0052 29.0291 77.214 28.2458 76.18C27.4624 75.146 26.8514 73.8692 26.4128 72.3495C25.9898 70.8142 25.7783 69.0595 25.7783 67.0855C25.7783 65.2995 26.0133 63.6467 26.4833 62.127C26.9689 60.6073 27.6583 59.2913 28.5513 58.179C29.4443 57.051 30.5253 56.1737 31.7943 55.547C33.0789 54.9047 34.5124 54.5835 36.0948 54.5835C37.5048 54.5835 38.7033 54.8107 39.6903 55.265C40.6773 55.7037 41.5624 56.3225 42.3458 57.1215V44.22H47.3983ZM73.7865 55.03V79H70.7315C70.0579 79 69.627 78.6788 69.439 78.0365L69.063 75.804C68.5617 76.3367 68.029 76.8223 67.465 77.261C66.9167 77.6997 66.3292 78.0757 65.7025 78.389C65.0759 78.7023 64.4022 78.9452 63.6815 79.1175C62.9765 79.2898 62.2167 79.376 61.402 79.376C60.086 79.376 58.9267 79.1567 57.924 78.718C56.9214 78.2793 56.0754 77.6605 55.386 76.8615C54.7124 76.0625 54.2032 75.1068 53.8585 73.9945C53.5139 72.8665 53.3415 71.6288 53.3415 70.2815V55.03H58.394V70.2815C58.394 71.8952 58.7622 73.1485 59.4985 74.0415C60.2505 74.9345 61.3864 75.381 62.906 75.381C64.0184 75.381 65.0524 75.1303 66.008 74.629C66.9794 74.112 67.888 73.407 68.734 72.514V55.03H73.7865ZM96.8658 59.73C96.7091 59.9337 96.5603 60.0903 96.4193 60.2C96.2783 60.3097 96.0746 60.3645 95.8083 60.3645C95.5419 60.3645 95.2599 60.2705 94.9623 60.0825C94.6803 59.8945 94.3356 59.6908 93.9283 59.4715C93.5366 59.2365 93.0588 59.025 92.4948 58.837C91.9308 58.649 91.2258 58.555 90.3798 58.555C89.2831 58.555 88.3196 58.7508 87.4893 59.1425C86.6746 59.5342 85.9853 60.0982 85.4213 60.8345C84.8729 61.5552 84.4578 62.4403 84.1758 63.49C83.9094 64.524 83.7763 65.6912 83.7763 66.9915C83.7763 68.3388 83.9251 69.5373 84.2228 70.587C84.5204 71.6367 84.9434 72.5218 85.4918 73.2425C86.0558 73.9632 86.7294 74.5115 87.5128 74.8875C88.3118 75.2635 89.2048 75.4515 90.1918 75.4515C91.1631 75.4515 91.9543 75.334 92.5653 75.099C93.1763 74.864 93.6854 74.6055 94.0928 74.3235C94.5001 74.0415 94.8448 73.783 95.1268 73.548C95.4244 73.313 95.7378 73.1955 96.0668 73.1955C96.4741 73.1955 96.7874 73.3522 97.0068 73.6655L98.4403 75.522C97.8606 76.227 97.2183 76.8223 96.5133 77.308C95.8083 77.7937 95.0641 78.1932 94.2808 78.5065C93.4974 78.8042 92.6828 79.0157 91.8368 79.141C90.9908 79.282 90.1369 79.3525 89.2753 79.3525C87.7869 79.3525 86.3926 79.0783 85.0923 78.53C83.8076 77.966 82.6796 77.1592 81.7083 76.1095C80.7526 75.0442 79.9928 73.7517 79.4288 72.232C78.8804 70.6967 78.6063 68.9498 78.6063 66.9915C78.6063 65.2212 78.8569 63.584 79.3583 62.08C79.8596 60.5603 80.5881 59.2522 81.5438 58.1555C82.5151 57.0588 83.7136 56.205 85.1393 55.594C86.5649 54.9673 88.2099 54.654 90.0743 54.654C91.8133 54.654 93.3408 54.936 94.6568 55.5C95.9884 56.064 97.1713 56.863 98.2053 57.897L96.8658 59.73ZM115.312 68.519C113.51 68.5817 111.99 68.7305 110.753 68.9655C109.515 69.1848 108.512 69.4747 107.745 69.835C106.977 70.1797 106.421 70.5948 106.076 71.0805C105.747 71.5662 105.583 72.0988 105.583 72.6785C105.583 73.2425 105.669 73.7282 105.841 74.1355C106.029 74.5272 106.28 74.8562 106.593 75.1225C106.922 75.3732 107.298 75.5612 107.721 75.6865C108.16 75.7962 108.638 75.851 109.155 75.851C110.471 75.851 111.599 75.6082 112.539 75.1225C113.494 74.6212 114.419 73.9005 115.312 72.9605V68.519ZM101.917 58.367C104.627 55.8447 107.854 54.5835 111.599 54.5835C112.977 54.5835 114.199 54.8107 115.265 55.265C116.346 55.7037 117.247 56.3303 117.967 57.145C118.704 57.9597 119.26 58.931 119.636 60.059C120.027 61.1713 120.223 62.409 120.223 63.772V79H117.967C117.482 79 117.113 78.9295 116.863 78.7885C116.612 78.6318 116.401 78.3263 116.228 77.872L115.735 75.9215C115.124 76.4698 114.521 76.9633 113.925 77.402C113.33 77.825 112.711 78.1853 112.069 78.483C111.442 78.7807 110.761 79 110.024 79.141C109.304 79.2977 108.505 79.376 107.627 79.376C106.656 79.376 105.747 79.2428 104.901 78.9765C104.071 78.7102 103.35 78.3107 102.739 77.778C102.128 77.2297 101.643 76.556 101.282 75.757C100.938 74.958 100.765 74.018 100.765 72.937C100.765 72.0127 101.008 71.1118 101.494 70.2345C101.995 69.3572 102.81 68.5738 103.938 67.8845C105.081 67.1795 106.578 66.5998 108.426 66.1455C110.291 65.6912 112.586 65.4327 115.312 65.37V63.772C115.312 62.0487 114.944 60.764 114.207 59.918C113.471 59.072 112.39 58.649 110.964 58.649C109.993 58.649 109.178 58.7743 108.52 59.025C107.862 59.26 107.29 59.5185 106.805 59.8005C106.319 60.0825 105.888 60.3488 105.512 60.5995C105.136 60.8345 104.737 60.952 104.314 60.952C103.969 60.952 103.671 60.8658 103.421 60.6935C103.186 60.5055 102.99 60.2783 102.833 60.012L101.917 58.367ZM149.086 79H144.033V59.0015H132.354V72.608C132.354 73.4697 132.565 74.1277 132.988 74.582C133.411 75.0363 133.975 75.2635 134.68 75.2635C135.072 75.2635 135.409 75.2165 135.691 75.1225C135.973 75.0128 136.216 74.9032 136.419 74.7935C136.623 74.6682 136.795 74.5585 136.936 74.4645C137.093 74.3548 137.242 74.3 137.383 74.3C137.665 74.3 137.892 74.4567 138.064 74.77L139.568 77.2375C138.785 77.9268 137.861 78.4595 136.795 78.8355C135.73 79.1958 134.633 79.376 133.505 79.376C131.516 79.376 129.98 78.8198 128.899 77.7075C127.834 76.5795 127.301 74.9972 127.301 72.9605V59.0015H124.669C124.387 59.0015 124.144 58.9153 123.941 58.743C123.737 58.555 123.635 58.2808 123.635 57.9205V55.876L127.513 55.312L128.617 48.3795C128.696 48.1132 128.829 47.9017 129.017 47.745C129.205 47.5727 129.455 47.4865 129.769 47.4865H132.354V55.359H149.086V79ZM150.12 47.6745C150.12 48.1288 150.026 48.5597 149.838 48.967C149.665 49.3587 149.423 49.7112 149.109 50.0245C148.796 50.3222 148.428 50.565 148.005 50.753C147.597 50.9253 147.167 51.0115 146.712 51.0115C146.258 51.0115 145.827 50.9253 145.42 50.753C145.028 50.565 144.676 50.3222 144.362 50.0245C144.065 49.7112 143.822 49.3587 143.634 48.967C143.461 48.5597 143.375 48.1288 143.375 47.6745C143.375 47.2045 143.461 46.7658 143.634 46.3585C143.822 45.9355 144.065 45.5752 144.362 45.2775C144.676 44.9642 145.028 44.7213 145.42 44.549C145.827 44.361 146.258 44.267 146.712 44.267C147.167 44.267 147.597 44.361 148.005 44.549C148.428 44.7213 148.796 44.9642 149.109 45.2775C149.423 45.5752 149.665 45.9355 149.838 46.3585C150.026 46.7658 150.12 47.2045 150.12 47.6745ZM176.574 55.03L166.939 79H162.38L152.745 55.03H156.905C157.296 55.03 157.617 55.1318 157.868 55.3355C158.134 55.5235 158.307 55.7507 158.385 56.017L163.696 69.976C163.915 70.634 164.111 71.2842 164.284 71.9265C164.456 72.5688 164.605 73.219 164.73 73.877C164.855 73.219 165.004 72.5767 165.177 71.95C165.365 71.3077 165.568 70.6497 165.788 69.976L171.193 56.017C171.287 55.735 171.459 55.5 171.71 55.312C171.96 55.124 172.266 55.03 172.626 55.03H176.574ZM192.283 68.519C190.482 68.5817 188.962 68.7305 187.724 68.9655C186.487 69.1848 185.484 69.4747 184.716 69.835C183.949 70.1797 183.393 70.5948 183.048 71.0805C182.719 71.5662 182.554 72.0988 182.554 72.6785C182.554 73.2425 182.641 73.7282 182.813 74.1355C183.001 74.5272 183.252 74.8562 183.565 75.1225C183.894 75.3732 184.27 75.5612 184.693 75.6865C185.132 75.7962 185.609 75.851 186.126 75.851C187.442 75.851 188.57 75.6082 189.51 75.1225C190.466 74.6212 191.39 73.9005 192.283 72.9605V68.519ZM178.888 58.367C181.599 55.8447 184.826 54.5835 188.57 54.5835C189.949 54.5835 191.171 54.8107 192.236 55.265C193.317 55.7037 194.218 56.3303 194.939 57.145C195.675 57.9597 196.231 58.931 196.607 60.059C196.999 61.1713 197.195 62.409 197.195 63.772V79H194.939C194.453 79 194.085 78.9295 193.834 78.7885C193.584 78.6318 193.372 78.3263 193.2 77.872L192.706 75.9215C192.095 76.4698 191.492 76.9633 190.897 77.402C190.302 77.825 189.683 78.1853 189.04 78.483C188.414 78.7807 187.732 79 186.996 79.141C186.275 79.2977 185.476 79.376 184.599 79.376C183.628 79.376 182.719 79.2428 181.873 78.9765C181.043 78.7102 180.322 78.3107 179.711 77.778C179.1 77.2297 178.614 76.556 178.254 75.757C177.909 74.958 177.737 74.018 177.737 72.937C177.737 72.0127 177.98 71.1118 178.465 70.2345C178.967 69.3572 179.781 68.5738 180.909 67.8845C182.053 67.1795 183.549 66.5998 185.398 66.1455C187.262 65.6912 189.557 65.4327 192.283 65.37V63.772C192.283 62.0487 191.915 60.764 191.179 59.918C190.443 59.072 189.362 58.649 187.936 58.649C186.965 58.649 186.15 58.7743 185.492 59.025C184.834 59.26 184.262 59.5185 183.776 59.8005C183.291 60.0825 182.86 60.3488 182.484 60.5995C182.108 60.8345 181.708 60.952 181.285 60.952C180.941 60.952 180.643 60.8658 180.392 60.6935C180.157 60.5055 179.962 60.2783 179.805 60.012L178.888 58.367ZM234.892 55.03L221.685 85.815C221.513 86.1753 221.301 86.4573 221.05 86.661C220.815 86.8647 220.447 86.9665 219.946 86.9665H216.209L220.627 77.3785L210.851 55.03H215.246C215.669 55.03 215.99 55.1318 216.209 55.3355C216.444 55.5235 216.617 55.7507 216.726 56.017L222.437 69.6235C222.578 70.0152 222.703 70.4068 222.813 70.7985C222.938 71.1745 223.056 71.5662 223.165 71.9735C223.291 71.5662 223.416 71.1667 223.541 70.775C223.667 70.3833 223.808 69.9917 223.964 69.6L229.44 56.017C229.55 55.735 229.73 55.5 229.98 55.312C230.247 55.124 230.537 55.03 230.85 55.03H234.892ZM253.789 72.984C254.494 73.8927 255.262 74.535 256.092 74.911C256.938 75.2713 257.87 75.4515 258.889 75.4515C260.863 75.4515 262.398 74.7308 263.495 73.2895C264.607 71.8482 265.163 69.7018 265.163 66.8505C265.163 65.3778 265.038 64.1245 264.787 63.0905C264.537 62.0408 264.176 61.187 263.706 60.529C263.236 59.871 262.664 59.3932 261.991 59.0955C261.317 58.7978 260.557 58.649 259.711 58.649C258.427 58.649 257.314 58.931 256.374 59.495C255.45 60.0433 254.588 60.8345 253.789 61.8685V72.984ZM253.531 58.508C254.533 57.333 255.669 56.3852 256.938 55.6645C258.223 54.9438 259.711 54.5835 261.403 54.5835C262.751 54.5835 263.973 54.8577 265.069 55.406C266.166 55.9387 267.106 56.722 267.889 57.756C268.673 58.79 269.276 60.0747 269.699 61.61C270.137 63.1297 270.357 64.8765 270.357 66.8505C270.357 68.6208 270.114 70.2737 269.628 71.809C269.158 73.3287 268.477 74.6525 267.584 75.7805C266.691 76.8928 265.61 77.7702 264.341 78.4125C263.072 79.0392 261.638 79.3525 260.04 79.3525C258.63 79.3525 257.432 79.1253 256.445 78.671C255.473 78.2167 254.588 77.59 253.789 76.791V86.9665H248.737V55.03H251.792C252.481 55.03 252.92 55.3512 253.108 55.9935L253.531 58.508ZM288.074 68.519C286.272 68.5817 284.752 68.7305 283.515 68.9655C282.277 69.1848 281.274 69.4747 280.507 69.835C279.739 70.1797 279.183 70.5948 278.838 71.0805C278.509 71.5662 278.345 72.0988 278.345 72.6785C278.345 73.2425 278.431 73.7282 278.603 74.1355C278.791 74.5272 279.042 74.8562 279.355 75.1225C279.684 75.3732 280.06 75.5612 280.483 75.6865C280.922 75.7962 281.4 75.851 281.917 75.851C283.233 75.851 284.361 75.6082 285.301 75.1225C286.256 74.6212 287.181 73.9005 288.074 72.9605V68.519ZM274.679 58.367C277.389 55.8447 280.616 54.5835 284.361 54.5835C285.739 54.5835 286.961 54.8107 288.027 55.265C289.108 55.7037 290.008 56.3303 290.729 57.145C291.465 57.9597 292.022 58.931 292.398 60.059C292.789 61.1713 292.985 62.409 292.985 63.772V79H290.729C290.243 79 289.875 78.9295 289.625 78.7885C289.374 78.6318 289.162 78.3263 288.99 77.872L288.497 75.9215C287.886 76.4698 287.282 76.9633 286.687 77.402C286.092 77.825 285.473 78.1853 284.831 78.483C284.204 78.7807 283.522 79 282.786 79.141C282.065 79.2977 281.266 79.376 280.389 79.376C279.418 79.376 278.509 79.2428 277.663 78.9765C276.833 78.7102 276.112 78.3107 275.501 77.778C274.89 77.2297 274.404 76.556 274.044 75.757C273.699 74.958 273.527 74.018 273.527 72.937C273.527 72.0127 273.77 71.1118 274.256 70.2345C274.757 69.3572 275.572 68.5738 276.7 67.8845C277.843 67.1795 279.339 66.5998 281.188 66.1455C283.052 65.6912 285.348 65.4327 288.074 65.37V63.772C288.074 62.0487 287.705 60.764 286.969 59.918C286.233 59.072 285.152 58.649 283.726 58.649C282.755 58.649 281.94 58.7743 281.282 59.025C280.624 59.26 280.052 59.5185 279.567 59.8005C279.081 60.0825 278.65 60.3488 278.274 60.5995C277.898 60.8345 277.499 60.952 277.076 60.952C276.731 60.952 276.433 60.8658 276.183 60.6935C275.948 60.5055 275.752 60.2783 275.595 60.012L274.679 58.367ZM303.674 59.4715C304.426 57.9518 305.335 56.7612 306.4 55.8995C307.466 55.0222 308.742 54.5835 310.231 54.5835C310.748 54.5835 311.233 54.6462 311.688 54.7715C312.142 54.8812 312.549 55.0535 312.91 55.2885L312.557 59.0955C312.495 59.3618 312.393 59.5498 312.252 59.6595C312.126 59.7535 311.954 59.8005 311.735 59.8005C311.5 59.8005 311.163 59.7613 310.724 59.683C310.286 59.589 309.823 59.542 309.338 59.542C308.633 59.542 308.006 59.6438 307.458 59.8475C306.925 60.0512 306.439 60.3488 306.001 60.7405C305.578 61.1322 305.202 61.61 304.873 62.174C304.544 62.738 304.238 63.3803 303.956 64.101V79H298.904V55.03H301.841C302.374 55.03 302.742 55.1318 302.946 55.3355C303.149 55.5235 303.29 55.8603 303.369 56.346L303.674 59.4715ZM328.694 68.519C326.892 68.5817 325.372 68.7305 324.135 68.9655C322.897 69.1848 321.894 69.4747 321.127 69.835C320.359 70.1797 319.803 70.5948 319.458 71.0805C319.129 71.5662 318.965 72.0988 318.965 72.6785C318.965 73.2425 319.051 73.7282 319.223 74.1355C319.411 74.5272 319.662 74.8562 319.975 75.1225C320.304 75.3732 320.68 75.5612 321.103 75.6865C321.542 75.7962 322.02 75.851 322.537 75.851C323.853 75.851 324.981 75.6082 325.921 75.1225C326.876 74.6212 327.801 73.9005 328.694 72.9605V68.519ZM315.299 58.367C318.009 55.8447 321.236 54.5835 324.981 54.5835C326.359 54.5835 327.581 54.8107 328.647 55.265C329.728 55.7037 330.628 56.3303 331.349 57.145C332.085 57.9597 332.642 58.931 333.018 60.059C333.409 61.1713 333.605 62.409 333.605 63.772V79H331.349C330.863 79 330.495 78.9295 330.245 78.7885C329.994 78.6318 329.782 78.3263 329.61 77.872L329.117 75.9215C328.506 76.4698 327.902 76.9633 327.307 77.402C326.712 77.825 326.093 78.1853 325.451 78.483C324.824 78.7807 324.142 79 323.406 79.141C322.685 79.2977 321.886 79.376 321.009 79.376C320.038 79.376 319.129 79.2428 318.283 78.9765C317.453 78.7102 316.732 78.3107 316.121 77.778C315.51 77.2297 315.024 76.556 314.664 75.757C314.319 74.958 314.147 74.018 314.147 72.937C314.147 72.0127 314.39 71.1118 314.876 70.2345C315.377 69.3572 316.192 68.5738 317.32 67.8845C318.463 67.1795 319.959 66.5998 321.808 66.1455C323.672 65.6912 325.968 65.4327 328.694 65.37V63.772C328.694 62.0487 328.325 60.764 327.589 59.918C326.853 59.072 325.772 58.649 324.346 58.649C323.375 58.649 322.56 58.7743 321.902 59.025C321.244 59.26 320.672 59.5185 320.187 59.8005C319.701 60.0825 319.27 60.3488 318.894 60.5995C318.518 60.8345 318.119 60.952 317.696 60.952C317.351 60.952 317.053 60.8658 316.803 60.6935C316.568 60.5055 316.372 60.2783 316.215 60.012L315.299 58.367ZM355.951 58.2025C356.468 57.6698 357.001 57.192 357.549 56.769C358.113 56.3303 358.709 55.9543 359.335 55.641C359.962 55.3277 360.628 55.0848 361.333 54.9125C362.038 54.7402 362.806 54.654 363.636 54.654C364.952 54.654 366.103 54.8733 367.09 55.312C368.093 55.7507 368.931 56.3695 369.605 57.1685C370.294 57.9675 370.811 58.931 371.156 60.059C371.501 61.1713 371.673 62.4012 371.673 63.7485V79H366.644V63.7485C366.644 62.1348 366.268 60.8815 365.516 59.9885C364.78 59.0955 363.652 58.649 362.132 58.649C361.004 58.649 359.954 58.9075 358.983 59.4245C358.027 59.9415 357.126 60.6465 356.28 61.5395V79H351.228V55.03H354.283C354.972 55.03 355.411 55.3512 355.599 55.9935L355.951 58.2025ZM382.838 55.03V79H377.785V55.03H382.838ZM383.684 47.792C383.684 48.2463 383.59 48.6772 383.402 49.0845C383.229 49.4918 382.986 49.8522 382.673 50.1655C382.36 50.4632 381.992 50.706 381.569 50.894C381.161 51.0663 380.723 51.1525 380.253 51.1525C379.798 51.1525 379.367 51.0663 378.96 50.894C378.568 50.706 378.224 50.4632 377.926 50.1655C377.628 49.8522 377.386 49.4918 377.198 49.0845C377.025 48.6772 376.939 48.2463 376.939 47.792C376.939 47.322 377.025 46.8833 377.198 46.476C377.386 46.0687 377.628 45.7162 377.926 45.4185C378.224 45.1052 378.568 44.8623 378.96 44.69C379.367 44.502 379.798 44.408 380.253 44.408C380.723 44.408 381.161 44.502 381.569 44.69C381.992 44.8623 382.36 45.1052 382.673 45.4185C382.986 45.7162 383.229 46.0687 383.402 46.476C383.59 46.8833 383.684 47.322 383.684 47.792ZM393.909 58.2025C394.426 57.6698 394.959 57.192 395.507 56.769C396.071 56.3303 396.667 55.9543 397.293 55.641C397.92 55.3277 398.586 55.0848 399.291 54.9125C399.996 54.7402 400.764 54.654 401.594 54.654C402.91 54.654 404.061 54.8733 405.048 55.312C406.051 55.7507 406.889 56.3695 407.563 57.1685C408.252 57.9675 408.769 58.931 409.114 60.059C409.459 61.1713 409.631 62.4012 409.631 63.7485V79H404.602V63.7485C404.602 62.1348 404.226 60.8815 403.474 59.9885C402.738 59.0955 401.61 58.649 400.09 58.649C398.962 58.649 397.912 58.9075 396.941 59.4245C395.985 59.9415 395.084 60.6465 394.238 61.5395V79H389.186V55.03H392.241C392.93 55.03 393.369 55.3512 393.557 55.9935L393.909 58.2025ZM402.04 47.416C402.542 47.416 402.933 47.275 403.215 46.993C403.497 46.6953 403.646 46.2097 403.662 45.536H406.74C406.74 46.3507 406.631 47.0948 406.411 47.7685C406.192 48.4265 405.879 48.9983 405.471 49.484C405.08 49.954 404.602 50.3222 404.038 50.5885C403.49 50.8392 402.886 50.9645 402.228 50.9645C401.68 50.9645 401.163 50.8627 400.677 50.659C400.192 50.4397 399.737 50.2047 399.314 49.954C398.891 49.7033 398.492 49.4762 398.116 49.2725C397.74 49.0532 397.387 48.9435 397.058 48.9435C396.557 48.9435 396.165 49.1002 395.883 49.4135C395.601 49.7112 395.46 50.1968 395.46 50.8705H392.335C392.335 50.0558 392.445 49.3117 392.664 48.638C392.899 47.9643 393.212 47.3925 393.604 46.9225C394.011 46.4368 394.489 46.0608 395.037 45.7945C395.601 45.5282 396.212 45.395 396.87 45.395C397.434 45.395 397.959 45.5047 398.445 45.724C398.931 45.9277 399.385 46.1548 399.808 46.4055C400.231 46.6562 400.623 46.8912 400.983 47.1105C401.359 47.3142 401.711 47.416 402.04 47.416ZM425.895 54.654C427.665 54.654 429.263 54.9438 430.689 55.5235C432.13 56.1032 433.352 56.9257 434.355 57.991C435.373 59.0563 436.157 60.3488 436.705 61.8685C437.253 63.3882 437.528 65.0958 437.528 66.9915C437.528 68.8872 437.253 70.5948 436.705 72.1145C436.157 73.6342 435.373 74.9345 434.355 76.0155C433.352 77.0808 432.13 77.9033 430.689 78.483C429.263 79.0627 427.665 79.3525 425.895 79.3525C424.109 79.3525 422.495 79.0627 421.054 78.483C419.628 77.9033 418.406 77.0808 417.388 76.0155C416.37 74.9345 415.586 73.6342 415.038 72.1145C414.49 70.5948 414.216 68.8872 414.216 66.9915C414.216 65.0958 414.49 63.3882 415.038 61.8685C415.586 60.3488 416.37 59.0563 417.388 57.991C418.406 56.9257 419.628 56.1032 421.054 55.5235C422.495 54.9438 424.109 54.654 425.895 54.654ZM425.895 75.4045C428.057 75.4045 429.663 74.6838 430.713 73.2425C431.778 71.7855 432.311 69.7097 432.311 67.015C432.311 64.3203 431.778 62.2445 430.713 60.7875C429.663 59.3148 428.057 58.5785 425.895 58.5785C423.702 58.5785 422.072 59.3148 421.007 60.7875C419.942 62.2445 419.409 64.3203 419.409 67.015C419.409 69.7097 419.942 71.7855 421.007 73.2425C422.072 74.6838 423.702 75.4045 425.895 75.4045ZM456.694 59.3775C456.568 59.5968 456.427 59.7535 456.271 59.8475C456.114 59.9415 455.918 59.9885 455.683 59.9885C455.417 59.9885 455.127 59.9102 454.814 59.7535C454.5 59.5812 454.132 59.3932 453.709 59.1895C453.286 58.9858 452.785 58.8057 452.205 58.649C451.641 58.4767 450.975 58.3905 450.208 58.3905C449.581 58.3905 449.009 58.4688 448.492 58.6255C447.991 58.7665 447.56 58.978 447.2 59.26C446.855 59.5263 446.589 59.8475 446.401 60.2235C446.213 60.5838 446.119 60.9755 446.119 61.3985C446.119 61.9625 446.291 62.4325 446.636 62.8085C446.98 63.1845 447.435 63.5135 447.999 63.7955C448.563 64.0618 449.205 64.3047 449.926 64.524C450.646 64.7433 451.383 64.9783 452.135 65.229C452.887 65.4797 453.623 65.7695 454.344 66.0985C455.064 66.4275 455.707 66.8348 456.271 67.3205C456.835 67.7905 457.289 68.3702 457.634 69.0595C457.978 69.7332 458.151 70.5557 458.151 71.527C458.151 72.655 457.947 73.6968 457.54 74.6525C457.132 75.6082 456.537 76.4385 455.754 77.1435C454.97 77.8485 453.991 78.3968 452.816 78.7885C451.657 79.1802 450.325 79.376 448.821 79.376C447.991 79.376 447.184 79.2977 446.401 79.141C445.633 79 444.897 78.8042 444.192 78.5535C443.502 78.2872 442.852 77.9738 442.241 77.6135C441.646 77.2532 441.113 76.8615 440.643 76.4385L441.818 74.5115C441.959 74.2765 442.132 74.0963 442.335 73.971C442.555 73.83 442.821 73.7595 443.134 73.7595C443.463 73.7595 443.784 73.8692 444.098 74.0885C444.427 74.2922 444.803 74.5193 445.226 74.77C445.664 75.0207 446.189 75.2557 446.8 75.475C447.411 75.6787 448.171 75.7805 449.08 75.7805C449.832 75.7805 450.482 75.6943 451.03 75.522C451.579 75.334 452.033 75.0833 452.393 74.77C452.754 74.4567 453.02 74.1042 453.192 73.7125C453.365 73.3052 453.451 72.8743 453.451 72.42C453.451 71.809 453.278 71.3077 452.934 70.916C452.589 70.5243 452.127 70.1875 451.547 69.9055C450.983 69.6235 450.333 69.3728 449.597 69.1535C448.876 68.9342 448.14 68.6992 447.388 68.4485C446.636 68.1978 445.892 67.908 445.155 67.579C444.435 67.25 443.784 66.8348 443.205 66.3335C442.641 65.8165 442.186 65.1977 441.842 64.477C441.497 63.7407 441.325 62.8477 441.325 61.798C441.325 60.8423 441.513 59.9337 441.889 59.072C442.28 58.2103 442.844 57.4505 443.581 56.7925C444.333 56.1345 445.249 55.6175 446.33 55.2415C447.427 54.8498 448.688 54.654 450.114 54.654C451.727 54.654 453.192 54.9125 454.508 55.4295C455.824 55.9465 456.929 56.6515 457.822 57.5445L456.694 59.3775ZM17.377 104.928C16.672 104.02 15.8965 103.385 15.0505 103.025C14.2045 102.665 13.288 102.484 12.301 102.484C10.327 102.484 8.78383 103.213 7.6715 104.67C6.55917 106.111 6.003 108.25 6.003 111.085C6.003 112.558 6.12833 113.819 6.379 114.869C6.62967 115.903 6.99 116.749 7.46 117.407C7.93 118.065 8.50183 118.543 9.1755 118.84C9.84917 119.138 10.609 119.287 11.455 119.287C12.7397 119.287 13.8442 119.013 14.7685 118.464C15.7085 117.9 16.578 117.109 17.377 116.091V104.928ZM22.4295 88.22V123H19.3745C18.7008 123 18.27 122.679 18.082 122.036L17.6355 119.428C16.6328 120.603 15.4892 121.551 14.2045 122.271C12.9355 122.992 11.455 123.353 9.763 123.353C8.41567 123.353 7.19367 123.086 6.097 122.553C5.00033 122.005 4.06033 121.214 3.277 120.18C2.49367 119.146 1.88267 117.869 1.444 116.349C1.021 114.814 0.8095 113.059 0.8095 111.085C0.8095 109.299 1.0445 107.647 1.5145 106.127C2.00017 104.607 2.6895 103.291 3.5825 102.179C4.4755 101.051 5.5565 100.174 6.8255 99.547C8.11017 98.9047 9.54367 98.5835 11.126 98.5835C12.536 98.5835 13.7345 98.8107 14.7215 99.265C15.7085 99.7037 16.5937 100.322 17.377 101.121V88.22H22.4295ZM44.3293 108.312C44.3293 107.466 44.204 106.683 43.9533 105.962C43.7183 105.226 43.3658 104.592 42.8958 104.059C42.4258 103.511 41.8383 103.088 41.1333 102.79C40.444 102.477 39.645 102.32 38.7363 102.32C36.9033 102.32 35.462 102.845 34.4123 103.894C33.3626 104.944 32.6968 106.417 32.4148 108.312H44.3293ZM32.2738 111.414C32.3365 112.777 32.548 113.96 32.9083 114.963C33.2686 115.95 33.7465 116.772 34.3418 117.43C34.9528 118.088 35.6735 118.582 36.5038 118.911C37.3498 119.224 38.2898 119.381 39.3238 119.381C40.3108 119.381 41.1646 119.271 41.8853 119.052C42.606 118.817 43.2326 118.566 43.7653 118.3C44.298 118.018 44.7523 117.767 45.1283 117.548C45.5043 117.313 45.849 117.195 46.1623 117.195C46.5696 117.195 46.883 117.352 47.1023 117.665L48.5358 119.522C47.9405 120.227 47.2668 120.822 46.5148 121.308C45.7628 121.794 44.9638 122.193 44.1178 122.506C43.2718 122.804 42.4023 123.016 41.5093 123.141C40.6163 123.282 39.7468 123.353 38.9008 123.353C37.2401 123.353 35.697 123.078 34.2713 122.53C32.8613 121.966 31.6315 121.143 30.5818 120.062C29.5478 118.981 28.7331 117.642 28.1378 116.044C27.5581 114.446 27.2683 112.605 27.2683 110.521C27.2683 108.861 27.5268 107.31 28.0438 105.868C28.5765 104.427 29.3285 103.174 30.2998 102.108C31.2868 101.043 32.4775 100.205 33.8718 99.594C35.2818 98.9673 36.872 98.654 38.6423 98.654C40.115 98.654 41.478 98.8968 42.7313 99.3825C43.9846 99.8525 45.0656 100.55 45.9743 101.474C46.883 102.398 47.588 103.534 48.0893 104.881C48.6063 106.213 48.8648 107.733 48.8648 109.44C48.8648 110.224 48.7786 110.749 48.6063 111.015C48.434 111.281 48.1206 111.414 47.6663 111.414H32.2738ZM64.9751 98.466C65.2101 96.868 65.6488 95.4658 66.2911 94.2595C66.9491 93.0532 67.7716 92.0505 68.7586 91.2515C69.7456 90.4368 70.8736 89.8258 72.1426 89.4185C73.4273 88.9955 74.8138 88.784 76.3021 88.784C77.8061 88.784 79.1691 89.0033 80.3911 89.442C81.6288 89.865 82.6863 90.4603 83.5636 91.228C84.4566 91.9957 85.1381 92.9122 85.6081 93.9775C86.0938 95.0428 86.3367 96.21 86.3367 97.479C86.3367 98.56 86.2035 99.5157 85.9371 100.346C85.6865 101.161 85.3183 101.881 84.8326 102.508C84.3626 103.135 83.783 103.659 83.0936 104.082C82.4043 104.505 81.6288 104.858 80.7671 105.14C82.8665 105.751 84.441 106.73 85.4906 108.077C86.5403 109.409 87.0652 111.085 87.0652 113.106C87.0652 114.736 86.7597 116.185 86.1486 117.454C85.5376 118.723 84.7073 119.796 83.6576 120.673C82.6236 121.551 81.4095 122.224 80.0151 122.694C78.6365 123.149 77.1716 123.376 75.6206 123.376C73.8816 123.376 72.3776 123.172 71.1086 122.765C69.8396 122.342 68.743 121.747 67.8186 120.979C66.91 120.196 66.1501 119.256 65.5391 118.159C64.9281 117.062 64.4111 115.832 63.9881 114.469L66.1736 113.553C66.7533 113.302 67.3016 113.232 67.8186 113.341C68.3513 113.451 68.7351 113.741 68.9701 114.211C69.2208 114.712 69.5028 115.253 69.8161 115.832C70.1295 116.396 70.529 116.921 71.0146 117.407C71.516 117.877 72.127 118.276 72.8476 118.605C73.584 118.919 74.4848 119.075 75.5501 119.075C76.6311 119.075 77.5711 118.903 78.3701 118.558C79.1848 118.198 79.8585 117.744 80.3911 117.195C80.9395 116.631 81.3468 116.005 81.6131 115.315C81.8795 114.626 82.0126 113.945 82.0126 113.271C82.0126 112.425 81.9108 111.649 81.7071 110.944C81.5035 110.224 81.104 109.613 80.5086 109.111C79.929 108.61 79.0986 108.218 78.0176 107.936C76.9523 107.639 75.5501 107.49 73.8111 107.49V103.847C75.2368 103.832 76.4353 103.691 77.4066 103.424C78.3936 103.142 79.177 102.766 79.7566 102.296C80.352 101.811 80.775 101.231 81.0256 100.557C81.292 99.8838 81.4251 99.1475 81.4251 98.3485C81.4251 97.4868 81.292 96.727 81.0256 96.069C80.7593 95.411 80.3833 94.8627 79.8976 94.424C79.4276 93.9697 78.8636 93.6328 78.2056 93.4135C77.5476 93.1942 76.8191 93.0845 76.0201 93.0845C75.2525 93.0845 74.5396 93.1942 73.8816 93.4135C73.2393 93.6328 72.6596 93.9383 72.1426 94.33C71.6413 94.7217 71.2183 95.1917 70.8736 95.74C70.529 96.2727 70.2783 96.8602 70.1216 97.5025C69.9023 98.1448 69.6046 98.5757 69.2286 98.795C68.8683 99.0143 68.3356 99.0613 67.6306 98.936L64.9751 98.466ZM117.056 112.519C115.254 112.582 113.735 112.73 112.497 112.965C111.259 113.185 110.257 113.475 109.489 113.835C108.721 114.18 108.165 114.595 107.82 115.08C107.491 115.566 107.327 116.099 107.327 116.678C107.327 117.242 107.413 117.728 107.585 118.135C107.773 118.527 108.024 118.856 108.337 119.122C108.666 119.373 109.042 119.561 109.465 119.686C109.904 119.796 110.382 119.851 110.899 119.851C112.215 119.851 113.343 119.608 114.283 119.122C115.239 118.621 116.163 117.9 117.056 116.961V112.519ZM103.661 102.367C106.371 99.8447 109.599 98.5835 113.343 98.5835C114.722 98.5835 115.944 98.8107 117.009 99.265C118.09 99.7037 118.991 100.33 119.711 101.145C120.448 101.96 121.004 102.931 121.38 104.059C121.772 105.171 121.967 106.409 121.967 107.772V123H119.711C119.226 123 118.858 122.929 118.607 122.788C118.356 122.632 118.145 122.326 117.972 121.872L117.479 119.921C116.868 120.47 116.265 120.963 115.669 121.402C115.074 121.825 114.455 122.185 113.813 122.483C113.186 122.781 112.505 123 111.768 123.141C111.048 123.298 110.249 123.376 109.371 123.376C108.4 123.376 107.491 123.243 106.645 122.976C105.815 122.71 105.094 122.311 104.483 121.778C103.872 121.23 103.387 120.556 103.026 119.757C102.682 118.958 102.509 118.018 102.509 116.937C102.509 116.013 102.752 115.112 103.238 114.234C103.739 113.357 104.554 112.574 105.682 111.884C106.826 111.179 108.322 110.6 110.17 110.145C112.035 109.691 114.33 109.433 117.056 109.37V107.772C117.056 106.049 116.688 104.764 115.951 103.918C115.215 103.072 114.134 102.649 112.708 102.649C111.737 102.649 110.922 102.774 110.264 103.025C109.606 103.26 109.035 103.518 108.549 103.8C108.063 104.082 107.632 104.349 107.256 104.599C106.88 104.834 106.481 104.952 106.058 104.952C105.713 104.952 105.416 104.866 105.165 104.693C104.93 104.505 104.734 104.278 104.577 104.012L103.661 102.367ZM132.61 102.202C133.127 101.67 133.659 101.192 134.208 100.769C134.772 100.33 135.367 99.9543 135.994 99.641C136.62 99.3277 137.286 99.0848 137.991 98.9125C138.696 98.7402 139.464 98.654 140.294 98.654C141.61 98.654 142.762 98.8733 143.749 99.312C144.751 99.7507 145.589 100.369 146.263 101.168C146.952 101.967 147.469 102.931 147.814 104.059C148.159 105.171 148.331 106.401 148.331 107.748V123H143.302V107.748C143.302 106.135 142.926 104.881 142.174 103.988C141.438 103.095 140.31 102.649 138.79 102.649C137.662 102.649 136.612 102.907 135.641 103.424C134.685 103.941 133.785 104.646 132.939 105.539V123H127.886V99.03H130.941C131.63 99.03 132.069 99.3512 132.257 99.9935L132.61 102.202ZM140.741 91.416C141.242 91.416 141.634 91.275 141.916 90.993C142.198 90.6953 142.346 90.2097 142.362 89.536H145.441C145.441 90.3507 145.331 91.0948 145.112 91.7685C144.892 92.4265 144.579 92.9983 144.172 93.484C143.78 93.954 143.302 94.3222 142.738 94.5885C142.19 94.8392 141.587 94.9645 140.929 94.9645C140.38 94.9645 139.863 94.8627 139.378 94.659C138.892 94.4397 138.438 94.2047 138.015 93.954C137.592 93.7033 137.192 93.4762 136.816 93.2725C136.44 93.0532 136.088 92.9435 135.759 92.9435C135.257 92.9435 134.866 93.1002 134.584 93.4135C134.302 93.7112 134.161 94.1968 134.161 94.8705H131.035C131.035 94.0558 131.145 93.3117 131.364 92.638C131.599 91.9643 131.912 91.3925 132.304 90.9225C132.711 90.4368 133.189 90.0608 133.738 89.7945C134.302 89.5282 134.913 89.395 135.571 89.395C136.135 89.395 136.659 89.5047 137.145 89.724C137.631 89.9277 138.085 90.1548 138.508 90.4055C138.931 90.6562 139.323 90.8912 139.683 91.1105C140.059 91.3142 140.412 91.416 140.741 91.416ZM164.595 98.654C166.366 98.654 167.964 98.9438 169.389 99.5235C170.831 100.103 172.053 100.926 173.055 101.991C174.074 103.056 174.857 104.349 175.405 105.868C175.954 107.388 176.228 109.096 176.228 110.991C176.228 112.887 175.954 114.595 175.405 116.114C174.857 117.634 174.074 118.934 173.055 120.015C172.053 121.081 170.831 121.903 169.389 122.483C167.964 123.063 166.366 123.353 164.595 123.353C162.809 123.353 161.196 123.063 159.754 122.483C158.329 121.903 157.107 121.081 156.088 120.015C155.07 118.934 154.287 117.634 153.738 116.114C153.19 114.595 152.916 112.887 152.916 110.991C152.916 109.096 153.19 107.388 153.738 105.868C154.287 104.349 155.07 103.056 156.088 101.991C157.107 100.926 158.329 100.103 159.754 99.5235C161.196 98.9438 162.809 98.654 164.595 98.654ZM164.595 119.404C166.757 119.404 168.363 118.684 169.413 117.242C170.478 115.785 171.011 113.71 171.011 111.015C171.011 108.32 170.478 106.244 169.413 104.787C168.363 103.315 166.757 102.578 164.595 102.578C162.402 102.578 160.773 103.315 159.707 104.787C158.642 106.244 158.109 108.32 158.109 111.015C158.109 113.71 158.642 115.785 159.707 117.242C160.773 118.684 162.402 119.404 164.595 119.404ZM195.394 103.377C195.269 103.597 195.128 103.753 194.971 103.847C194.814 103.941 194.618 103.988 194.383 103.988C194.117 103.988 193.827 103.91 193.514 103.753C193.201 103.581 192.832 103.393 192.409 103.189C191.986 102.986 191.485 102.806 190.905 102.649C190.341 102.477 189.676 102.39 188.908 102.39C188.281 102.39 187.709 102.469 187.192 102.625C186.691 102.766 186.26 102.978 185.9 103.26C185.555 103.526 185.289 103.847 185.101 104.223C184.913 104.584 184.819 104.975 184.819 105.398C184.819 105.962 184.991 106.432 185.336 106.808C185.681 107.184 186.135 107.513 186.699 107.795C187.263 108.062 187.905 108.305 188.626 108.524C189.347 108.743 190.083 108.978 190.835 109.229C191.587 109.48 192.323 109.769 193.044 110.098C193.765 110.427 194.407 110.835 194.971 111.32C195.535 111.79 195.989 112.37 196.334 113.059C196.679 113.733 196.851 114.556 196.851 115.527C196.851 116.655 196.647 117.697 196.24 118.652C195.833 119.608 195.237 120.438 194.454 121.143C193.671 121.848 192.691 122.397 191.516 122.788C190.357 123.18 189.025 123.376 187.521 123.376C186.691 123.376 185.884 123.298 185.101 123.141C184.333 123 183.597 122.804 182.892 122.553C182.203 122.287 181.552 121.974 180.941 121.613C180.346 121.253 179.813 120.861 179.343 120.438L180.518 118.511C180.659 118.276 180.832 118.096 181.035 117.971C181.255 117.83 181.521 117.759 181.834 117.759C182.163 117.759 182.485 117.869 182.798 118.088C183.127 118.292 183.503 118.519 183.926 118.77C184.365 119.021 184.889 119.256 185.5 119.475C186.111 119.679 186.871 119.78 187.78 119.78C188.532 119.78 189.182 119.694 189.73 119.522C190.279 119.334 190.733 119.083 191.093 118.77C191.454 118.457 191.72 118.104 191.892 117.712C192.065 117.305 192.151 116.874 192.151 116.42C192.151 115.809 191.979 115.308 191.634 114.916C191.289 114.524 190.827 114.187 190.247 113.905C189.683 113.623 189.033 113.373 188.297 113.153C187.576 112.934 186.84 112.699 186.088 112.448C185.336 112.198 184.592 111.908 183.855 111.579C183.135 111.25 182.485 110.835 181.905 110.333C181.341 109.816 180.887 109.198 180.542 108.477C180.197 107.741 180.025 106.848 180.025 105.798C180.025 104.842 180.213 103.934 180.589 103.072C180.981 102.21 181.545 101.45 182.281 100.792C183.033 100.134 183.949 99.6175 185.03 99.2415C186.127 98.8498 187.388 98.654 188.814 98.654C190.428 98.654 191.892 98.9125 193.208 99.4295C194.524 99.9465 195.629 100.651 196.522 101.544L195.394 103.377Z" fill="#1B428F"/>
</svg>
