<svg width="724" height="160" viewBox="0 0 724 160" fill="none" xmlns="http://www.w3.org/2000/svg">
<path d="M50.09 1.8V45H43.91V15.39C43.91 14.91 43.92 14.39 43.94 13.83C43.98 13.25 44.03 12.67 44.09 12.09L30.2 37.74C29.66 38.8 28.83 39.33 27.71 39.33H26.72C25.58 39.33 24.75 38.8 24.23 37.74L10.13 12.03C10.19 12.61 10.23 13.19 10.25 13.77C10.29 14.35 10.31 14.89 10.31 15.39V45H4.13V1.8H9.38C10 1.8 10.48 1.86 10.82 1.98C11.16 2.08 11.47 2.41 11.75 2.97L25.61 28.08C25.91 28.66 26.19 29.26 26.45 29.88C26.73 30.48 26.98 31.1 27.2 31.74C27.44 31.1 27.69 30.47 27.95 29.85C28.23 29.21 28.52 28.6 28.82 28.02L42.47 2.97C42.75 2.41 43.06 2.08 43.4 1.98C43.74 1.86 44.22 1.8 44.84 1.8H50.09ZM65.3727 14.4V45H58.9227V14.4H65.3727ZM66.4527 5.16C66.4527 5.74 66.3327 6.29 66.0927 6.81C65.8727 7.33 65.5627 7.79 65.1627 8.19C64.7627 8.57 64.2927 8.88 63.7527 9.12C63.2327 9.34 62.6727 9.45 62.0727 9.45C61.4927 9.45 60.9427 9.34 60.4227 9.12C59.9227 8.88 59.4827 8.57 59.1027 8.19C58.7227 7.79 58.4127 7.33 58.1727 6.81C57.9527 6.29 57.8427 5.74 57.8427 5.16C57.8427 4.56 57.9527 4 58.1727 3.48C58.4127 2.96 58.7227 2.51 59.1027 2.13C59.4827 1.73 59.9227 1.42 60.4227 1.2C60.9427 0.959997 61.4927 0.839996 62.0727 0.839996C62.6727 0.839996 63.2327 0.959997 63.7527 1.2C64.2927 1.42 64.7627 1.73 65.1627 2.13C65.5627 2.51 65.8727 2.96 66.0927 3.48C66.3327 4 66.4527 4.56 66.4527 5.16ZM79.5669 20.07C80.5269 18.13 81.6869 16.61 83.0469 15.51C84.4069 14.39 86.0369 13.83 87.9369 13.83C88.5969 13.83 89.2169 13.91 89.7969 14.07C90.3769 14.21 90.8969 14.43 91.3569 14.73L90.9069 19.59C90.8269 19.93 90.6969 20.17 90.5169 20.31C90.3569 20.43 90.1369 20.49 89.8569 20.49C89.5569 20.49 89.1269 20.44 88.5669 20.34C88.0069 20.22 87.4169 20.16 86.7969 20.16C85.8969 20.16 85.0969 20.29 84.3969 20.55C83.7169 20.81 83.0969 21.19 82.5369 21.69C81.9969 22.19 81.5169 22.8 81.0969 23.52C80.6769 24.24 80.2869 25.06 79.9269 25.98V45H73.4769V14.4H77.2269C77.9069 14.4 78.3769 14.53 78.6369 14.79C78.8969 15.03 79.0769 15.46 79.1769 16.08L79.5669 20.07ZM111.507 31.62C109.207 31.7 107.267 31.89 105.687 32.19C104.107 32.47 102.827 32.84 101.847 33.3C100.867 33.74 100.157 34.27 99.7166 34.89C99.2966 35.51 99.0866 36.19 99.0866 36.93C99.0866 37.65 99.1966 38.27 99.4166 38.79C99.6566 39.29 99.9766 39.71 100.377 40.05C100.797 40.37 101.277 40.61 101.817 40.77C102.377 40.91 102.987 40.98 103.647 40.98C105.327 40.98 106.767 40.67 107.967 40.05C109.187 39.41 110.367 38.49 111.507 37.29V31.62ZM94.4066 18.66C97.8666 15.44 101.987 13.83 106.767 13.83C108.527 13.83 110.087 14.12 111.447 14.7C112.827 15.26 113.977 16.06 114.897 17.1C115.837 18.14 116.547 19.38 117.027 20.82C117.527 22.24 117.777 23.82 117.777 25.56V45H114.897C114.277 45 113.807 44.91 113.487 44.73C113.167 44.53 112.897 44.14 112.677 43.56L112.047 41.07C111.267 41.77 110.497 42.4 109.737 42.96C108.977 43.5 108.187 43.96 107.367 44.34C106.567 44.72 105.697 45 104.757 45.18C103.837 45.38 102.817 45.48 101.697 45.48C100.457 45.48 99.2966 45.31 98.2166 44.97C97.1566 44.63 96.2366 44.12 95.4566 43.44C94.6766 42.74 94.0566 41.88 93.5966 40.86C93.1566 39.84 92.9366 38.64 92.9366 37.26C92.9366 36.08 93.2466 34.93 93.8666 33.81C94.5066 32.69 95.5466 31.69 96.9866 30.81C98.4466 29.91 100.357 29.17 102.717 28.59C105.097 28.01 108.027 27.68 111.507 27.6V25.56C111.507 23.36 111.037 21.72 110.097 20.64C109.157 19.56 107.777 19.02 105.957 19.02C104.717 19.02 103.677 19.18 102.837 19.5C101.997 19.8 101.267 20.13 100.647 20.49C100.027 20.85 99.4766 21.19 98.9966 21.51C98.5166 21.81 98.0066 21.96 97.4666 21.96C97.0266 21.96 96.6466 21.85 96.3266 21.63C96.0266 21.39 95.7766 21.1 95.5766 20.76L94.4066 18.66ZM160.344 26.25C160.344 25.17 160.184 24.17 159.864 23.25C159.564 22.31 159.114 21.5 158.514 20.82C157.914 20.12 157.164 19.58 156.264 19.2C155.384 18.8 154.364 18.6 153.204 18.6C150.864 18.6 149.024 19.27 147.684 20.61C146.344 21.95 145.494 23.83 145.134 26.25H160.344ZM144.954 30.21C145.034 31.95 145.304 33.46 145.764 34.74C146.224 36 146.834 37.05 147.594 37.89C148.374 38.73 149.294 39.36 150.354 39.78C151.434 40.18 152.634 40.38 153.954 40.38C155.214 40.38 156.304 40.24 157.224 39.96C158.144 39.66 158.944 39.34 159.624 39C160.304 38.64 160.884 38.32 161.364 38.04C161.844 37.74 162.284 37.59 162.684 37.59C163.204 37.59 163.604 37.79 163.884 38.19L165.714 40.56C164.954 41.46 164.094 42.22 163.134 42.84C162.174 43.46 161.154 43.97 160.074 44.37C158.994 44.75 157.884 45.02 156.744 45.18C155.604 45.36 154.494 45.45 153.414 45.45C151.294 45.45 149.324 45.1 147.504 44.4C145.704 43.68 144.134 42.63 142.794 41.25C141.474 39.87 140.434 38.16 139.674 36.12C138.934 34.08 138.564 31.73 138.564 29.07C138.564 26.95 138.894 24.97 139.554 23.13C140.234 21.29 141.194 19.69 142.434 18.33C143.694 16.97 145.214 15.9 146.994 15.12C148.794 14.32 150.824 13.92 153.084 13.92C154.964 13.92 156.704 14.23 158.304 14.85C159.904 15.45 161.284 16.34 162.444 17.52C163.604 18.7 164.504 20.15 165.144 21.87C165.804 23.57 166.134 25.51 166.134 27.69C166.134 28.69 166.024 29.36 165.804 29.7C165.584 30.04 165.184 30.21 164.604 30.21H144.954ZM178.719 0.599999V45H172.269V0.599999H178.719ZM227.097 14.4L214.797 45H208.977L196.677 14.4H201.987C202.487 14.4 202.897 14.53 203.217 14.79C203.557 15.03 203.777 15.32 203.877 15.66L210.657 33.48C210.937 34.32 211.187 35.15 211.407 35.97C211.627 36.79 211.817 37.62 211.977 38.46C212.137 37.62 212.327 36.8 212.547 36C212.787 35.18 213.047 34.34 213.327 33.48L220.227 15.66C220.347 15.3 220.567 15 220.887 14.76C221.207 14.52 221.597 14.4 222.057 14.4H227.097ZM238.224 14.4V45H231.774V14.4H238.224ZM239.304 5.16C239.304 5.74 239.184 6.29 238.944 6.81C238.724 7.33 238.414 7.79 238.014 8.19C237.614 8.57 237.144 8.88 236.604 9.12C236.084 9.34 235.524 9.45 234.924 9.45C234.344 9.45 233.794 9.34 233.274 9.12C232.774 8.88 232.334 8.57 231.954 8.19C231.574 7.79 231.264 7.33 231.024 6.81C230.804 6.29 230.694 5.74 230.694 5.16C230.694 4.56 230.804 4 231.024 3.48C231.264 2.96 231.574 2.51 231.954 2.13C232.334 1.73 232.774 1.42 233.274 1.2C233.794 0.959997 234.344 0.839996 234.924 0.839996C235.524 0.839996 236.084 0.959997 236.604 1.2C237.144 1.42 237.614 1.73 238.014 2.13C238.414 2.51 238.724 2.96 238.944 3.48C239.184 4 239.304 4.56 239.304 5.16ZM265.858 21.93C264.958 20.77 263.968 19.96 262.888 19.5C261.808 19.04 260.638 18.81 259.378 18.81C256.858 18.81 254.888 19.74 253.468 21.6C252.048 23.44 251.338 26.17 251.338 29.79C251.338 31.67 251.498 33.28 251.818 34.62C252.138 35.94 252.598 37.02 253.198 37.86C253.798 38.7 254.528 39.31 255.388 39.69C256.248 40.07 257.218 40.26 258.298 40.26C259.938 40.26 261.348 39.91 262.528 39.21C263.728 38.49 264.838 37.48 265.858 36.18V21.93ZM272.308 0.599999V45H268.408C267.548 45 266.998 44.59 266.758 43.77L266.188 40.44C264.908 41.94 263.448 43.15 261.808 44.07C260.188 44.99 258.298 45.45 256.138 45.45C254.418 45.45 252.858 45.11 251.458 44.43C250.058 43.73 248.858 42.72 247.858 41.4C246.858 40.08 246.078 38.45 245.518 36.51C244.978 34.55 244.708 32.31 244.708 29.79C244.708 27.51 245.008 25.4 245.608 23.46C246.228 21.52 247.108 19.84 248.248 18.42C249.388 16.98 250.768 15.86 252.388 15.06C254.028 14.24 255.858 13.83 257.878 13.83C259.678 13.83 261.208 14.12 262.468 14.7C263.728 15.26 264.858 16.05 265.858 17.07V0.599999H272.308ZM300.266 26.25C300.266 25.17 300.106 24.17 299.786 23.25C299.486 22.31 299.036 21.5 298.436 20.82C297.836 20.12 297.086 19.58 296.186 19.2C295.306 18.8 294.286 18.6 293.126 18.6C290.786 18.6 288.946 19.27 287.606 20.61C286.266 21.95 285.416 23.83 285.056 26.25H300.266ZM284.876 30.21C284.956 31.95 285.226 33.46 285.686 34.74C286.146 36 286.756 37.05 287.516 37.89C288.296 38.73 289.216 39.36 290.276 39.78C291.356 40.18 292.556 40.38 293.876 40.38C295.136 40.38 296.226 40.24 297.146 39.96C298.066 39.66 298.866 39.34 299.546 39C300.226 38.64 300.806 38.32 301.286 38.04C301.766 37.74 302.206 37.59 302.606 37.59C303.126 37.59 303.526 37.79 303.806 38.19L305.636 40.56C304.876 41.46 304.016 42.22 303.056 42.84C302.096 43.46 301.076 43.97 299.996 44.37C298.916 44.75 297.806 45.02 296.666 45.18C295.526 45.36 294.416 45.45 293.336 45.45C291.216 45.45 289.246 45.1 287.426 44.4C285.626 43.68 284.056 42.63 282.716 41.25C281.396 39.87 280.356 38.16 279.596 36.12C278.856 34.08 278.486 31.73 278.486 29.07C278.486 26.95 278.816 24.97 279.476 23.13C280.156 21.29 281.116 19.69 282.356 18.33C283.616 16.97 285.136 15.9 286.916 15.12C288.716 14.32 290.746 13.92 293.006 13.92C294.886 13.92 296.626 14.23 298.226 14.85C299.826 15.45 301.206 16.34 302.366 17.52C303.526 18.7 304.426 20.15 305.066 21.87C305.726 23.57 306.056 25.51 306.056 27.69C306.056 28.69 305.946 29.36 305.726 29.7C305.506 30.04 305.106 30.21 304.526 30.21H284.876ZM325.301 13.92C327.561 13.92 329.601 14.29 331.421 15.03C333.261 15.77 334.821 16.82 336.101 18.18C337.401 19.54 338.401 21.19 339.101 23.13C339.801 25.07 340.151 27.25 340.151 29.67C340.151 32.09 339.801 34.27 339.101 36.21C338.401 38.15 337.401 39.81 336.101 41.19C334.821 42.55 333.261 43.6 331.421 44.34C329.601 45.08 327.561 45.45 325.301 45.45C323.021 45.45 320.961 45.08 319.121 44.34C317.301 43.6 315.741 42.55 314.441 41.19C313.141 39.81 312.141 38.15 311.441 36.21C310.741 34.27 310.391 32.09 310.391 29.67C310.391 27.25 310.741 25.07 311.441 23.13C312.141 21.19 313.141 19.54 314.441 18.18C315.741 16.82 317.301 15.77 319.121 15.03C320.961 14.29 323.021 13.92 325.301 13.92ZM325.301 40.41C328.061 40.41 330.111 39.49 331.451 37.65C332.811 35.79 333.491 33.14 333.491 29.7C333.491 26.26 332.811 23.61 331.451 21.75C330.111 19.87 328.061 18.93 325.301 18.93C322.501 18.93 320.421 19.87 319.061 21.75C317.701 23.61 317.021 26.26 317.021 29.7C317.021 33.14 317.701 35.79 319.061 37.65C320.421 39.49 322.501 40.41 325.301 40.41ZM386.916 14.4L370.056 53.7C369.836 54.16 369.566 54.52 369.246 54.78C368.946 55.04 368.476 55.17 367.836 55.17H363.066L368.706 42.93L356.226 14.4H361.836C362.376 14.4 362.786 14.53 363.066 14.79C363.366 15.03 363.586 15.32 363.726 15.66L371.016 33.03C371.196 33.53 371.356 34.03 371.496 34.53C371.656 35.01 371.806 35.51 371.946 36.03C372.106 35.51 372.266 35 372.426 34.5C372.586 34 372.766 33.5 372.966 33L379.956 15.66C380.096 15.3 380.326 15 380.646 14.76C380.986 14.52 381.356 14.4 381.756 14.4H386.916ZM424.12 21.93C423.22 20.77 422.23 19.96 421.15 19.5C420.07 19.04 418.9 18.81 417.64 18.81C415.12 18.81 413.15 19.74 411.73 21.6C410.31 23.44 409.6 26.17 409.6 29.79C409.6 31.67 409.76 33.28 410.08 34.62C410.4 35.94 410.86 37.02 411.46 37.86C412.06 38.7 412.79 39.31 413.65 39.69C414.51 40.07 415.48 40.26 416.56 40.26C418.2 40.26 419.61 39.91 420.79 39.21C421.99 38.49 423.1 37.48 424.12 36.18V21.93ZM430.57 0.599999V45H426.67C425.81 45 425.26 44.59 425.02 43.77L424.45 40.44C423.17 41.94 421.71 43.15 420.07 44.07C418.45 44.99 416.56 45.45 414.4 45.45C412.68 45.45 411.12 45.11 409.72 44.43C408.32 43.73 407.12 42.72 406.12 41.4C405.12 40.08 404.34 38.45 403.78 36.51C403.24 34.55 402.97 32.31 402.97 29.79C402.97 27.51 403.27 25.4 403.87 23.46C404.49 21.52 405.37 19.84 406.51 18.42C407.65 16.98 409.03 15.86 410.65 15.06C412.29 14.24 414.12 13.83 416.14 13.83C417.94 13.83 419.47 14.12 420.73 14.7C421.99 15.26 423.12 16.05 424.12 17.07V0.599999H430.57ZM458.527 26.25C458.527 25.17 458.367 24.17 458.047 23.25C457.747 22.31 457.297 21.5 456.697 20.82C456.097 20.12 455.347 19.58 454.447 19.2C453.567 18.8 452.547 18.6 451.387 18.6C449.047 18.6 447.207 19.27 445.867 20.61C444.527 21.95 443.677 23.83 443.317 26.25H458.527ZM443.137 30.21C443.217 31.95 443.487 33.46 443.947 34.74C444.407 36 445.017 37.05 445.777 37.89C446.557 38.73 447.477 39.36 448.537 39.78C449.617 40.18 450.817 40.38 452.137 40.38C453.397 40.38 454.487 40.24 455.407 39.96C456.327 39.66 457.127 39.34 457.807 39C458.487 38.64 459.067 38.32 459.547 38.04C460.027 37.74 460.467 37.59 460.867 37.59C461.387 37.59 461.787 37.79 462.067 38.19L463.897 40.56C463.137 41.46 462.277 42.22 461.317 42.84C460.357 43.46 459.337 43.97 458.257 44.37C457.177 44.75 456.067 45.02 454.927 45.18C453.787 45.36 452.677 45.45 451.597 45.45C449.477 45.45 447.507 45.1 445.687 44.4C443.887 43.68 442.317 42.63 440.977 41.25C439.657 39.87 438.617 38.16 437.857 36.12C437.117 34.08 436.747 31.73 436.747 29.07C436.747 26.95 437.077 24.97 437.737 23.13C438.417 21.29 439.377 19.69 440.617 18.33C441.877 16.97 443.397 15.9 445.177 15.12C446.977 14.32 449.007 13.92 451.267 13.92C453.147 13.92 454.887 14.23 456.487 14.85C458.087 15.45 459.467 16.34 460.627 17.52C461.787 18.7 462.687 20.15 463.327 21.87C463.987 23.57 464.317 25.51 464.317 27.69C464.317 28.69 464.207 29.36 463.987 29.7C463.767 30.04 463.367 30.21 462.787 30.21H443.137ZM488.602 19.95C488.442 20.23 488.262 20.43 488.062 20.55C487.862 20.67 487.612 20.73 487.312 20.73C486.972 20.73 486.602 20.63 486.202 20.43C485.802 20.21 485.332 19.97 484.792 19.71C484.252 19.45 483.612 19.22 482.872 19.02C482.152 18.8 481.302 18.69 480.322 18.69C479.522 18.69 478.792 18.79 478.132 18.99C477.492 19.17 476.942 19.44 476.482 19.8C476.042 20.14 475.702 20.55 475.462 21.03C475.222 21.49 475.102 21.99 475.102 22.53C475.102 23.25 475.322 23.85 475.762 24.33C476.202 24.81 476.782 25.23 477.502 25.59C478.222 25.93 479.042 26.24 479.962 26.52C480.882 26.8 481.822 27.1 482.782 27.42C483.742 27.74 484.682 28.11 485.602 28.53C486.522 28.95 487.342 29.47 488.062 30.09C488.782 30.69 489.362 31.43 489.802 32.31C490.242 33.17 490.462 34.22 490.462 35.46C490.462 36.9 490.202 38.23 489.682 39.45C489.162 40.67 488.402 41.73 487.402 42.63C486.402 43.53 485.152 44.23 483.652 44.73C482.172 45.23 480.472 45.48 478.552 45.48C477.492 45.48 476.462 45.38 475.462 45.18C474.482 45 473.542 44.75 472.642 44.43C471.762 44.09 470.932 43.69 470.152 43.23C469.392 42.77 468.712 42.27 468.112 41.73L469.612 39.27C469.792 38.97 470.012 38.74 470.272 38.58C470.552 38.4 470.892 38.31 471.292 38.31C471.712 38.31 472.122 38.45 472.522 38.73C472.942 38.99 473.422 39.28 473.962 39.6C474.522 39.92 475.192 40.22 475.972 40.5C476.752 40.76 477.722 40.89 478.882 40.89C479.842 40.89 480.672 40.78 481.372 40.56C482.072 40.32 482.652 40 483.112 39.6C483.572 39.2 483.912 38.75 484.132 38.25C484.352 37.73 484.462 37.18 484.462 36.6C484.462 35.82 484.242 35.18 483.802 34.68C483.362 34.18 482.772 33.75 482.032 33.39C481.312 33.03 480.482 32.71 479.542 32.43C478.622 32.15 477.682 31.85 476.722 31.53C475.762 31.21 474.812 30.84 473.872 30.42C472.952 30 472.122 29.47 471.382 28.83C470.662 28.17 470.082 27.38 469.642 26.46C469.202 25.52 468.982 24.38 468.982 23.04C468.982 21.82 469.222 20.66 469.702 19.56C470.202 18.46 470.922 17.49 471.862 16.65C472.822 15.81 473.992 15.15 475.372 14.67C476.772 14.17 478.382 13.92 480.202 13.92C482.262 13.92 484.132 14.25 485.812 14.91C487.492 15.57 488.902 16.47 490.042 17.61L488.602 19.95ZM518.154 20.4C517.954 20.66 517.764 20.86 517.584 21C517.404 21.14 517.144 21.21 516.804 21.21C516.464 21.21 516.104 21.09 515.724 20.85C515.364 20.61 514.924 20.35 514.404 20.07C513.904 19.77 513.294 19.5 512.574 19.26C511.854 19.02 510.954 18.9 509.874 18.9C508.474 18.9 507.244 19.15 506.184 19.65C505.144 20.15 504.264 20.87 503.544 21.81C502.844 22.73 502.314 23.86 501.954 25.2C501.614 26.52 501.444 28.01 501.444 29.67C501.444 31.39 501.634 32.92 502.014 34.26C502.394 35.6 502.934 36.73 503.634 37.65C504.354 38.57 505.214 39.27 506.214 39.75C507.234 40.23 508.374 40.47 509.634 40.47C510.874 40.47 511.884 40.32 512.664 40.02C513.444 39.72 514.094 39.39 514.614 39.03C515.134 38.67 515.574 38.34 515.934 38.04C516.314 37.74 516.714 37.59 517.134 37.59C517.654 37.59 518.054 37.79 518.334 38.19L520.164 40.56C519.424 41.46 518.604 42.22 517.704 42.84C516.804 43.46 515.854 43.97 514.854 44.37C513.854 44.75 512.814 45.02 511.734 45.18C510.654 45.36 509.564 45.45 508.464 45.45C506.564 45.45 504.784 45.1 503.124 44.4C501.484 43.68 500.044 42.65 498.804 41.31C497.584 39.95 496.614 38.3 495.894 36.36C495.194 34.4 494.844 32.17 494.844 29.67C494.844 27.41 495.164 25.32 495.804 23.4C496.444 21.46 497.374 19.79 498.594 18.39C499.834 16.99 501.364 15.9 503.184 15.12C505.004 14.32 507.104 13.92 509.484 13.92C511.704 13.92 513.654 14.28 515.334 15C517.034 15.72 518.544 16.74 519.864 18.06L518.154 20.4ZM551.152 14.4V45H547.252C546.392 45 545.842 44.59 545.602 43.77L545.122 40.92C544.482 41.6 543.802 42.22 543.082 42.78C542.382 43.34 541.632 43.82 540.832 44.22C540.032 44.62 539.172 44.93 538.252 45.15C537.352 45.37 536.382 45.48 535.342 45.48C533.662 45.48 532.182 45.2 530.902 44.64C529.622 44.08 528.542 43.29 527.662 42.27C526.802 41.25 526.152 40.03 525.712 38.61C525.272 37.17 525.052 35.59 525.052 33.87V14.4H531.502V33.87C531.502 35.93 531.972 37.53 532.912 38.67C533.872 39.81 535.322 40.38 537.262 40.38C538.682 40.38 540.002 40.06 541.222 39.42C542.462 38.76 543.622 37.86 544.702 36.72V14.4H551.152ZM565.435 37.32C566.335 38.48 567.315 39.3 568.375 39.78C569.455 40.24 570.625 40.47 571.885 40.47C574.425 40.47 576.405 39.55 577.825 37.71C579.245 35.87 579.955 33.02 579.955 29.16C579.955 25.64 579.335 23.07 578.095 21.45C576.875 19.83 575.125 19.02 572.845 19.02C571.265 19.02 569.885 19.38 568.705 20.1C567.545 20.8 566.455 21.81 565.435 23.13V37.32ZM565.435 18.45C566.695 17.07 568.105 15.97 569.665 15.15C571.225 14.33 573.005 13.92 575.005 13.92C576.785 13.92 578.385 14.27 579.805 14.97C581.245 15.65 582.465 16.64 583.465 17.94C584.465 19.24 585.235 20.82 585.775 22.68C586.315 24.52 586.585 26.6 586.585 28.92C586.585 31.4 586.275 33.66 585.655 35.7C585.055 37.72 584.185 39.46 583.045 40.92C581.905 42.36 580.525 43.48 578.905 44.28C577.285 45.06 575.475 45.45 573.475 45.45C572.495 45.45 571.605 45.35 570.805 45.15C570.005 44.97 569.265 44.7 568.585 44.34C567.905 43.98 567.275 43.55 566.695 43.05C566.135 42.55 565.595 41.98 565.075 41.34L564.805 43.71C564.705 44.17 564.525 44.5 564.265 44.7C564.005 44.9 563.645 45 563.185 45H558.985V0.599999H565.435V18.45ZM598.942 20.07C599.902 18.13 601.062 16.61 602.422 15.51C603.782 14.39 605.412 13.83 607.312 13.83C607.972 13.83 608.592 13.91 609.172 14.07C609.752 14.21 610.272 14.43 610.732 14.73L610.282 19.59C610.202 19.93 610.072 20.17 609.892 20.31C609.732 20.43 609.512 20.49 609.232 20.49C608.932 20.49 608.502 20.44 607.942 20.34C607.382 20.22 606.792 20.16 606.172 20.16C605.272 20.16 604.472 20.29 603.772 20.55C603.092 20.81 602.472 21.19 601.912 21.69C601.372 22.19 600.892 22.8 600.472 23.52C600.052 24.24 599.662 25.06 599.302 25.98V45H592.852V14.4H596.602C597.282 14.4 597.752 14.53 598.012 14.79C598.272 15.03 598.452 15.46 598.552 16.08L598.942 20.07ZM634.016 26.25C634.016 25.17 633.856 24.17 633.536 23.25C633.236 22.31 632.786 21.5 632.186 20.82C631.586 20.12 630.836 19.58 629.936 19.2C629.056 18.8 628.036 18.6 626.876 18.6C624.536 18.6 622.696 19.27 621.356 20.61C620.016 21.95 619.166 23.83 618.806 26.25H634.016ZM618.626 30.21C618.706 31.95 618.976 33.46 619.436 34.74C619.896 36 620.506 37.05 621.266 37.89C622.046 38.73 622.966 39.36 624.026 39.78C625.106 40.18 626.306 40.38 627.626 40.38C628.886 40.38 629.976 40.24 630.896 39.96C631.816 39.66 632.616 39.34 633.296 39C633.976 38.64 634.556 38.32 635.036 38.04C635.516 37.74 635.956 37.59 636.356 37.59C636.876 37.59 637.276 37.79 637.556 38.19L639.386 40.56C638.626 41.46 637.766 42.22 636.806 42.84C635.846 43.46 634.826 43.97 633.746 44.37C632.666 44.75 631.556 45.02 630.416 45.18C629.276 45.36 628.166 45.45 627.086 45.45C624.966 45.45 622.996 45.1 621.176 44.4C619.376 43.68 617.806 42.63 616.466 41.25C615.146 39.87 614.106 38.16 613.346 36.12C612.606 34.08 612.236 31.73 612.236 29.07C612.236 26.95 612.566 24.97 613.226 23.13C613.906 21.29 614.866 19.69 616.106 18.33C617.366 16.97 618.886 15.9 620.666 15.12C622.466 14.32 624.496 13.92 626.756 13.92C628.636 13.92 630.376 14.23 631.976 14.85C633.576 15.45 634.956 16.34 636.116 17.52C637.276 18.7 638.176 20.15 638.816 21.87C639.476 23.57 639.806 25.51 639.806 27.69C639.806 28.69 639.696 29.36 639.476 29.7C639.256 30.04 638.856 30.21 638.276 30.21H618.626ZM680.832 26.25C680.832 25.17 680.672 24.17 680.352 23.25C680.052 22.31 679.602 21.5 679.002 20.82C678.402 20.12 677.652 19.58 676.752 19.2C675.872 18.8 674.852 18.6 673.692 18.6C671.352 18.6 669.512 19.27 668.172 20.61C666.832 21.95 665.982 23.83 665.622 26.25H680.832ZM665.442 30.21C665.522 31.95 665.792 33.46 666.252 34.74C666.712 36 667.322 37.05 668.082 37.89C668.862 38.73 669.782 39.36 670.842 39.78C671.922 40.18 673.122 40.38 674.442 40.38C675.702 40.38 676.792 40.24 677.712 39.96C678.632 39.66 679.432 39.34 680.112 39C680.792 38.64 681.372 38.32 681.852 38.04C682.332 37.74 682.772 37.59 683.172 37.59C683.692 37.59 684.092 37.79 684.372 38.19L686.202 40.56C685.442 41.46 684.582 42.22 683.622 42.84C682.662 43.46 681.642 43.97 680.562 44.37C679.482 44.75 678.372 45.02 677.232 45.18C676.092 45.36 674.982 45.45 673.902 45.45C671.782 45.45 669.812 45.1 667.992 44.4C666.192 43.68 664.622 42.63 663.282 41.25C661.962 39.87 660.922 38.16 660.162 36.12C659.422 34.08 659.052 31.73 659.052 29.07C659.052 26.95 659.382 24.97 660.042 23.13C660.722 21.29 661.682 19.69 662.922 18.33C664.182 16.97 665.702 15.9 667.482 15.12C669.282 14.32 671.312 13.92 673.572 13.92C675.452 13.92 677.192 14.23 678.792 14.85C680.392 15.45 681.772 16.34 682.932 17.52C684.092 18.7 684.992 20.15 685.632 21.87C686.292 23.57 686.622 25.51 686.622 27.69C686.622 28.69 686.512 29.36 686.292 29.7C686.072 30.04 685.672 30.21 685.092 30.21H665.442ZM699.207 0.599999V45H692.757V0.599999H699.207ZM21.2 76.95C21.04 77.23 20.86 77.43 20.66 77.55C20.46 77.67 20.21 77.73 19.91 77.73C19.57 77.73 19.2 77.63 18.8 77.43C18.4 77.21 17.93 76.97 17.39 76.71C16.85 76.45 16.21 76.22 15.47 76.02C14.75 75.8 13.9 75.69 12.92 75.69C12.12 75.69 11.39 75.79 10.73 75.99C10.09 76.17 9.54 76.44 9.08 76.8C8.64 77.14 8.3 77.55 8.06 78.03C7.82 78.49 7.7 78.99 7.7 79.53C7.7 80.25 7.92 80.85 8.36 81.33C8.8 81.81 9.38 82.23 10.1 82.59C10.82 82.93 11.64 83.24 12.56 83.52C13.48 83.8 14.42 84.1 15.38 84.42C16.34 84.74 17.28 85.11 18.2 85.53C19.12 85.95 19.94 86.47 20.66 87.09C21.38 87.69 21.96 88.43 22.4 89.31C22.84 90.17 23.06 91.22 23.06 92.46C23.06 93.9 22.8 95.23 22.28 96.45C21.76 97.67 21 98.73 20 99.63C19 100.53 17.75 101.23 16.25 101.73C14.77 102.23 13.07 102.48 11.15 102.48C10.09 102.48 9.06 102.38 8.06 102.18C7.08 102 6.14 101.75 5.24 101.43C4.36 101.09 3.53 100.69 2.75 100.23C1.99 99.77 1.31 99.27 0.71 98.73L2.21 96.27C2.39 95.97 2.61 95.74 2.87 95.58C3.15 95.4 3.49 95.31 3.89 95.31C4.31 95.31 4.72 95.45 5.12 95.73C5.54 95.99 6.02 96.28 6.56 96.6C7.12 96.92 7.79 97.22 8.57 97.5C9.35 97.76 10.32 97.89 11.48 97.89C12.44 97.89 13.27 97.78 13.97 97.56C14.67 97.32 15.25 97 15.71 96.6C16.17 96.2 16.51 95.75 16.73 95.25C16.95 94.73 17.06 94.18 17.06 93.6C17.06 92.82 16.84 92.18 16.4 91.68C15.96 91.18 15.37 90.75 14.63 90.39C13.91 90.03 13.08 89.71 12.14 89.43C11.22 89.15 10.28 88.85 9.32 88.53C8.36 88.21 7.41 87.84 6.47 87.42C5.55 87 4.72 86.47 3.98 85.83C3.26 85.17 2.68 84.38 2.24 83.46C1.8 82.52 1.58 81.38 1.58 80.04C1.58 78.82 1.82 77.66 2.3 76.56C2.8 75.46 3.52 74.49 4.46 73.65C5.42 72.81 6.59 72.15 7.97 71.67C9.37 71.17 10.98 70.92 12.8 70.92C14.86 70.92 16.73 71.25 18.41 71.91C20.09 72.57 21.5 73.47 22.64 74.61L21.2 76.95ZM42.3514 70.92C44.6114 70.92 46.6514 71.29 48.4714 72.03C50.3114 72.77 51.8714 73.82 53.1514 75.18C54.4514 76.54 55.4514 78.19 56.1514 80.13C56.8514 82.07 57.2014 84.25 57.2014 86.67C57.2014 89.09 56.8514 91.27 56.1514 93.21C55.4514 95.15 54.4514 96.81 53.1514 98.19C51.8714 99.55 50.3114 100.6 48.4714 101.34C46.6514 102.08 44.6114 102.45 42.3514 102.45C40.0714 102.45 38.0114 102.08 36.1714 101.34C34.3514 100.6 32.7914 99.55 31.4914 98.19C30.1914 96.81 29.1914 95.15 28.4914 93.21C27.7914 91.27 27.4414 89.09 27.4414 86.67C27.4414 84.25 27.7914 82.07 28.4914 80.13C29.1914 78.19 30.1914 76.54 31.4914 75.18C32.7914 73.82 34.3514 72.77 36.1714 72.03C38.0114 71.29 40.0714 70.92 42.3514 70.92ZM42.3514 97.41C45.1114 97.41 47.1614 96.49 48.5014 94.65C49.8614 92.79 50.5414 90.14 50.5414 86.7C50.5414 83.26 49.8614 80.61 48.5014 78.75C47.1614 76.87 45.1114 75.93 42.3514 75.93C39.5514 75.93 37.4714 76.87 36.1114 78.75C34.7514 80.61 34.0714 83.26 34.0714 86.7C34.0714 90.14 34.7514 92.79 36.1114 94.65C37.4714 96.49 39.5514 97.41 42.3514 97.41ZM69.4888 77.07C70.4488 75.13 71.6088 73.61 72.9688 72.51C74.3288 71.39 75.9588 70.83 77.8588 70.83C78.5188 70.83 79.1388 70.91 79.7188 71.07C80.2988 71.21 80.8188 71.43 81.2788 71.73L80.8288 76.59C80.7488 76.93 80.6188 77.17 80.4388 77.31C80.2788 77.43 80.0588 77.49 79.7788 77.49C79.4788 77.49 79.0488 77.44 78.4888 77.34C77.9288 77.22 77.3388 77.16 76.7188 77.16C75.8188 77.16 75.0188 77.29 74.3188 77.55C73.6388 77.81 73.0188 78.19 72.4588 78.69C71.9188 79.19 71.4388 79.8 71.0188 80.52C70.5988 81.24 70.2088 82.06 69.8488 82.98V102H63.3988V71.4H67.1488C67.8288 71.4 68.2988 71.53 68.5588 71.79C68.8188 72.03 68.9988 72.46 69.0988 73.08L69.4888 77.07ZM91.9972 94.32C92.8972 95.48 93.8772 96.3 94.9372 96.78C96.0172 97.24 97.2072 97.47 98.5072 97.47C101.027 97.47 102.987 96.55 104.387 94.71C105.807 92.87 106.517 90.13 106.517 86.49C106.517 84.61 106.357 83.01 106.037 81.69C105.717 80.35 105.257 79.26 104.657 78.42C104.057 77.58 103.327 76.97 102.467 76.59C101.607 76.21 100.637 76.02 99.5572 76.02C97.9172 76.02 96.4972 76.38 95.2972 77.1C94.1172 77.8 93.0172 78.81 91.9972 80.13V94.32ZM91.6672 75.84C92.9472 74.34 94.3972 73.13 96.0172 72.21C97.6572 71.29 99.5572 70.83 101.717 70.83C103.437 70.83 104.997 71.18 106.397 71.88C107.797 72.56 108.997 73.56 109.997 74.88C110.997 76.2 111.767 77.84 112.307 79.8C112.867 81.74 113.147 83.97 113.147 86.49C113.147 88.75 112.837 90.86 112.217 92.82C111.617 94.76 110.747 96.45 109.607 97.89C108.467 99.31 107.087 100.43 105.467 101.25C103.847 102.05 102.017 102.45 99.9772 102.45C98.1772 102.45 96.6472 102.16 95.3872 101.58C94.1472 101 93.0172 100.2 91.9972 99.18V112.17H85.5472V71.4H89.4472C90.3272 71.4 90.8872 71.81 91.1272 72.63L91.6672 75.84ZM125.504 77.07C126.464 75.13 127.624 73.61 128.984 72.51C130.344 71.39 131.974 70.83 133.874 70.83C134.534 70.83 135.154 70.91 135.734 71.07C136.314 71.21 136.834 71.43 137.294 71.73L136.844 76.59C136.764 76.93 136.634 77.17 136.454 77.31C136.294 77.43 136.074 77.49 135.794 77.49C135.494 77.49 135.064 77.44 134.504 77.34C133.944 77.22 133.354 77.16 132.734 77.16C131.834 77.16 131.034 77.29 130.334 77.55C129.654 77.81 129.034 78.19 128.474 78.69C127.934 79.19 127.454 79.8 127.034 80.52C126.614 81.24 126.224 82.06 125.864 82.98V102H119.414V71.4H123.164C123.844 71.4 124.314 71.53 124.574 71.79C124.834 72.03 125.014 72.46 125.114 73.08L125.504 77.07ZM160.578 83.25C160.578 82.17 160.418 81.17 160.098 80.25C159.798 79.31 159.348 78.5 158.748 77.82C158.148 77.12 157.398 76.58 156.498 76.2C155.618 75.8 154.598 75.6 153.438 75.6C151.098 75.6 149.258 76.27 147.918 77.61C146.578 78.95 145.728 80.83 145.368 83.25H160.578ZM145.188 87.21C145.268 88.95 145.538 90.46 145.998 91.74C146.458 93 147.068 94.05 147.828 94.89C148.608 95.73 149.528 96.36 150.588 96.78C151.668 97.18 152.868 97.38 154.188 97.38C155.448 97.38 156.538 97.24 157.458 96.96C158.378 96.66 159.178 96.34 159.858 96C160.538 95.64 161.118 95.32 161.598 95.04C162.078 94.74 162.518 94.59 162.918 94.59C163.438 94.59 163.838 94.79 164.118 95.19L165.948 97.56C165.188 98.46 164.328 99.22 163.368 99.84C162.408 100.46 161.388 100.97 160.308 101.37C159.228 101.75 158.118 102.02 156.978 102.18C155.838 102.36 154.728 102.45 153.648 102.45C151.528 102.45 149.558 102.1 147.738 101.4C145.938 100.68 144.368 99.63 143.028 98.25C141.708 96.87 140.668 95.16 139.908 93.12C139.168 91.08 138.798 88.73 138.798 86.07C138.798 83.95 139.128 81.97 139.788 80.13C140.468 78.29 141.428 76.69 142.668 75.33C143.928 73.97 145.448 72.9 147.228 72.12C149.028 71.32 151.058 70.92 153.318 70.92C155.198 70.92 156.938 71.23 158.538 71.85C160.138 72.45 161.518 73.34 162.678 74.52C163.838 75.7 164.738 77.15 165.378 78.87C166.038 80.57 166.368 82.51 166.368 84.69C166.368 85.69 166.258 86.36 166.038 86.7C165.818 87.04 165.418 87.21 164.838 87.21H145.188ZM178.413 75.45C179.073 74.77 179.753 74.16 180.453 73.62C181.173 73.06 181.933 72.58 182.733 72.18C183.533 71.78 184.383 71.47 185.283 71.25C186.183 71.03 187.163 70.92 188.223 70.92C189.903 70.92 191.373 71.2 192.633 71.76C193.913 72.32 194.983 73.11 195.843 74.13C196.723 75.15 197.383 76.38 197.823 77.82C198.263 79.24 198.483 80.81 198.483 82.53V102H192.063V82.53C192.063 80.47 191.583 78.87 190.623 77.73C189.683 76.59 188.243 76.02 186.303 76.02C184.863 76.02 183.523 76.35 182.283 77.01C181.063 77.67 179.913 78.57 178.833 79.71V102H172.383V71.4H176.283C177.163 71.4 177.723 71.81 177.963 72.63L178.413 75.45ZM225.546 78.93C224.646 77.77 223.656 76.96 222.576 76.5C221.496 76.04 220.326 75.81 219.066 75.81C216.546 75.81 214.576 76.74 213.156 78.6C211.736 80.44 211.026 83.17 211.026 86.79C211.026 88.67 211.186 90.28 211.506 91.62C211.826 92.94 212.286 94.02 212.886 94.86C213.486 95.7 214.216 96.31 215.076 96.69C215.936 97.07 216.906 97.26 217.986 97.26C219.626 97.26 221.036 96.91 222.216 96.21C223.416 95.49 224.526 94.48 225.546 93.18V78.93ZM231.996 57.6V102H228.096C227.236 102 226.686 101.59 226.446 100.77L225.876 97.44C224.596 98.94 223.136 100.15 221.496 101.07C219.876 101.99 217.986 102.45 215.826 102.45C214.106 102.45 212.546 102.11 211.146 101.43C209.746 100.73 208.546 99.72 207.546 98.4C206.546 97.08 205.766 95.45 205.206 93.51C204.666 91.55 204.396 89.31 204.396 86.79C204.396 84.51 204.696 82.4 205.296 80.46C205.916 78.52 206.796 76.84 207.936 75.42C209.076 73.98 210.456 72.86 212.076 72.06C213.716 71.24 215.546 70.83 217.566 70.83C219.366 70.83 220.896 71.12 222.156 71.7C223.416 72.26 224.546 73.05 225.546 74.07V57.6H231.996ZM259.953 83.25C259.953 82.17 259.793 81.17 259.473 80.25C259.173 79.31 258.723 78.5 258.123 77.82C257.523 77.12 256.773 76.58 255.873 76.2C254.993 75.8 253.973 75.6 252.813 75.6C250.473 75.6 248.633 76.27 247.293 77.61C245.953 78.95 245.103 80.83 244.743 83.25H259.953ZM244.563 87.21C244.643 88.95 244.913 90.46 245.373 91.74C245.833 93 246.443 94.05 247.203 94.89C247.983 95.73 248.903 96.36 249.963 96.78C251.043 97.18 252.243 97.38 253.563 97.38C254.823 97.38 255.913 97.24 256.833 96.96C257.753 96.66 258.553 96.34 259.233 96C259.913 95.64 260.493 95.32 260.973 95.04C261.453 94.74 261.893 94.59 262.293 94.59C262.813 94.59 263.213 94.79 263.493 95.19L265.323 97.56C264.563 98.46 263.703 99.22 262.743 99.84C261.783 100.46 260.763 100.97 259.683 101.37C258.603 101.75 257.493 102.02 256.353 102.18C255.213 102.36 254.103 102.45 253.023 102.45C250.903 102.45 248.933 102.1 247.113 101.4C245.313 100.68 243.743 99.63 242.403 98.25C241.083 96.87 240.043 95.16 239.283 93.12C238.543 91.08 238.173 88.73 238.173 86.07C238.173 83.95 238.503 81.97 239.163 80.13C239.843 78.29 240.803 76.69 242.043 75.33C243.303 73.97 244.823 72.9 246.603 72.12C248.403 71.32 250.433 70.92 252.693 70.92C254.573 70.92 256.313 71.23 257.913 71.85C259.513 72.45 260.893 73.34 262.053 74.52C263.213 75.7 264.113 77.15 264.753 78.87C265.413 80.57 265.743 82.51 265.743 84.69C265.743 85.69 265.633 86.36 265.413 86.7C265.193 87.04 264.793 87.21 264.213 87.21H244.563ZM277.788 75.45C278.448 74.77 279.128 74.16 279.828 73.62C280.548 73.06 281.308 72.58 282.108 72.18C282.908 71.78 283.758 71.47 284.658 71.25C285.558 71.03 286.538 70.92 287.598 70.92C289.278 70.92 290.748 71.2 292.008 71.76C293.288 72.32 294.358 73.11 295.218 74.13C296.098 75.15 296.758 76.38 297.198 77.82C297.638 79.24 297.858 80.81 297.858 82.53V102H291.438V82.53C291.438 80.47 290.958 78.87 289.998 77.73C289.058 76.59 287.618 76.02 285.678 76.02C284.238 76.02 282.898 76.35 281.658 77.01C280.438 77.67 279.288 78.57 278.208 79.71V102H271.758V71.4H275.658C276.538 71.4 277.098 71.81 277.338 72.63L277.788 75.45ZM314.791 102.48C312.251 102.48 310.291 101.77 308.911 100.35C307.551 98.91 306.871 96.89 306.871 94.29V76.47H303.511C303.151 76.47 302.841 76.36 302.581 76.14C302.321 75.9 302.191 75.55 302.191 75.09V72.48L307.141 71.76L308.551 62.91C308.651 62.57 308.821 62.3 309.061 62.1C309.301 61.88 309.621 61.77 310.021 61.77H313.321V71.82H321.811V76.47H313.321V93.84C313.321 94.94 313.591 95.78 314.131 96.36C314.671 96.94 315.391 97.23 316.291 97.23C316.791 97.23 317.221 97.17 317.581 97.05C317.941 96.91 318.251 96.77 318.511 96.63C318.771 96.47 318.991 96.33 319.171 96.21C319.371 96.07 319.561 96 319.741 96C320.101 96 320.391 96.2 320.611 96.6L322.531 99.75C321.531 100.63 320.351 101.31 318.991 101.79C317.631 102.25 316.231 102.48 314.791 102.48ZM346.73 83.25C346.73 82.17 346.57 81.17 346.25 80.25C345.95 79.31 345.5 78.5 344.9 77.82C344.3 77.12 343.55 76.58 342.65 76.2C341.77 75.8 340.75 75.6 339.59 75.6C337.25 75.6 335.41 76.27 334.07 77.61C332.73 78.95 331.88 80.83 331.52 83.25H346.73ZM331.34 87.21C331.42 88.95 331.69 90.46 332.15 91.74C332.61 93 333.22 94.05 333.98 94.89C334.76 95.73 335.68 96.36 336.74 96.78C337.82 97.18 339.02 97.38 340.34 97.38C341.6 97.38 342.69 97.24 343.61 96.96C344.53 96.66 345.33 96.34 346.01 96C346.69 95.64 347.27 95.32 347.75 95.04C348.23 94.74 348.67 94.59 349.07 94.59C349.59 94.59 349.99 94.79 350.27 95.19L352.1 97.56C351.34 98.46 350.48 99.22 349.52 99.84C348.56 100.46 347.54 100.97 346.46 101.37C345.38 101.75 344.27 102.02 343.13 102.18C341.99 102.36 340.88 102.45 339.8 102.45C337.68 102.45 335.71 102.1 333.89 101.4C332.09 100.68 330.52 99.63 329.18 98.25C327.86 96.87 326.82 95.16 326.06 93.12C325.32 91.08 324.95 88.73 324.95 86.07C324.95 83.95 325.28 81.97 325.94 80.13C326.62 78.29 327.58 76.69 328.82 75.33C330.08 73.97 331.6 72.9 333.38 72.12C335.18 71.32 337.21 70.92 339.47 70.92C341.35 70.92 343.09 71.23 344.69 71.85C346.29 72.45 347.67 73.34 348.83 74.52C349.99 75.7 350.89 77.15 351.53 78.87C352.19 80.57 352.52 82.51 352.52 84.69C352.52 85.69 352.41 86.36 352.19 86.7C351.97 87.04 351.57 87.21 350.99 87.21H331.34ZM373.477 102V71.4H377.377C378.257 71.4 378.817 71.81 379.057 72.63L379.477 75.3C380.037 74.66 380.617 74.08 381.217 73.56C381.817 73.02 382.457 72.56 383.137 72.18C383.837 71.78 384.577 71.47 385.357 71.25C386.157 71.03 387.017 70.92 387.937 70.92C388.917 70.92 389.817 71.06 390.637 71.34C391.457 71.62 392.177 72.02 392.797 72.54C393.437 73.06 393.987 73.69 394.447 74.43C394.907 75.17 395.287 76 395.587 76.92C396.047 75.86 396.627 74.95 397.327 74.19C398.027 73.43 398.807 72.81 399.667 72.33C400.527 71.85 401.437 71.5 402.397 71.28C403.377 71.04 404.367 70.92 405.367 70.92C407.007 70.92 408.467 71.18 409.747 71.7C411.047 72.22 412.137 72.98 413.017 73.98C413.917 74.96 414.597 76.17 415.057 77.61C415.517 79.05 415.747 80.69 415.747 82.53V102H409.297V82.53C409.297 80.37 408.827 78.75 407.887 77.67C406.967 76.57 405.597 76.02 403.777 76.02C402.957 76.02 402.187 76.16 401.467 76.44C400.747 76.72 400.117 77.13 399.577 77.67C399.037 78.21 398.607 78.89 398.287 79.71C397.987 80.51 397.837 81.45 397.837 82.53V102H391.387V82.53C391.387 80.29 390.937 78.65 390.037 77.61C389.137 76.55 387.817 76.02 386.077 76.02C384.877 76.02 383.767 76.33 382.747 76.95C381.727 77.55 380.787 78.38 379.927 79.44V102H373.477ZM449.082 71.4V102H445.182C444.322 102 443.772 101.59 443.532 100.77L443.052 97.92C442.412 98.6 441.732 99.22 441.012 99.78C440.312 100.34 439.562 100.82 438.762 101.22C437.962 101.62 437.102 101.93 436.182 102.15C435.282 102.37 434.312 102.48 433.272 102.48C431.592 102.48 430.112 102.2 428.832 101.64C427.552 101.08 426.472 100.29 425.592 99.27C424.732 98.25 424.082 97.03 423.642 95.61C423.202 94.17 422.982 92.59 422.982 90.87V71.4H429.432V90.87C429.432 92.93 429.902 94.53 430.842 95.67C431.802 96.81 433.252 97.38 435.192 97.38C436.612 97.38 437.932 97.06 439.152 96.42C440.392 95.76 441.552 94.86 442.632 93.72V71.4H449.082ZM462.944 75.45C463.604 74.77 464.284 74.16 464.984 73.62C465.704 73.06 466.464 72.58 467.264 72.18C468.064 71.78 468.914 71.47 469.814 71.25C470.714 71.03 471.694 70.92 472.754 70.92C474.434 70.92 475.904 71.2 477.164 71.76C478.444 72.32 479.514 73.11 480.374 74.13C481.254 75.15 481.914 76.38 482.354 77.82C482.794 79.24 483.014 80.81 483.014 82.53V102H476.594V82.53C476.594 80.47 476.114 78.87 475.154 77.73C474.214 76.59 472.774 76.02 470.834 76.02C469.394 76.02 468.054 76.35 466.814 77.01C465.594 77.67 464.444 78.57 463.364 79.71V102H456.914V71.4H460.814C461.694 71.4 462.254 71.81 462.494 72.63L462.944 75.45ZM510.077 78.93C509.177 77.77 508.187 76.96 507.107 76.5C506.027 76.04 504.857 75.81 503.597 75.81C501.077 75.81 499.107 76.74 497.687 78.6C496.267 80.44 495.557 83.17 495.557 86.79C495.557 88.67 495.717 90.28 496.037 91.62C496.357 92.94 496.817 94.02 497.417 94.86C498.017 95.7 498.747 96.31 499.607 96.69C500.467 97.07 501.437 97.26 502.517 97.26C504.157 97.26 505.567 96.91 506.747 96.21C507.947 95.49 509.057 94.48 510.077 93.18V78.93ZM516.527 57.6V102H512.627C511.767 102 511.217 101.59 510.977 100.77L510.407 97.44C509.127 98.94 507.667 100.15 506.027 101.07C504.407 101.99 502.517 102.45 500.357 102.45C498.637 102.45 497.077 102.11 495.677 101.43C494.277 100.73 493.077 99.72 492.077 98.4C491.077 97.08 490.297 95.45 489.737 93.51C489.197 91.55 488.927 89.31 488.927 86.79C488.927 84.51 489.227 82.4 489.827 80.46C490.447 78.52 491.327 76.84 492.467 75.42C493.607 73.98 494.987 72.86 496.607 72.06C498.247 71.24 500.077 70.83 502.097 70.83C503.897 70.83 505.427 71.12 506.687 71.7C507.947 72.26 509.077 73.05 510.077 74.07V57.6H516.527ZM537.644 70.92C539.904 70.92 541.944 71.29 543.764 72.03C545.604 72.77 547.164 73.82 548.444 75.18C549.744 76.54 550.744 78.19 551.444 80.13C552.144 82.07 552.494 84.25 552.494 86.67C552.494 89.09 552.144 91.27 551.444 93.21C550.744 95.15 549.744 96.81 548.444 98.19C547.164 99.55 545.604 100.6 543.764 101.34C541.944 102.08 539.904 102.45 537.644 102.45C535.364 102.45 533.304 102.08 531.464 101.34C529.644 100.6 528.084 99.55 526.784 98.19C525.484 96.81 524.484 95.15 523.784 93.21C523.084 91.27 522.734 89.09 522.734 86.67C522.734 84.25 523.084 82.07 523.784 80.13C524.484 78.19 525.484 76.54 526.784 75.18C528.084 73.82 529.644 72.77 531.464 72.03C533.304 71.29 535.364 70.92 537.644 70.92ZM537.644 97.41C540.404 97.41 542.454 96.49 543.794 94.65C545.154 92.79 545.834 90.14 545.834 86.7C545.834 83.26 545.154 80.61 543.794 78.75C542.454 76.87 540.404 75.93 537.644 75.93C534.844 75.93 532.764 76.87 531.404 78.75C530.044 80.61 529.364 83.26 529.364 86.7C529.364 90.14 530.044 92.79 531.404 94.65C532.764 96.49 534.844 97.41 537.644 97.41ZM593.163 78.93C592.263 77.77 591.273 76.96 590.193 76.5C589.113 76.04 587.943 75.81 586.683 75.81C584.163 75.81 582.193 76.74 580.773 78.6C579.353 80.44 578.643 83.17 578.643 86.79C578.643 88.67 578.803 90.28 579.123 91.62C579.443 92.94 579.903 94.02 580.503 94.86C581.103 95.7 581.833 96.31 582.693 96.69C583.553 97.07 584.523 97.26 585.603 97.26C587.243 97.26 588.653 96.91 589.833 96.21C591.033 95.49 592.143 94.48 593.163 93.18V78.93ZM599.613 57.6V102H595.713C594.853 102 594.303 101.59 594.063 100.77L593.493 97.44C592.213 98.94 590.753 100.15 589.113 101.07C587.493 101.99 585.603 102.45 583.443 102.45C581.723 102.45 580.163 102.11 578.763 101.43C577.363 100.73 576.163 99.72 575.163 98.4C574.163 97.08 573.383 95.45 572.823 93.51C572.283 91.55 572.013 89.31 572.013 86.79C572.013 84.51 572.313 82.4 572.913 80.46C573.533 78.52 574.413 76.84 575.553 75.42C576.693 73.98 578.073 72.86 579.693 72.06C581.333 71.24 583.163 70.83 585.183 70.83C586.983 70.83 588.513 71.12 589.773 71.7C591.033 72.26 592.163 73.05 593.163 74.07V57.6H599.613ZM627.57 83.25C627.57 82.17 627.41 81.17 627.09 80.25C626.79 79.31 626.34 78.5 625.74 77.82C625.14 77.12 624.39 76.58 623.49 76.2C622.61 75.8 621.59 75.6 620.43 75.6C618.09 75.6 616.25 76.27 614.91 77.61C613.57 78.95 612.72 80.83 612.36 83.25H627.57ZM612.18 87.21C612.26 88.95 612.53 90.46 612.99 91.74C613.45 93 614.06 94.05 614.82 94.89C615.6 95.73 616.52 96.36 617.58 96.78C618.66 97.18 619.86 97.38 621.18 97.38C622.44 97.38 623.53 97.24 624.45 96.96C625.37 96.66 626.17 96.34 626.85 96C627.53 95.64 628.11 95.32 628.59 95.04C629.07 94.74 629.51 94.59 629.91 94.59C630.43 94.59 630.83 94.79 631.11 95.19L632.94 97.56C632.18 98.46 631.32 99.22 630.36 99.84C629.4 100.46 628.38 100.97 627.3 101.37C626.22 101.75 625.11 102.02 623.97 102.18C622.83 102.36 621.72 102.45 620.64 102.45C618.52 102.45 616.55 102.1 614.73 101.4C612.93 100.68 611.36 99.63 610.02 98.25C608.7 96.87 607.66 95.16 606.9 93.12C606.16 91.08 605.79 88.73 605.79 86.07C605.79 83.95 606.12 81.97 606.78 80.13C607.46 78.29 608.42 76.69 609.66 75.33C610.92 73.97 612.44 72.9 614.22 72.12C616.02 71.32 618.05 70.92 620.31 70.92C622.19 70.92 623.93 71.23 625.53 71.85C627.13 72.45 628.51 73.34 629.67 74.52C630.83 75.7 631.73 77.15 632.37 78.87C633.03 80.57 633.36 82.51 633.36 84.69C633.36 85.69 633.25 86.36 633.03 86.7C632.81 87.04 632.41 87.21 631.83 87.21H612.18ZM660.887 57.6V102H654.437V57.6H660.887ZM682.078 70.92C684.338 70.92 686.378 71.29 688.198 72.03C690.038 72.77 691.598 73.82 692.878 75.18C694.178 76.54 695.178 78.19 695.878 80.13C696.578 82.07 696.928 84.25 696.928 86.67C696.928 89.09 696.578 91.27 695.878 93.21C695.178 95.15 694.178 96.81 692.878 98.19C691.598 99.55 690.038 100.6 688.198 101.34C686.378 102.08 684.338 102.45 682.078 102.45C679.798 102.45 677.738 102.08 675.898 101.34C674.078 100.6 672.518 99.55 671.218 98.19C669.918 96.81 668.918 95.15 668.218 93.21C667.518 91.27 667.168 89.09 667.168 86.67C667.168 84.25 667.518 82.07 668.218 80.13C668.918 78.19 669.918 76.54 671.218 75.18C672.518 73.82 674.078 72.77 675.898 72.03C677.738 71.29 679.798 70.92 682.078 70.92ZM682.078 97.41C684.838 97.41 686.888 96.49 688.228 94.65C689.588 92.79 690.268 90.14 690.268 86.7C690.268 83.26 689.588 80.61 688.228 78.75C686.888 76.87 684.838 75.93 682.078 75.93C679.278 75.93 677.198 76.87 675.838 78.75C674.478 80.61 673.798 83.26 673.798 86.7C673.798 90.14 674.478 92.79 675.838 94.65C677.198 96.49 679.278 97.41 682.078 97.41ZM721.395 76.95C721.235 77.23 721.055 77.43 720.855 77.55C720.655 77.67 720.405 77.73 720.105 77.73C719.765 77.73 719.395 77.63 718.995 77.43C718.595 77.21 718.125 76.97 717.585 76.71C717.045 76.45 716.405 76.22 715.665 76.02C714.945 75.8 714.095 75.69 713.115 75.69C712.315 75.69 711.585 75.79 710.925 75.99C710.285 76.17 709.735 76.44 709.275 76.8C708.835 77.14 708.495 77.55 708.255 78.03C708.015 78.49 707.895 78.99 707.895 79.53C707.895 80.25 708.115 80.85 708.555 81.33C708.995 81.81 709.575 82.23 710.295 82.59C711.015 82.93 711.835 83.24 712.755 83.52C713.675 83.8 714.615 84.1 715.575 84.42C716.535 84.74 717.475 85.11 718.395 85.53C719.315 85.95 720.135 86.47 720.855 87.09C721.575 87.69 722.155 88.43 722.595 89.31C723.035 90.17 723.255 91.22 723.255 92.46C723.255 93.9 722.995 95.23 722.475 96.45C721.955 97.67 721.195 98.73 720.195 99.63C719.195 100.53 717.945 101.23 716.445 101.73C714.965 102.23 713.265 102.48 711.345 102.48C710.285 102.48 709.255 102.38 708.255 102.18C707.275 102 706.335 101.75 705.435 101.43C704.555 101.09 703.725 100.69 702.945 100.23C702.185 99.77 701.505 99.27 700.905 98.73L702.405 96.27C702.585 95.97 702.805 95.74 703.065 95.58C703.345 95.4 703.685 95.31 704.085 95.31C704.505 95.31 704.915 95.45 705.315 95.73C705.735 95.99 706.215 96.28 706.755 96.6C707.315 96.92 707.985 97.22 708.765 97.5C709.545 97.76 710.515 97.89 711.675 97.89C712.635 97.89 713.465 97.78 714.165 97.56C714.865 97.32 715.445 97 715.905 96.6C716.365 96.2 716.705 95.75 716.925 95.25C717.145 94.73 717.255 94.18 717.255 93.6C717.255 92.82 717.035 92.18 716.595 91.68C716.155 91.18 715.565 90.75 714.825 90.39C714.105 90.03 713.275 89.71 712.335 89.43C711.415 89.15 710.475 88.85 709.515 88.53C708.555 88.21 707.605 87.84 706.665 87.42C705.745 87 704.915 86.47 704.175 85.83C703.455 85.17 702.875 84.38 702.435 83.46C701.995 82.52 701.775 81.38 701.775 80.04C701.775 78.82 702.015 77.66 702.495 76.56C702.995 75.46 703.715 74.49 704.655 73.65C705.615 72.81 706.785 72.15 708.165 71.67C709.565 71.17 711.175 70.92 712.995 70.92C715.055 70.92 716.925 71.25 718.605 71.91C720.285 72.57 721.695 73.47 722.835 74.61L721.395 76.95ZM39.89 115.8V159H36.32C35.78 159 35.32 158.91 34.94 158.73C34.56 158.53 34.2 158.21 33.86 157.77L10.13 127.29C10.19 127.87 10.23 128.45 10.25 129.03C10.29 129.59 10.31 130.11 10.31 130.59V159H4.13V115.8H7.79C8.09 115.8 8.34 115.82 8.54 115.86C8.76 115.88 8.96 115.93 9.14 116.01C9.32 116.09 9.49 116.21 9.65 116.37C9.81 116.53 9.98 116.73 10.16 116.97L33.92 147.48C33.86 146.86 33.81 146.25 33.77 145.65C33.75 145.05 33.74 144.49 33.74 143.97V115.8H39.89ZM74.1988 128.4V159H70.2988C69.4388 159 68.8888 158.59 68.6488 157.77L68.1688 154.92C67.5288 155.6 66.8488 156.22 66.1288 156.78C65.4288 157.34 64.6788 157.82 63.8788 158.22C63.0788 158.62 62.2188 158.93 61.2988 159.15C60.3988 159.37 59.4288 159.48 58.3888 159.48C56.7088 159.48 55.2288 159.2 53.9488 158.64C52.6688 158.08 51.5888 157.29 50.7088 156.27C49.8488 155.25 49.1988 154.03 48.7588 152.61C48.3188 151.17 48.0988 149.59 48.0988 147.87V128.4H54.5488V147.87C54.5488 149.93 55.0188 151.53 55.9588 152.67C56.9188 153.81 58.3688 154.38 60.3087 154.38C61.7288 154.38 63.0488 154.06 64.2688 153.42C65.5088 152.76 66.6688 151.86 67.7488 150.72V128.4H74.1988ZM82.0316 159V128.4H85.9316C86.8116 128.4 87.3716 128.81 87.6116 129.63L88.0316 132.3C88.5916 131.66 89.1716 131.08 89.7716 130.56C90.3716 130.02 91.0116 129.56 91.6916 129.18C92.3916 128.78 93.1316 128.47 93.9116 128.25C94.7116 128.03 95.5716 127.92 96.4916 127.92C97.4716 127.92 98.3716 128.06 99.1916 128.34C100.012 128.62 100.732 129.02 101.352 129.54C101.992 130.06 102.542 130.69 103.002 131.43C103.462 132.17 103.842 133 104.142 133.92C104.602 132.86 105.182 131.95 105.882 131.19C106.582 130.43 107.362 129.81 108.222 129.33C109.082 128.85 109.992 128.5 110.952 128.28C111.932 128.04 112.922 127.92 113.922 127.92C115.562 127.92 117.022 128.18 118.302 128.7C119.602 129.22 120.692 129.98 121.572 130.98C122.472 131.96 123.152 133.17 123.612 134.61C124.072 136.05 124.302 137.69 124.302 139.53V159H117.852V139.53C117.852 137.37 117.382 135.75 116.442 134.67C115.522 133.57 114.152 133.02 112.332 133.02C111.512 133.02 110.742 133.16 110.022 133.44C109.302 133.72 108.672 134.13 108.132 134.67C107.592 135.21 107.162 135.89 106.842 136.71C106.542 137.51 106.392 138.45 106.392 139.53V159H99.9416V139.53C99.9416 137.29 99.4916 135.65 98.5916 134.61C97.6916 133.55 96.3716 133.02 94.6316 133.02C93.4316 133.02 92.3216 133.33 91.3016 133.95C90.2816 134.55 89.3416 135.38 88.4816 136.44V159H82.0316ZM138.286 151.32C139.186 152.48 140.166 153.3 141.226 153.78C142.306 154.24 143.476 154.47 144.736 154.47C147.276 154.47 149.256 153.55 150.676 151.71C152.096 149.87 152.806 147.02 152.806 143.16C152.806 139.64 152.186 137.07 150.946 135.45C149.726 133.83 147.976 133.02 145.696 133.02C144.116 133.02 142.736 133.38 141.556 134.1C140.396 134.8 139.306 135.81 138.286 137.13V151.32ZM138.286 132.45C139.546 131.07 140.956 129.97 142.516 129.15C144.076 128.33 145.856 127.92 147.856 127.92C149.636 127.92 151.236 128.27 152.656 128.97C154.096 129.65 155.316 130.64 156.316 131.94C157.316 133.24 158.086 134.82 158.626 136.68C159.166 138.52 159.436 140.6 159.436 142.92C159.436 145.4 159.126 147.66 158.506 149.7C157.906 151.72 157.036 153.46 155.896 154.92C154.756 156.36 153.376 157.48 151.756 158.28C150.136 159.06 148.326 159.45 146.326 159.45C145.346 159.45 144.456 159.35 143.656 159.15C142.856 158.97 142.116 158.7 141.436 158.34C140.756 157.98 140.126 157.55 139.546 157.05C138.986 156.55 138.446 155.98 137.926 155.34L137.656 157.71C137.556 158.17 137.376 158.5 137.116 158.7C136.856 158.9 136.496 159 136.036 159H131.836V114.6H138.286V132.45ZM185.773 140.25C185.773 139.17 185.613 138.17 185.293 137.25C184.993 136.31 184.543 135.5 183.943 134.82C183.343 134.12 182.593 133.58 181.693 133.2C180.813 132.8 179.793 132.6 178.633 132.6C176.293 132.6 174.453 133.27 173.113 134.61C171.773 135.95 170.923 137.83 170.563 140.25H185.773ZM170.383 144.21C170.463 145.95 170.733 147.46 171.193 148.74C171.653 150 172.263 151.05 173.023 151.89C173.803 152.73 174.723 153.36 175.783 153.78C176.863 154.18 178.063 154.38 179.383 154.38C180.643 154.38 181.733 154.24 182.653 153.96C183.573 153.66 184.373 153.34 185.053 153C185.733 152.64 186.313 152.32 186.793 152.04C187.273 151.74 187.713 151.59 188.113 151.59C188.633 151.59 189.033 151.79 189.313 152.19L191.143 154.56C190.383 155.46 189.523 156.22 188.563 156.84C187.603 157.46 186.583 157.97 185.503 158.37C184.423 158.75 183.313 159.02 182.173 159.18C181.033 159.36 179.923 159.45 178.843 159.45C176.723 159.45 174.753 159.1 172.933 158.4C171.133 157.68 169.563 156.63 168.223 155.25C166.903 153.87 165.863 152.16 165.103 150.12C164.363 148.08 163.993 145.73 163.993 143.07C163.993 140.95 164.323 138.97 164.983 137.13C165.663 135.29 166.623 133.69 167.863 132.33C169.123 130.97 170.643 129.9 172.423 129.12C174.223 128.32 176.253 127.92 178.513 127.92C180.393 127.92 182.133 128.23 183.733 128.85C185.333 129.45 186.713 130.34 187.873 131.52C189.033 132.7 189.933 134.15 190.573 135.87C191.233 137.57 191.563 139.51 191.563 141.69C191.563 142.69 191.453 143.36 191.233 143.7C191.013 144.04 190.613 144.21 190.033 144.21H170.383ZM203.668 134.07C204.628 132.13 205.788 130.61 207.148 129.51C208.508 128.39 210.138 127.83 212.038 127.83C212.698 127.83 213.318 127.91 213.898 128.07C214.478 128.21 214.998 128.43 215.458 128.73L215.008 133.59C214.928 133.93 214.798 134.17 214.618 134.31C214.458 134.43 214.238 134.49 213.958 134.49C213.658 134.49 213.228 134.44 212.668 134.34C212.108 134.22 211.518 134.16 210.898 134.16C209.998 134.16 209.198 134.29 208.498 134.55C207.818 134.81 207.198 135.19 206.638 135.69C206.098 136.19 205.618 136.8 205.198 137.52C204.778 138.24 204.388 139.06 204.028 139.98V159H197.578V128.4H201.328C202.008 128.4 202.478 128.53 202.738 128.79C202.998 129.03 203.178 129.46 203.278 130.08L203.668 134.07ZM236.12 153.45C237.7 153.45 239.03 153.27 240.11 152.91C241.21 152.53 242.1 152.02 242.78 151.38C243.48 150.74 243.98 149.99 244.28 149.13C244.6 148.25 244.76 147.31 244.76 146.31C244.76 144.27 244.06 142.67 242.66 141.51C241.28 140.33 239.09 139.74 236.09 139.74H227.42V153.45H236.12ZM227.42 121.29V134.79H234.44C237.44 134.79 239.68 134.21 241.16 133.05C242.64 131.89 243.38 130.22 243.38 128.04C243.38 125.66 242.68 123.94 241.28 122.88C239.9 121.82 237.73 121.29 234.77 121.29H227.42ZM234.77 115.8C237.53 115.8 239.89 116.07 241.85 116.61C243.81 117.13 245.42 117.88 246.68 118.86C247.94 119.84 248.86 121.04 249.44 122.46C250.04 123.86 250.34 125.44 250.34 127.2C250.34 128.22 250.18 129.21 249.86 130.17C249.56 131.11 249.08 132 248.42 132.84C247.78 133.66 246.97 134.4 245.99 135.06C245.01 135.72 243.85 136.27 242.51 136.71C248.63 138.01 251.69 141.26 251.69 146.46C251.69 148.3 251.34 149.99 250.64 151.53C249.96 153.05 248.96 154.37 247.64 155.49C246.34 156.59 244.73 157.45 242.81 158.07C240.89 158.69 238.7 159 236.24 159H220.4V115.8H234.77ZM264.383 114.6V159H257.933V114.6H264.383ZM285.574 127.92C287.834 127.92 289.874 128.29 291.694 129.03C293.534 129.77 295.094 130.82 296.374 132.18C297.674 133.54 298.674 135.19 299.374 137.13C300.074 139.07 300.424 141.25 300.424 143.67C300.424 146.09 300.074 148.27 299.374 150.21C298.674 152.15 297.674 153.81 296.374 155.19C295.094 156.55 293.534 157.6 291.694 158.34C289.874 159.08 287.834 159.45 285.574 159.45C283.294 159.45 281.234 159.08 279.394 158.34C277.574 157.6 276.014 156.55 274.714 155.19C273.414 153.81 272.414 152.15 271.714 150.21C271.014 148.27 270.664 146.09 270.664 143.67C270.664 141.25 271.014 139.07 271.714 137.13C272.414 135.19 273.414 133.54 274.714 132.18C276.014 130.82 277.574 129.77 279.394 129.03C281.234 128.29 283.294 127.92 285.574 127.92ZM285.574 154.41C288.334 154.41 290.384 153.49 291.724 151.65C293.084 149.79 293.764 147.14 293.764 143.7C293.764 140.26 293.084 137.61 291.724 135.75C290.384 133.87 288.334 132.93 285.574 132.93C282.774 132.93 280.694 133.87 279.334 135.75C277.974 137.61 277.294 140.26 277.294 143.7C277.294 147.14 277.974 149.79 279.334 151.65C280.694 153.49 282.774 154.41 285.574 154.41ZM328.251 134.4C328.051 134.66 327.861 134.86 327.681 135C327.501 135.14 327.241 135.21 326.901 135.21C326.561 135.21 326.201 135.09 325.821 134.85C325.461 134.61 325.021 134.35 324.501 134.07C324.001 133.77 323.391 133.5 322.671 133.26C321.951 133.02 321.051 132.9 319.971 132.9C318.571 132.9 317.341 133.15 316.281 133.65C315.241 134.15 314.361 134.87 313.641 135.81C312.941 136.73 312.411 137.86 312.051 139.2C311.711 140.52 311.541 142.01 311.541 143.67C311.541 145.39 311.731 146.92 312.111 148.26C312.491 149.6 313.031 150.73 313.731 151.65C314.451 152.57 315.311 153.27 316.311 153.75C317.331 154.23 318.471 154.47 319.731 154.47C320.971 154.47 321.981 154.32 322.761 154.02C323.541 153.72 324.191 153.39 324.711 153.03C325.231 152.67 325.671 152.34 326.031 152.04C326.411 151.74 326.811 151.59 327.231 151.59C327.751 151.59 328.151 151.79 328.431 152.19L330.261 154.56C329.521 155.46 328.701 156.22 327.801 156.84C326.901 157.46 325.951 157.97 324.951 158.37C323.951 158.75 322.911 159.02 321.831 159.18C320.751 159.36 319.661 159.45 318.561 159.45C316.661 159.45 314.881 159.1 313.221 158.4C311.581 157.68 310.141 156.65 308.901 155.31C307.681 153.95 306.711 152.3 305.991 150.36C305.291 148.4 304.941 146.17 304.941 143.67C304.941 141.41 305.261 139.32 305.901 137.4C306.541 135.46 307.471 133.79 308.691 132.39C309.931 130.99 311.461 129.9 313.281 129.12C315.101 128.32 317.201 127.92 319.581 127.92C321.801 127.92 323.751 128.28 325.431 129C327.131 129.72 328.641 130.74 329.961 132.06L328.251 134.4ZM341.9 114.6V140.34H343.28C343.72 140.34 344.08 140.28 344.36 140.16C344.64 140.04 344.93 139.79 345.23 139.41L353.81 129.6C354.11 129.2 354.44 128.9 354.8 128.7C355.16 128.5 355.62 128.4 356.18 128.4H362.03L351.71 140.04C351.11 140.82 350.45 141.44 349.73 141.9C350.13 142.18 350.48 142.5 350.78 142.86C351.08 143.2 351.37 143.59 351.65 144.03L362.66 159H356.9C356.38 159 355.93 158.92 355.55 158.76C355.19 158.58 354.87 158.26 354.59 157.8L345.74 145.8C345.44 145.34 345.14 145.05 344.84 144.93C344.54 144.79 344.09 144.72 343.49 144.72H341.9V159H335.45V114.6H341.9ZM385.067 133.95C384.907 134.23 384.727 134.43 384.527 134.55C384.327 134.67 384.077 134.73 383.777 134.73C383.437 134.73 383.067 134.63 382.667 134.43C382.267 134.21 381.797 133.97 381.257 133.71C380.717 133.45 380.077 133.22 379.337 133.02C378.617 132.8 377.767 132.69 376.787 132.69C375.987 132.69 375.257 132.79 374.597 132.99C373.957 133.17 373.407 133.44 372.947 133.8C372.507 134.14 372.167 134.55 371.927 135.03C371.687 135.49 371.567 135.99 371.567 136.53C371.567 137.25 371.787 137.85 372.227 138.33C372.667 138.81 373.247 139.23 373.967 139.59C374.687 139.93 375.507 140.24 376.427 140.52C377.347 140.8 378.287 141.1 379.247 141.42C380.207 141.74 381.147 142.11 382.067 142.53C382.987 142.95 383.807 143.47 384.527 144.09C385.247 144.69 385.827 145.43 386.267 146.31C386.707 147.17 386.927 148.22 386.927 149.46C386.927 150.9 386.667 152.23 386.147 153.45C385.627 154.67 384.867 155.73 383.867 156.63C382.867 157.53 381.617 158.23 380.117 158.73C378.637 159.23 376.937 159.48 375.017 159.48C373.957 159.48 372.927 159.38 371.927 159.18C370.947 159 370.007 158.75 369.107 158.43C368.227 158.09 367.397 157.69 366.617 157.23C365.857 156.77 365.177 156.27 364.577 155.73L366.077 153.27C366.257 152.97 366.477 152.74 366.737 152.58C367.017 152.4 367.357 152.31 367.757 152.31C368.177 152.31 368.587 152.45 368.987 152.73C369.407 152.99 369.887 153.28 370.427 153.6C370.987 153.92 371.657 154.22 372.437 154.5C373.217 154.76 374.187 154.89 375.347 154.89C376.307 154.89 377.137 154.78 377.837 154.56C378.537 154.32 379.117 154 379.577 153.6C380.037 153.2 380.377 152.75 380.597 152.25C380.817 151.73 380.927 151.18 380.927 150.6C380.927 149.82 380.707 149.18 380.267 148.68C379.827 148.18 379.237 147.75 378.497 147.39C377.777 147.03 376.947 146.71 376.007 146.43C375.087 146.15 374.147 145.85 373.187 145.53C372.227 145.21 371.277 144.84 370.337 144.42C369.417 144 368.587 143.47 367.847 142.83C367.127 142.17 366.547 141.38 366.107 140.46C365.667 139.52 365.447 138.38 365.447 137.04C365.447 135.82 365.687 134.66 366.167 133.56C366.667 132.46 367.387 131.49 368.327 130.65C369.287 129.81 370.457 129.15 371.837 128.67C373.237 128.17 374.847 127.92 376.667 127.92C378.727 127.92 380.597 128.25 382.277 128.91C383.957 129.57 385.367 130.47 386.507 131.61L385.067 133.95ZM400.399 115.8V132.96C400.399 134.76 400.319 136.53 400.159 138.27C399.999 139.99 399.789 141.85 399.529 143.85H395.179C394.899 141.85 394.679 139.99 394.519 138.27C394.379 136.53 394.309 134.76 394.309 132.96V115.8H400.399ZM393.079 155.28C393.079 154.7 393.179 154.16 393.379 153.66C393.599 153.14 393.899 152.69 394.279 152.31C394.659 151.93 395.099 151.63 395.599 151.41C396.099 151.19 396.649 151.08 397.249 151.08C397.829 151.08 398.369 151.19 398.869 151.41C399.389 151.63 399.829 151.93 400.189 152.31C400.569 152.69 400.869 153.14 401.089 153.66C401.309 154.16 401.419 154.7 401.419 155.28C401.419 155.88 401.309 156.43 401.089 156.93C400.869 157.43 400.569 157.87 400.189 158.25C399.829 158.63 399.389 158.92 398.869 159.12C398.369 159.34 397.829 159.45 397.249 159.45C396.649 159.45 396.099 159.34 395.599 159.12C395.099 158.92 394.659 158.63 394.279 158.25C393.899 157.87 393.599 157.43 393.379 156.93C393.179 156.43 393.079 155.88 393.079 155.28Z" fill="white"/>
</svg>
