<svg width="60" height="35" viewBox="0 0 60 35" fill="none" xmlns="http://www.w3.org/2000/svg">
<path d="M53.6708 15.8305C30.9393 9.3882 32.9419 0.275138 17.6449 0.00148556C2.34791 -0.272167 -11.2665 37.3552 14.179 34.7687C57.0523 36.0651 67.1258 32.3701 53.6708 15.8305Z" fill="url(#paint0_radial_69_25)"/>
<path d="M53.6708 15.8305C30.9393 9.3882 32.9419 0.275138 17.6449 0.00148556C2.34791 -0.272167 -11.2665 37.3552 14.179 34.7687C57.0523 36.0651 67.1258 32.3701 53.6708 15.8305Z" fill="url(#paint1_radial_69_25)"/>
<path d="M53.6708 15.8305C30.9393 9.3882 32.9419 0.275138 17.6449 0.00148556C2.34791 -0.272167 -11.2665 37.3552 14.179 34.7687C57.0523 36.0651 67.1258 32.3701 53.6708 15.8305Z" fill="url(#paint2_linear_69_25)"/>
<path d="M53.6708 15.8305C30.9393 9.3882 32.9419 0.275138 17.6449 0.00148556C2.34791 -0.272167 -11.2665 37.3552 14.179 34.7687C57.0523 36.0651 67.1258 32.3701 53.6708 15.8305Z" fill="url(#paint3_radial_69_25)"/>
<path d="M53.6708 15.8305C30.9393 9.3882 32.9419 0.275138 17.6449 0.00148556C2.34791 -0.272167 -11.2665 37.3552 14.179 34.7687C57.0523 36.0651 67.1258 32.3701 53.6708 15.8305Z" fill="url(#paint4_radial_69_25)"/>
<path d="M53.6708 15.8305C30.9393 9.3882 32.9419 0.275138 17.6449 0.00148556C2.34791 -0.272167 -11.2665 37.3552 14.179 34.7687C57.0523 36.0651 67.1258 32.3701 53.6708 15.8305Z" fill="url(#paint5_linear_69_25)"/>
<path d="M53.6708 15.8305C30.9393 9.3882 40.3823 12.0261 45.5312 22.9186C50.6801 33.8112 27.7787 35.1472 36.6755 34.7849C52.8795 34.125 67.1258 32.3701 53.6708 15.8305Z" fill="url(#paint6_radial_69_25)"/>
<path d="M53.6708 15.8305C30.9393 9.3882 40.3823 12.0261 45.5312 22.9186C50.6801 33.8112 27.7787 35.1472 36.6755 34.7849C52.8795 34.125 67.1258 32.3701 53.6708 15.8305Z" fill="url(#paint7_radial_69_25)"/>
<path d="M53.6708 15.8305C30.9393 9.3882 40.3823 12.0261 45.5312 22.9186C50.6801 33.8112 27.7787 35.1472 36.6755 34.7849C52.8795 34.125 67.1258 32.3701 53.6708 15.8305Z" fill="url(#paint8_linear_69_25)"/>
<path d="M53.6708 15.8305C30.9393 9.3882 40.3823 12.0261 45.5312 22.9186C50.6801 33.8112 27.7787 35.1472 36.6755 34.7849C52.8795 34.125 67.1258 32.3701 53.6708 15.8305Z" fill="url(#paint9_radial_69_25)"/>
<path d="M53.6708 15.8305C30.9393 9.3882 40.3823 12.0261 45.5312 22.9186C50.6801 33.8112 27.7787 35.1472 36.6755 34.7849C52.8795 34.125 67.1258 32.3701 53.6708 15.8305Z" fill="url(#paint10_radial_69_25)"/>
<path d="M53.6708 15.8305C30.9393 9.3882 40.3823 12.0261 45.5312 22.9186C50.6801 33.8112 27.7787 35.1472 36.6755 34.7849C52.8795 34.125 67.1258 32.3701 53.6708 15.8305Z" fill="url(#paint11_linear_69_25)"/>
<defs>
<radialGradient id="paint0_radial_69_25" cx="0" cy="0" r="1" gradientUnits="userSpaceOnUse" gradientTransform="translate(50.5646 7.29297) rotate(152.805) scale(55.1671 110.55)">
<stop offset="0.105" stop-color="#C4C4C4"/>
<stop offset="0.845" stop-color="#5E5E5E"/>
</radialGradient>
<radialGradient id="paint1_radial_69_25" cx="0" cy="0" r="1" gradientUnits="userSpaceOnUse" gradientTransform="translate(38.5966 12.919) rotate(-79.8245) scale(16.936 38.4598)">
<stop stop-color="white" stop-opacity="0.64"/>
<stop offset="0.565" stop-color="white" stop-opacity="0"/>
</radialGradient>
<linearGradient id="paint2_linear_69_25" x1="45.9395" y1="21.728" x2="46.6031" y2="32.736" gradientUnits="userSpaceOnUse">
<stop offset="0.815" stop-opacity="0"/>
<stop offset="1" stop-opacity="0.12"/>
</linearGradient>
<radialGradient id="paint3_radial_69_25" cx="0" cy="0" r="1" gradientUnits="userSpaceOnUse" gradientTransform="translate(50.5646 7.29297) rotate(152.805) scale(55.1671 110.55)">
<stop offset="0.105" stop-color="#C4C4C4"/>
<stop offset="0.845" stop-color="#5E5E5E"/>
</radialGradient>
<radialGradient id="paint4_radial_69_25" cx="0" cy="0" r="1" gradientUnits="userSpaceOnUse" gradientTransform="translate(38.5966 12.919) rotate(-79.8245) scale(16.936 38.4598)">
<stop stop-color="white" stop-opacity="0.64"/>
<stop offset="0.565" stop-color="white" stop-opacity="0"/>
</radialGradient>
<linearGradient id="paint5_linear_69_25" x1="45.9395" y1="21.728" x2="46.6031" y2="32.736" gradientUnits="userSpaceOnUse">
<stop offset="0.815" stop-opacity="0"/>
<stop offset="1" stop-opacity="0.12"/>
</linearGradient>
<radialGradient id="paint6_radial_69_25" cx="0" cy="0" r="1" gradientUnits="userSpaceOnUse" gradientTransform="translate(50.5646 7.29297) rotate(152.805) scale(55.1671 110.55)">
<stop offset="0.105" stop-color="#C4C4C4"/>
<stop offset="0.845" stop-color="#5E5E5E"/>
</radialGradient>
<radialGradient id="paint7_radial_69_25" cx="0" cy="0" r="1" gradientUnits="userSpaceOnUse" gradientTransform="translate(38.5966 12.919) rotate(-79.8245) scale(16.936 38.4598)">
<stop stop-color="white" stop-opacity="0.64"/>
<stop offset="0.565" stop-color="white" stop-opacity="0"/>
</radialGradient>
<linearGradient id="paint8_linear_69_25" x1="45.9395" y1="21.728" x2="46.6031" y2="32.736" gradientUnits="userSpaceOnUse">
<stop offset="0.815" stop-opacity="0"/>
<stop offset="1" stop-opacity="0.12"/>
</linearGradient>
<radialGradient id="paint9_radial_69_25" cx="0" cy="0" r="1" gradientUnits="userSpaceOnUse" gradientTransform="translate(50.5646 7.29297) rotate(152.805) scale(55.1671 110.55)">
<stop offset="0.105" stop-color="#C4C4C4"/>
<stop offset="0.845" stop-color="#5E5E5E"/>
</radialGradient>
<radialGradient id="paint10_radial_69_25" cx="0" cy="0" r="1" gradientUnits="userSpaceOnUse" gradientTransform="translate(38.5966 12.919) rotate(-79.8245) scale(16.936 38.4598)">
<stop stop-color="white" stop-opacity="0.64"/>
<stop offset="0.565" stop-color="white" stop-opacity="0"/>
</radialGradient>
<linearGradient id="paint11_linear_69_25" x1="45.9395" y1="21.728" x2="46.6031" y2="32.736" gradientUnits="userSpaceOnUse">
<stop offset="0.815" stop-opacity="0"/>
<stop offset="1" stop-opacity="0.12"/>
</linearGradient>
</defs>
</svg>
