<svg width="656" height="274" viewBox="0 0 656 274" fill="none" xmlns="http://www.w3.org/2000/svg">
<path d="M5.83 55.17V39.06C5.83 38.16 5.85 37.28 5.89 36.42C5.93 35.54 5.99 34.66 6.07 33.78C6.15 32.88 6.24 31.97 6.34 31.05C6.46 30.13 6.58 29.17 6.7 28.17H11.05C11.19 29.17 11.31 30.13 11.41 31.05C11.51 31.97 11.6 32.88 11.68 33.78C11.76 34.66 11.82 35.54 11.86 36.42C11.9 37.28 11.92 38.16 11.92 39.06V55.17H5.83ZM4.63 18.09C4.63 17.49 4.73 16.94 4.93 16.44C5.15 15.94 5.44 15.5 5.8 15.12C6.18 14.74 6.62 14.45 7.12 14.25C7.64 14.03 8.19 13.92 8.77 13.92C9.35 13.92 9.89 14.03 10.39 14.25C10.91 14.45 11.36 14.74 11.74 15.12C12.12 15.5 12.42 15.94 12.64 16.44C12.86 16.94 12.97 17.49 12.97 18.09C12.97 18.67 12.86 19.22 12.64 19.74C12.42 20.24 12.12 20.68 11.74 21.06C11.36 21.44 10.91 21.74 10.39 21.96C9.89 22.18 9.35 22.29 8.77 22.29C8.19 22.29 7.64 22.18 7.12 21.96C6.62 21.74 6.18 21.44 5.8 21.06C5.44 20.68 5.15 20.24 4.93 19.74C4.73 19.22 4.63 18.67 4.63 18.09ZM48.8031 39.33L48.7731 45H21.8331V1.8H48.7731V7.47H28.8831V20.49H44.7831V25.98H28.8831V39.33H48.8031ZM81.4834 45H75.3034C74.8034 45 74.4034 44.87 74.1034 44.61C73.8234 44.35 73.5934 44.06 73.4134 43.74L66.3634 32.43C66.1834 33.11 65.9434 33.7 65.6434 34.2L59.2534 43.74C59.0334 44.06 58.7834 44.35 58.5034 44.61C58.2434 44.87 57.8934 45 57.4534 45H51.6934L62.2834 29.22L52.1134 14.4H58.2934C58.7934 14.4 59.1534 14.48 59.3734 14.64C59.6134 14.78 59.8234 15 60.0034 15.3L66.9334 26.1C67.1134 25.44 67.3934 24.81 67.7734 24.21L73.6234 15.42C74.0234 14.74 74.5334 14.4 75.1534 14.4H81.0634L70.8934 28.95L81.4834 45ZM92.298 37.32C93.198 38.48 94.178 39.3 95.238 39.78C96.318 40.24 97.508 40.47 98.808 40.47C101.328 40.47 103.288 39.55 104.688 37.71C106.108 35.87 106.818 33.13 106.818 29.49C106.818 27.61 106.658 26.01 106.338 24.69C106.018 23.35 105.558 22.26 104.958 21.42C104.358 20.58 103.628 19.97 102.768 19.59C101.908 19.21 100.938 19.02 99.858 19.02C98.218 19.02 96.798 19.38 95.598 20.1C94.418 20.8 93.318 21.81 92.298 23.13V37.32ZM91.968 18.84C93.248 17.34 94.698 16.13 96.318 15.21C97.958 14.29 99.858 13.83 102.018 13.83C103.738 13.83 105.298 14.18 106.698 14.88C108.098 15.56 109.298 16.56 110.298 17.88C111.298 19.2 112.068 20.84 112.608 22.8C113.168 24.74 113.448 26.97 113.448 29.49C113.448 31.75 113.138 33.86 112.518 35.82C111.918 37.76 111.048 39.45 109.908 40.89C108.768 42.31 107.388 43.43 105.768 44.25C104.148 45.05 102.318 45.45 100.278 45.45C98.478 45.45 96.948 45.16 95.688 44.58C94.448 44 93.318 43.2 92.298 42.18V55.17H85.848V14.4H89.748C90.628 14.4 91.188 14.81 91.428 15.63L91.968 18.84ZM139.785 26.25C139.785 25.17 139.625 24.17 139.305 23.25C139.005 22.31 138.555 21.5 137.955 20.82C137.355 20.12 136.605 19.58 135.705 19.2C134.825 18.8 133.805 18.6 132.645 18.6C130.305 18.6 128.465 19.27 127.125 20.61C125.785 21.95 124.935 23.83 124.575 26.25H139.785ZM124.395 30.21C124.475 31.95 124.745 33.46 125.205 34.74C125.665 36 126.275 37.05 127.035 37.89C127.815 38.73 128.735 39.36 129.795 39.78C130.875 40.18 132.075 40.38 133.395 40.38C134.655 40.38 135.745 40.24 136.665 39.96C137.585 39.66 138.385 39.34 139.065 39C139.745 38.64 140.325 38.32 140.805 38.04C141.285 37.74 141.725 37.59 142.125 37.59C142.645 37.59 143.045 37.79 143.325 38.19L145.155 40.56C144.395 41.46 143.535 42.22 142.575 42.84C141.615 43.46 140.595 43.97 139.515 44.37C138.435 44.75 137.325 45.02 136.185 45.18C135.045 45.36 133.935 45.45 132.855 45.45C130.735 45.45 128.765 45.1 126.945 44.4C125.145 43.68 123.575 42.63 122.235 41.25C120.915 39.87 119.875 38.16 119.115 36.12C118.375 34.08 118.005 31.73 118.005 29.07C118.005 26.95 118.335 24.97 118.995 23.13C119.675 21.29 120.635 19.69 121.875 18.33C123.135 16.97 124.655 15.9 126.435 15.12C128.235 14.32 130.265 13.92 132.525 13.92C134.405 13.92 136.145 14.23 137.745 14.85C139.345 15.45 140.725 16.34 141.885 17.52C143.045 18.7 143.945 20.15 144.585 21.87C145.245 23.57 145.575 25.51 145.575 27.69C145.575 28.69 145.465 29.36 145.245 29.7C145.025 30.04 144.625 30.21 144.045 30.21H124.395ZM157.68 20.07C158.64 18.13 159.8 16.61 161.16 15.51C162.52 14.39 164.15 13.83 166.05 13.83C166.71 13.83 167.33 13.91 167.91 14.07C168.49 14.21 169.01 14.43 169.47 14.73L169.02 19.59C168.94 19.93 168.81 20.17 168.63 20.31C168.47 20.43 168.25 20.49 167.97 20.49C167.67 20.49 167.24 20.44 166.68 20.34C166.12 20.22 165.53 20.16 164.91 20.16C164.01 20.16 163.21 20.29 162.51 20.55C161.83 20.81 161.21 21.19 160.65 21.69C160.11 22.19 159.63 22.8 159.21 23.52C158.79 24.24 158.4 25.06 158.04 25.98V45H151.59V14.4H155.34C156.02 14.4 156.49 14.53 156.75 14.79C157.01 15.03 157.19 15.46 157.29 16.08L157.68 20.07ZM180.459 14.4V45H174.009V14.4H180.459ZM181.539 5.16C181.539 5.74 181.419 6.29 181.179 6.81C180.959 7.33 180.649 7.79 180.249 8.19C179.849 8.57 179.379 8.88 178.839 9.12C178.319 9.34 177.759 9.45 177.159 9.45C176.579 9.45 176.029 9.34 175.509 9.12C175.009 8.88 174.569 8.57 174.189 8.19C173.809 7.79 173.499 7.33 173.259 6.81C173.039 6.29 172.929 5.74 172.929 5.16C172.929 4.56 173.039 4 173.259 3.48C173.499 2.96 173.809 2.51 174.189 2.13C174.569 1.73 175.009 1.42 175.509 1.2C176.029 0.959997 176.579 0.839996 177.159 0.839996C177.759 0.839996 178.319 0.959997 178.839 1.2C179.379 1.42 179.849 1.73 180.249 2.13C180.649 2.51 180.959 2.96 181.179 3.48C181.419 4 181.539 4.56 181.539 5.16ZM188.563 45V14.4H192.463C193.343 14.4 193.903 14.81 194.143 15.63L194.563 18.3C195.123 17.66 195.703 17.08 196.303 16.56C196.903 16.02 197.543 15.56 198.223 15.18C198.923 14.78 199.663 14.47 200.443 14.25C201.243 14.03 202.103 13.92 203.023 13.92C204.003 13.92 204.903 14.06 205.723 14.34C206.543 14.62 207.263 15.02 207.883 15.54C208.523 16.06 209.073 16.69 209.533 17.43C209.993 18.17 210.373 19 210.673 19.92C211.133 18.86 211.713 17.95 212.413 17.19C213.113 16.43 213.893 15.81 214.753 15.33C215.613 14.85 216.523 14.5 217.483 14.28C218.463 14.04 219.453 13.92 220.453 13.92C222.093 13.92 223.553 14.18 224.833 14.7C226.133 15.22 227.223 15.98 228.103 16.98C229.003 17.96 229.683 19.17 230.143 20.61C230.603 22.05 230.833 23.69 230.833 25.53V45H224.383V25.53C224.383 23.37 223.913 21.75 222.973 20.67C222.053 19.57 220.683 19.02 218.863 19.02C218.043 19.02 217.273 19.16 216.553 19.44C215.833 19.72 215.203 20.13 214.663 20.67C214.123 21.21 213.693 21.89 213.373 22.71C213.073 23.51 212.923 24.45 212.923 25.53V45H206.473V25.53C206.473 23.29 206.023 21.65 205.123 20.61C204.223 19.55 202.903 19.02 201.163 19.02C199.963 19.02 198.853 19.33 197.833 19.95C196.813 20.55 195.873 21.38 195.013 22.44V45H188.563ZM258.438 26.25C258.438 25.17 258.278 24.17 257.958 23.25C257.658 22.31 257.208 21.5 256.608 20.82C256.008 20.12 255.258 19.58 254.358 19.2C253.478 18.8 252.458 18.6 251.298 18.6C248.958 18.6 247.118 19.27 245.778 20.61C244.438 21.95 243.588 23.83 243.228 26.25H258.438ZM243.048 30.21C243.128 31.95 243.398 33.46 243.858 34.74C244.318 36 244.928 37.05 245.688 37.89C246.468 38.73 247.388 39.36 248.448 39.78C249.528 40.18 250.728 40.38 252.048 40.38C253.308 40.38 254.398 40.24 255.318 39.96C256.238 39.66 257.038 39.34 257.718 39C258.398 38.64 258.978 38.32 259.458 38.04C259.938 37.74 260.378 37.59 260.778 37.59C261.298 37.59 261.698 37.79 261.978 38.19L263.808 40.56C263.048 41.46 262.188 42.22 261.228 42.84C260.268 43.46 259.248 43.97 258.168 44.37C257.088 44.75 255.978 45.02 254.838 45.18C253.698 45.36 252.588 45.45 251.508 45.45C249.388 45.45 247.418 45.1 245.598 44.4C243.798 43.68 242.228 42.63 240.888 41.25C239.568 39.87 238.528 38.16 237.768 36.12C237.028 34.08 236.658 31.73 236.658 29.07C236.658 26.95 236.988 24.97 237.648 23.13C238.328 21.29 239.288 19.69 240.528 18.33C241.788 16.97 243.308 15.9 245.088 15.12C246.888 14.32 248.918 13.92 251.178 13.92C253.058 13.92 254.798 14.23 256.398 14.85C257.998 15.45 259.378 16.34 260.538 17.52C261.698 18.7 262.598 20.15 263.238 21.87C263.898 23.57 264.228 25.51 264.228 27.69C264.228 28.69 264.118 29.36 263.898 29.7C263.678 30.04 263.278 30.21 262.698 30.21H243.048ZM276.273 18.45C276.933 17.77 277.613 17.16 278.313 16.62C279.033 16.06 279.793 15.58 280.593 15.18C281.393 14.78 282.243 14.47 283.143 14.25C284.043 14.03 285.023 13.92 286.083 13.92C287.763 13.92 289.233 14.2 290.493 14.76C291.773 15.32 292.843 16.11 293.703 17.13C294.583 18.15 295.243 19.38 295.683 20.82C296.123 22.24 296.343 23.81 296.343 25.53V45H289.923V25.53C289.923 23.47 289.443 21.87 288.483 20.73C287.543 19.59 286.103 19.02 284.163 19.02C282.723 19.02 281.383 19.35 280.143 20.01C278.923 20.67 277.773 21.57 276.693 22.71V45H270.243V14.4H274.143C275.023 14.4 275.583 14.81 275.823 15.63L276.273 18.45ZM313.275 45.48C310.735 45.48 308.775 44.77 307.395 43.35C306.035 41.91 305.355 39.89 305.355 37.29V19.47H301.995C301.635 19.47 301.325 19.36 301.065 19.14C300.805 18.9 300.675 18.55 300.675 18.09V15.48L305.625 14.76L307.035 5.91C307.135 5.57 307.305 5.3 307.545 5.1C307.785 4.88 308.105 4.77 308.505 4.77H311.805V14.82H320.295V19.47H311.805V36.84C311.805 37.94 312.075 38.78 312.615 39.36C313.155 39.94 313.875 40.23 314.775 40.23C315.275 40.23 315.705 40.17 316.065 40.05C316.425 39.91 316.735 39.77 316.995 39.63C317.255 39.47 317.475 39.33 317.655 39.21C317.855 39.07 318.045 39 318.225 39C318.585 39 318.875 39.2 319.095 39.6L321.015 42.75C320.015 43.63 318.835 44.31 317.475 44.79C316.115 45.25 314.715 45.48 313.275 45.48ZM341.729 31.62C339.429 31.7 337.489 31.89 335.909 32.19C334.329 32.47 333.049 32.84 332.069 33.3C331.089 33.74 330.379 34.27 329.939 34.89C329.519 35.51 329.309 36.19 329.309 36.93C329.309 37.65 329.419 38.27 329.639 38.79C329.879 39.29 330.199 39.71 330.599 40.05C331.019 40.37 331.499 40.61 332.039 40.77C332.599 40.91 333.209 40.98 333.869 40.98C335.549 40.98 336.989 40.67 338.189 40.05C339.409 39.41 340.589 38.49 341.729 37.29V31.62ZM324.629 18.66C328.089 15.44 332.209 13.83 336.989 13.83C338.749 13.83 340.309 14.12 341.669 14.7C343.049 15.26 344.199 16.06 345.119 17.1C346.059 18.14 346.769 19.38 347.249 20.82C347.749 22.24 347.999 23.82 347.999 25.56V45H345.119C344.499 45 344.029 44.91 343.709 44.73C343.389 44.53 343.119 44.14 342.899 43.56L342.269 41.07C341.489 41.77 340.719 42.4 339.959 42.96C339.199 43.5 338.409 43.96 337.589 44.34C336.789 44.72 335.919 45 334.979 45.18C334.059 45.38 333.039 45.48 331.919 45.48C330.679 45.48 329.519 45.31 328.439 44.97C327.379 44.63 326.459 44.12 325.679 43.44C324.899 42.74 324.279 41.88 323.819 40.86C323.379 39.84 323.159 38.64 323.159 37.26C323.159 36.08 323.469 34.93 324.089 33.81C324.729 32.69 325.769 31.69 327.209 30.81C328.669 29.91 330.579 29.17 332.939 28.59C335.319 28.01 338.249 27.68 341.729 27.6V25.56C341.729 23.36 341.259 21.72 340.319 20.64C339.379 19.56 337.999 19.02 336.179 19.02C334.939 19.02 333.899 19.18 333.059 19.5C332.219 19.8 331.489 20.13 330.869 20.49C330.249 20.85 329.699 21.19 329.219 21.51C328.739 21.81 328.229 21.96 327.689 21.96C327.249 21.96 326.869 21.85 326.549 21.63C326.249 21.39 325.999 21.1 325.799 20.76L324.629 18.66ZM398.666 39.33L398.636 45H371.696V1.8H398.636V7.47H378.746V20.49H394.646V25.98H378.746V39.33H398.666ZM405.965 45V19.53L402.965 19.11C402.465 19.01 402.055 18.83 401.735 18.57C401.435 18.31 401.285 17.94 401.285 17.46V14.82H405.965V12.24C405.965 10.5 406.215 8.94 406.715 7.56C407.235 6.18 407.965 5.01 408.905 4.05C409.865 3.09 411.025 2.36 412.385 1.86C413.745 1.34 415.275 1.08 416.975 1.08C417.675 1.08 418.335 1.13 418.955 1.23C419.595 1.33 420.215 1.48 420.815 1.68L420.695 4.92C420.655 5.46 420.385 5.78 419.885 5.88C419.405 5.98 418.795 6.03 418.055 6.03C417.155 6.03 416.345 6.14 415.625 6.36C414.905 6.56 414.285 6.91 413.765 7.41C413.265 7.91 412.875 8.57 412.595 9.39C412.335 10.21 412.205 11.23 412.205 12.45V14.82H420.575V19.47H412.415V45H405.965ZM444.355 26.25C444.355 25.17 444.195 24.17 443.875 23.25C443.575 22.31 443.125 21.5 442.525 20.82C441.925 20.12 441.175 19.58 440.275 19.2C439.395 18.8 438.375 18.6 437.215 18.6C434.875 18.6 433.035 19.27 431.695 20.61C430.355 21.95 429.505 23.83 429.145 26.25H444.355ZM428.965 30.21C429.045 31.95 429.315 33.46 429.775 34.74C430.235 36 430.845 37.05 431.605 37.89C432.385 38.73 433.305 39.36 434.365 39.78C435.445 40.18 436.645 40.38 437.965 40.38C439.225 40.38 440.315 40.24 441.235 39.96C442.155 39.66 442.955 39.34 443.635 39C444.315 38.64 444.895 38.32 445.375 38.04C445.855 37.74 446.295 37.59 446.695 37.59C447.215 37.59 447.615 37.79 447.895 38.19L449.725 40.56C448.965 41.46 448.105 42.22 447.145 42.84C446.185 43.46 445.165 43.97 444.085 44.37C443.005 44.75 441.895 45.02 440.755 45.18C439.615 45.36 438.505 45.45 437.425 45.45C435.305 45.45 433.335 45.1 431.515 44.4C429.715 43.68 428.145 42.63 426.805 41.25C425.485 39.87 424.445 38.16 423.685 36.12C422.945 34.08 422.575 31.73 422.575 29.07C422.575 26.95 422.905 24.97 423.565 23.13C424.245 21.29 425.205 19.69 426.445 18.33C427.705 16.97 429.225 15.9 431.005 15.12C432.805 14.32 434.835 13.92 437.095 13.92C438.975 13.92 440.715 14.23 442.315 14.85C443.915 15.45 445.295 16.34 446.455 17.52C447.615 18.7 448.515 20.15 449.155 21.87C449.815 23.57 450.145 25.51 450.145 27.69C450.145 28.69 450.035 29.36 449.815 29.7C449.595 30.04 449.195 30.21 448.615 30.21H428.965ZM477.79 20.4C477.59 20.66 477.4 20.86 477.22 21C477.04 21.14 476.78 21.21 476.44 21.21C476.1 21.21 475.74 21.09 475.36 20.85C475 20.61 474.56 20.35 474.04 20.07C473.54 19.77 472.93 19.5 472.21 19.26C471.49 19.02 470.59 18.9 469.51 18.9C468.11 18.9 466.88 19.15 465.82 19.65C464.78 20.15 463.9 20.87 463.18 21.81C462.48 22.73 461.95 23.86 461.59 25.2C461.25 26.52 461.08 28.01 461.08 29.67C461.08 31.39 461.27 32.92 461.65 34.26C462.03 35.6 462.57 36.73 463.27 37.65C463.99 38.57 464.85 39.27 465.85 39.75C466.87 40.23 468.01 40.47 469.27 40.47C470.51 40.47 471.52 40.32 472.3 40.02C473.08 39.72 473.73 39.39 474.25 39.03C474.77 38.67 475.21 38.34 475.57 38.04C475.95 37.74 476.35 37.59 476.77 37.59C477.29 37.59 477.69 37.79 477.97 38.19L479.8 40.56C479.06 41.46 478.24 42.22 477.34 42.84C476.44 43.46 475.49 43.97 474.49 44.37C473.49 44.75 472.45 45.02 471.37 45.18C470.29 45.36 469.2 45.45 468.1 45.45C466.2 45.45 464.42 45.1 462.76 44.4C461.12 43.68 459.68 42.65 458.44 41.31C457.22 39.95 456.25 38.3 455.53 36.36C454.83 34.4 454.48 32.17 454.48 29.67C454.48 27.41 454.8 25.32 455.44 23.4C456.08 21.46 457.01 19.79 458.23 18.39C459.47 16.99 461 15.9 462.82 15.12C464.64 14.32 466.74 13.92 469.12 13.92C471.34 13.92 473.29 14.28 474.97 15C476.67 15.72 478.18 16.74 479.5 18.06L477.79 20.4ZM494.799 45.48C492.259 45.48 490.299 44.77 488.919 43.35C487.559 41.91 486.879 39.89 486.879 37.29V19.47H483.519C483.159 19.47 482.849 19.36 482.589 19.14C482.329 18.9 482.199 18.55 482.199 18.09V15.48L487.149 14.76L488.559 5.91C488.659 5.57 488.829 5.3 489.069 5.1C489.309 4.88 489.629 4.77 490.029 4.77H493.329V14.82H501.819V19.47H493.329V36.84C493.329 37.94 493.599 38.78 494.139 39.36C494.679 39.94 495.399 40.23 496.299 40.23C496.799 40.23 497.229 40.17 497.589 40.05C497.949 39.91 498.259 39.77 498.519 39.63C498.779 39.47 498.999 39.33 499.179 39.21C499.379 39.07 499.569 39 499.749 39C500.109 39 500.399 39.2 500.619 39.6L502.539 42.75C501.539 43.63 500.359 44.31 498.999 44.79C497.639 45.25 496.239 45.48 494.799 45.48ZM519.898 13.92C522.158 13.92 524.198 14.29 526.018 15.03C527.858 15.77 529.418 16.82 530.698 18.18C531.998 19.54 532.998 21.19 533.698 23.13C534.398 25.07 534.748 27.25 534.748 29.67C534.748 32.09 534.398 34.27 533.698 36.21C532.998 38.15 531.998 39.81 530.698 41.19C529.418 42.55 527.858 43.6 526.018 44.34C524.198 45.08 522.158 45.45 519.898 45.45C517.618 45.45 515.558 45.08 513.718 44.34C511.898 43.6 510.338 42.55 509.038 41.19C507.738 39.81 506.738 38.15 506.038 36.21C505.338 34.27 504.988 32.09 504.988 29.67C504.988 27.25 505.338 25.07 506.038 23.13C506.738 21.19 507.738 19.54 509.038 18.18C510.338 16.82 511.898 15.77 513.718 15.03C515.558 14.29 517.618 13.92 519.898 13.92ZM519.898 40.41C522.658 40.41 524.708 39.49 526.048 37.65C527.408 35.79 528.088 33.14 528.088 29.7C528.088 26.26 527.408 23.61 526.048 21.75C524.708 19.87 522.658 18.93 519.898 18.93C517.098 18.93 515.018 19.87 513.658 21.75C512.298 23.61 511.618 26.26 511.618 29.7C511.618 33.14 512.298 35.79 513.658 37.65C515.018 39.49 517.098 40.41 519.898 40.41ZM559.216 19.95C559.056 20.23 558.876 20.43 558.676 20.55C558.476 20.67 558.226 20.73 557.926 20.73C557.586 20.73 557.216 20.63 556.816 20.43C556.416 20.21 555.946 19.97 555.406 19.71C554.866 19.45 554.226 19.22 553.486 19.02C552.766 18.8 551.916 18.69 550.936 18.69C550.136 18.69 549.406 18.79 548.746 18.99C548.106 19.17 547.556 19.44 547.096 19.8C546.656 20.14 546.316 20.55 546.076 21.03C545.836 21.49 545.716 21.99 545.716 22.53C545.716 23.25 545.936 23.85 546.376 24.33C546.816 24.81 547.396 25.23 548.116 25.59C548.836 25.93 549.656 26.24 550.576 26.52C551.496 26.8 552.436 27.1 553.396 27.42C554.356 27.74 555.296 28.11 556.216 28.53C557.136 28.95 557.956 29.47 558.676 30.09C559.396 30.69 559.976 31.43 560.416 32.31C560.856 33.17 561.076 34.22 561.076 35.46C561.076 36.9 560.816 38.23 560.296 39.45C559.776 40.67 559.016 41.73 558.016 42.63C557.016 43.53 555.766 44.23 554.266 44.73C552.786 45.23 551.086 45.48 549.166 45.48C548.106 45.48 547.076 45.38 546.076 45.18C545.096 45 544.156 44.75 543.256 44.43C542.376 44.09 541.546 43.69 540.766 43.23C540.006 42.77 539.326 42.27 538.726 41.73L540.226 39.27C540.406 38.97 540.626 38.74 540.886 38.58C541.166 38.4 541.506 38.31 541.906 38.31C542.326 38.31 542.736 38.45 543.136 38.73C543.556 38.99 544.036 39.28 544.576 39.6C545.136 39.92 545.806 40.22 546.586 40.5C547.366 40.76 548.336 40.89 549.496 40.89C550.456 40.89 551.286 40.78 551.986 40.56C552.686 40.32 553.266 40 553.726 39.6C554.186 39.2 554.526 38.75 554.746 38.25C554.966 37.73 555.076 37.18 555.076 36.6C555.076 35.82 554.856 35.18 554.416 34.68C553.976 34.18 553.386 33.75 552.646 33.39C551.926 33.03 551.096 32.71 550.156 32.43C549.236 32.15 548.296 31.85 547.336 31.53C546.376 31.21 545.426 30.84 544.486 30.42C543.566 30 542.736 29.47 541.996 28.83C541.276 28.17 540.696 27.38 540.256 26.46C539.816 25.52 539.596 24.38 539.596 23.04C539.596 21.82 539.836 20.66 540.316 19.56C540.816 18.46 541.536 17.49 542.476 16.65C543.436 15.81 544.606 15.15 545.986 14.67C547.386 14.17 548.996 13.92 550.816 13.92C552.876 13.92 554.746 14.25 556.426 14.91C558.106 15.57 559.516 16.47 560.656 17.61L559.216 19.95ZM581.688 13.68C581.988 11.64 582.548 9.85 583.368 8.31C584.208 6.77 585.258 5.49 586.518 4.47C587.778 3.43 589.218 2.65 590.838 2.13C592.478 1.59 594.248 1.32 596.148 1.32C598.068 1.32 599.808 1.6 601.368 2.16C602.948 2.7 604.298 3.46 605.418 4.44C606.558 5.42 607.428 6.59 608.028 7.95C608.648 9.31 608.958 10.8 608.958 12.42C608.958 13.8 608.788 15.02 608.448 16.08C608.128 17.12 607.658 18.04 607.038 18.84C606.438 19.64 605.698 20.31 604.818 20.85C603.938 21.39 602.948 21.84 601.848 22.2C604.528 22.98 606.538 24.23 607.878 25.95C609.218 27.65 609.888 29.79 609.888 32.37C609.888 34.45 609.498 36.3 608.718 37.92C607.938 39.54 606.878 40.91 605.538 42.03C604.218 43.15 602.668 44.01 600.888 44.61C599.128 45.19 597.258 45.48 595.278 45.48C593.058 45.48 591.138 45.22 589.518 44.7C587.898 44.16 586.498 43.4 585.318 42.42C584.158 41.42 583.188 40.22 582.408 38.82C581.628 37.42 580.968 35.85 580.428 34.11L583.218 32.94C583.958 32.62 584.658 32.53 585.318 32.67C585.998 32.81 586.488 33.18 586.788 33.78C587.108 34.42 587.468 35.11 587.868 35.85C588.268 36.57 588.778 37.24 589.398 37.86C590.038 38.46 590.818 38.97 591.738 39.39C592.678 39.79 593.828 39.99 595.188 39.99C596.568 39.99 597.768 39.77 598.788 39.33C599.828 38.87 600.688 38.29 601.368 37.59C602.068 36.87 602.588 36.07 602.928 35.19C603.268 34.31 603.438 33.44 603.438 32.58C603.438 31.5 603.308 30.51 603.048 29.61C602.788 28.69 602.278 27.91 601.518 27.27C600.778 26.63 599.718 26.13 598.338 25.77C596.978 25.39 595.188 25.2 592.968 25.2V20.55C594.788 20.53 596.318 20.35 597.558 20.01C598.818 19.65 599.818 19.17 600.558 18.57C601.318 17.95 601.858 17.21 602.178 16.35C602.518 15.49 602.688 14.55 602.688 13.53C602.688 12.43 602.518 11.46 602.178 10.62C601.838 9.78 601.358 9.08 600.738 8.52C600.138 7.94 599.418 7.51 598.578 7.23C597.738 6.95 596.808 6.81 595.788 6.81C594.808 6.81 593.898 6.95 593.058 7.23C592.238 7.51 591.498 7.9 590.838 8.4C590.198 8.9 589.658 9.5 589.218 10.2C588.778 10.88 588.458 11.63 588.258 12.45C587.978 13.27 587.598 13.82 587.118 14.1C586.658 14.38 585.978 14.44 585.078 14.28L581.688 13.68ZM656.003 23.4C656.003 26.6 655.483 29.53 654.443 32.19C653.403 34.83 651.933 37.1 650.033 39C648.153 40.9 645.883 42.38 643.223 43.44C640.583 44.48 637.643 45 634.403 45H618.083V1.8H634.403C637.643 1.8 640.583 2.33 643.223 3.39C645.883 4.43 648.153 5.9 650.033 7.8C651.933 9.7 653.403 11.98 654.443 14.64C655.483 17.28 656.003 20.2 656.003 23.4ZM648.833 23.4C648.833 20.92 648.493 18.69 647.813 16.71C647.153 14.73 646.193 13.06 644.933 11.7C643.693 10.34 642.183 9.3 640.403 8.58C638.623 7.84 636.623 7.47 634.403 7.47H625.133V39.33H634.403C636.623 39.33 638.623 38.97 640.403 38.25C642.183 37.53 643.693 36.49 644.933 35.13C646.193 33.75 647.153 32.08 647.813 30.12C648.493 28.14 648.833 25.9 648.833 23.4ZM28.99 85.8L23.05 70.02C22.57 68.8 22.08 67.25 21.58 65.37C21.36 66.31 21.12 67.18 20.86 67.98C20.6 68.76 20.36 69.45 20.14 70.05L14.2 85.8H28.99ZM42.28 102H36.85C36.23 102 35.73 101.85 35.35 101.55C34.97 101.23 34.68 100.84 34.48 100.38L30.88 90.84H12.28L8.68 100.38C8.52 100.78 8.24 101.15 7.84 101.49C7.44 101.83 6.94 102 6.34 102H0.91L18.04 58.8H25.15L42.28 102ZM64.3914 76.95C64.2314 77.23 64.0514 77.43 63.8514 77.55C63.6514 77.67 63.4014 77.73 63.1014 77.73C62.7614 77.73 62.3914 77.63 61.9914 77.43C61.5914 77.21 61.1214 76.97 60.5814 76.71C60.0414 76.45 59.4014 76.22 58.6614 76.02C57.9414 75.8 57.0914 75.69 56.1114 75.69C55.3114 75.69 54.5814 75.79 53.9214 75.99C53.2814 76.17 52.7314 76.44 52.2714 76.8C51.8314 77.14 51.4914 77.55 51.2514 78.03C51.0114 78.49 50.8914 78.99 50.8914 79.53C50.8914 80.25 51.1114 80.85 51.5514 81.33C51.9914 81.81 52.5714 82.23 53.2914 82.59C54.0114 82.93 54.8314 83.24 55.7514 83.52C56.6714 83.8 57.6114 84.1 58.5714 84.42C59.5314 84.74 60.4714 85.11 61.3914 85.53C62.3114 85.95 63.1314 86.47 63.8514 87.09C64.5714 87.69 65.1514 88.43 65.5914 89.31C66.0314 90.17 66.2514 91.22 66.2514 92.46C66.2514 93.9 65.9914 95.23 65.4714 96.45C64.9514 97.67 64.1914 98.73 63.1914 99.63C62.1914 100.53 60.9414 101.23 59.4414 101.73C57.9614 102.23 56.2614 102.48 54.3414 102.48C53.2814 102.48 52.2514 102.38 51.2514 102.18C50.2714 102 49.3314 101.75 48.4314 101.43C47.5514 101.09 46.7214 100.69 45.9414 100.23C45.1814 99.77 44.5014 99.27 43.9014 98.73L45.4014 96.27C45.5814 95.97 45.8014 95.74 46.0614 95.58C46.3414 95.4 46.6814 95.31 47.0814 95.31C47.5014 95.31 47.9114 95.45 48.3114 95.73C48.7314 95.99 49.2114 96.28 49.7514 96.6C50.3114 96.92 50.9814 97.22 51.7614 97.5C52.5414 97.76 53.5114 97.89 54.6714 97.89C55.6314 97.89 56.4614 97.78 57.1614 97.56C57.8614 97.32 58.4414 97 58.9014 96.6C59.3614 96.2 59.7014 95.75 59.9214 95.25C60.1414 94.73 60.2514 94.18 60.2514 93.6C60.2514 92.82 60.0314 92.18 59.5914 91.68C59.1514 91.18 58.5614 90.75 57.8214 90.39C57.1014 90.03 56.2714 89.71 55.3314 89.43C54.4114 89.15 53.4714 88.85 52.5114 88.53C51.5514 88.21 50.6014 87.84 49.6614 87.42C48.7414 87 47.9114 86.47 47.1714 85.83C46.4514 85.17 45.8714 84.38 45.4314 83.46C44.9914 82.52 44.7714 81.38 44.7714 80.04C44.7714 78.82 45.0114 77.66 45.4914 76.56C45.9914 75.46 46.7114 74.49 47.6514 73.65C48.6114 72.81 49.7814 72.15 51.1614 71.67C52.5614 71.17 54.1714 70.92 55.9914 70.92C58.0514 70.92 59.9214 71.25 61.6014 71.91C63.2814 72.57 64.6914 73.47 65.8314 74.61L64.3914 76.95ZM85.5428 70.92C87.8028 70.92 89.8428 71.29 91.6628 72.03C93.5028 72.77 95.0628 73.82 96.3428 75.18C97.6428 76.54 98.6428 78.19 99.3428 80.13C100.043 82.07 100.393 84.25 100.393 86.67C100.393 89.09 100.043 91.27 99.3428 93.21C98.6428 95.15 97.6428 96.81 96.3428 98.19C95.0628 99.55 93.5028 100.6 91.6628 101.34C89.8428 102.08 87.8028 102.45 85.5428 102.45C83.2628 102.45 81.2028 102.08 79.3628 101.34C77.5428 100.6 75.9828 99.55 74.6828 98.19C73.3828 96.81 72.3828 95.15 71.6828 93.21C70.9828 91.27 70.6328 89.09 70.6328 86.67C70.6328 84.25 70.9828 82.07 71.6828 80.13C72.3828 78.19 73.3828 76.54 74.6828 75.18C75.9828 73.82 77.5428 72.77 79.3628 72.03C81.2028 71.29 83.2628 70.92 85.5428 70.92ZM85.5428 97.41C88.3028 97.41 90.3528 96.49 91.6928 94.65C93.0528 92.79 93.7328 90.14 93.7328 86.7C93.7328 83.26 93.0528 80.61 91.6928 78.75C90.3528 76.87 88.3028 75.93 85.5428 75.93C82.7428 75.93 80.6628 76.87 79.3028 78.75C77.9428 80.61 77.2628 83.26 77.2628 86.7C77.2628 90.14 77.9428 92.79 79.3028 94.65C80.6628 96.49 82.7428 97.41 85.5428 97.41ZM106.59 102V71.4H110.49C111.37 71.4 111.93 71.81 112.17 72.63L112.59 75.3C113.15 74.66 113.73 74.08 114.33 73.56C114.93 73.02 115.57 72.56 116.25 72.18C116.95 71.78 117.69 71.47 118.47 71.25C119.27 71.03 120.13 70.92 121.05 70.92C122.03 70.92 122.93 71.06 123.75 71.34C124.57 71.62 125.29 72.02 125.91 72.54C126.55 73.06 127.1 73.69 127.56 74.43C128.02 75.17 128.4 76 128.7 76.92C129.16 75.86 129.74 74.95 130.44 74.19C131.14 73.43 131.92 72.81 132.78 72.33C133.64 71.85 134.55 71.5 135.51 71.28C136.49 71.04 137.48 70.92 138.48 70.92C140.12 70.92 141.58 71.18 142.86 71.7C144.16 72.22 145.25 72.98 146.13 73.98C147.03 74.96 147.71 76.17 148.17 77.61C148.63 79.05 148.86 80.69 148.86 82.53V102H142.41V82.53C142.41 80.37 141.94 78.75 141 77.67C140.08 76.57 138.71 76.02 136.89 76.02C136.07 76.02 135.3 76.16 134.58 76.44C133.86 76.72 133.23 77.13 132.69 77.67C132.15 78.21 131.72 78.89 131.4 79.71C131.1 80.51 130.95 81.45 130.95 82.53V102H124.5V82.53C124.5 80.29 124.05 78.65 123.15 77.61C122.25 76.55 120.93 76.02 119.19 76.02C117.99 76.02 116.88 76.33 115.86 76.95C114.84 77.55 113.9 78.38 113.04 79.44V102H106.59ZM162.845 94.32C163.745 95.48 164.725 96.3 165.785 96.78C166.865 97.24 168.035 97.47 169.295 97.47C171.835 97.47 173.815 96.55 175.235 94.71C176.655 92.87 177.365 90.02 177.365 86.16C177.365 82.64 176.745 80.07 175.505 78.45C174.285 76.83 172.535 76.02 170.255 76.02C168.675 76.02 167.295 76.38 166.115 77.1C164.955 77.8 163.865 78.81 162.845 80.13V94.32ZM162.845 75.45C164.105 74.07 165.515 72.97 167.075 72.15C168.635 71.33 170.415 70.92 172.415 70.92C174.195 70.92 175.795 71.27 177.215 71.97C178.655 72.65 179.875 73.64 180.875 74.94C181.875 76.24 182.645 77.82 183.185 79.68C183.725 81.52 183.995 83.6 183.995 85.92C183.995 88.4 183.685 90.66 183.065 92.7C182.465 94.72 181.595 96.46 180.455 97.92C179.315 99.36 177.935 100.48 176.315 101.28C174.695 102.06 172.885 102.45 170.885 102.45C169.905 102.45 169.015 102.35 168.215 102.15C167.415 101.97 166.675 101.7 165.995 101.34C165.315 100.98 164.685 100.55 164.105 100.05C163.545 99.55 163.005 98.98 162.485 98.34L162.215 100.71C162.115 101.17 161.935 101.5 161.675 101.7C161.415 101.9 161.055 102 160.595 102H156.395V57.6H162.845V75.45ZM196.352 77.07C197.312 75.13 198.472 73.61 199.832 72.51C201.192 71.39 202.822 70.83 204.722 70.83C205.382 70.83 206.002 70.91 206.582 71.07C207.162 71.21 207.682 71.43 208.142 71.73L207.692 76.59C207.612 76.93 207.482 77.17 207.302 77.31C207.142 77.43 206.922 77.49 206.642 77.49C206.342 77.49 205.912 77.44 205.352 77.34C204.792 77.22 204.202 77.16 203.582 77.16C202.682 77.16 201.882 77.29 201.182 77.55C200.502 77.81 199.882 78.19 199.322 78.69C198.782 79.19 198.302 79.8 197.882 80.52C197.462 81.24 197.072 82.06 196.712 82.98V102H190.262V71.4H194.012C194.692 71.4 195.162 71.53 195.422 71.79C195.682 72.03 195.862 72.46 195.962 73.08L196.352 77.07ZM224.586 70.92C226.846 70.92 228.886 71.29 230.706 72.03C232.546 72.77 234.106 73.82 235.386 75.18C236.686 76.54 237.686 78.19 238.386 80.13C239.086 82.07 239.436 84.25 239.436 86.67C239.436 89.09 239.086 91.27 238.386 93.21C237.686 95.15 236.686 96.81 235.386 98.19C234.106 99.55 232.546 100.6 230.706 101.34C228.886 102.08 226.846 102.45 224.586 102.45C222.306 102.45 220.246 102.08 218.406 101.34C216.586 100.6 215.026 99.55 213.726 98.19C212.426 96.81 211.426 95.15 210.726 93.21C210.026 91.27 209.676 89.09 209.676 86.67C209.676 84.25 210.026 82.07 210.726 80.13C211.426 78.19 212.426 76.54 213.726 75.18C215.026 73.82 216.586 72.77 218.406 72.03C220.246 71.29 222.306 70.92 224.586 70.92ZM224.586 97.41C227.346 97.41 229.396 96.49 230.736 94.65C232.096 92.79 232.776 90.14 232.776 86.7C232.776 83.26 232.096 80.61 230.736 78.75C229.396 76.87 227.346 75.93 224.586 75.93C221.786 75.93 219.706 76.87 218.346 78.75C216.986 80.61 216.306 83.26 216.306 86.7C216.306 90.14 216.986 92.79 218.346 94.65C219.706 96.49 221.786 97.41 224.586 97.41ZM263.903 76.95C263.743 77.23 263.563 77.43 263.363 77.55C263.163 77.67 262.913 77.73 262.613 77.73C262.273 77.73 261.903 77.63 261.503 77.43C261.103 77.21 260.633 76.97 260.093 76.71C259.553 76.45 258.913 76.22 258.173 76.02C257.453 75.8 256.603 75.69 255.623 75.69C254.823 75.69 254.093 75.79 253.433 75.99C252.793 76.17 252.243 76.44 251.783 76.8C251.343 77.14 251.003 77.55 250.763 78.03C250.523 78.49 250.403 78.99 250.403 79.53C250.403 80.25 250.623 80.85 251.063 81.33C251.503 81.81 252.083 82.23 252.803 82.59C253.523 82.93 254.343 83.24 255.263 83.52C256.183 83.8 257.123 84.1 258.083 84.42C259.043 84.74 259.983 85.11 260.903 85.53C261.823 85.95 262.643 86.47 263.363 87.09C264.083 87.69 264.663 88.43 265.103 89.31C265.543 90.17 265.763 91.22 265.763 92.46C265.763 93.9 265.503 95.23 264.983 96.45C264.463 97.67 263.703 98.73 262.703 99.63C261.703 100.53 260.453 101.23 258.953 101.73C257.473 102.23 255.773 102.48 253.853 102.48C252.793 102.48 251.763 102.38 250.763 102.18C249.783 102 248.843 101.75 247.943 101.43C247.063 101.09 246.233 100.69 245.453 100.23C244.693 99.77 244.013 99.27 243.413 98.73L244.913 96.27C245.093 95.97 245.313 95.74 245.573 95.58C245.853 95.4 246.193 95.31 246.593 95.31C247.013 95.31 247.423 95.45 247.823 95.73C248.243 95.99 248.723 96.28 249.263 96.6C249.823 96.92 250.493 97.22 251.273 97.5C252.053 97.76 253.023 97.89 254.183 97.89C255.143 97.89 255.973 97.78 256.673 97.56C257.373 97.32 257.953 97 258.413 96.6C258.873 96.2 259.213 95.75 259.433 95.25C259.653 94.73 259.763 94.18 259.763 93.6C259.763 92.82 259.543 92.18 259.103 91.68C258.663 91.18 258.073 90.75 257.333 90.39C256.613 90.03 255.783 89.71 254.843 89.43C253.923 89.15 252.983 88.85 252.023 88.53C251.063 88.21 250.113 87.84 249.173 87.42C248.253 87 247.423 86.47 246.683 85.83C245.963 85.17 245.383 84.38 244.943 83.46C244.503 82.52 244.283 81.38 244.283 80.04C244.283 78.82 244.523 77.66 245.003 76.56C245.503 75.46 246.223 74.49 247.163 73.65C248.123 72.81 249.293 72.15 250.673 71.67C252.073 71.17 253.683 70.92 255.503 70.92C257.563 70.92 259.433 71.25 261.113 71.91C262.793 72.57 264.203 73.47 265.343 74.61L263.903 76.95ZM285.055 70.92C287.315 70.92 289.355 71.29 291.175 72.03C293.015 72.77 294.575 73.82 295.855 75.18C297.155 76.54 298.155 78.19 298.855 80.13C299.555 82.07 299.905 84.25 299.905 86.67C299.905 89.09 299.555 91.27 298.855 93.21C298.155 95.15 297.155 96.81 295.855 98.19C294.575 99.55 293.015 100.6 291.175 101.34C289.355 102.08 287.315 102.45 285.055 102.45C282.775 102.45 280.715 102.08 278.875 101.34C277.055 100.6 275.495 99.55 274.195 98.19C272.895 96.81 271.895 95.15 271.195 93.21C270.495 91.27 270.145 89.09 270.145 86.67C270.145 84.25 270.495 82.07 271.195 80.13C271.895 78.19 272.895 76.54 274.195 75.18C275.495 73.82 277.055 72.77 278.875 72.03C280.715 71.29 282.775 70.92 285.055 70.92ZM285.055 97.41C287.815 97.41 289.865 96.49 291.205 94.65C292.565 92.79 293.245 90.14 293.245 86.7C293.245 83.26 292.565 80.61 291.205 78.75C289.865 76.87 287.815 75.93 285.055 75.93C282.255 75.93 280.175 76.87 278.815 78.75C277.455 80.61 276.775 83.26 276.775 86.7C276.775 90.14 277.455 92.79 278.815 94.65C280.175 96.49 282.255 97.41 285.055 97.41ZM324.372 76.95C324.212 77.23 324.032 77.43 323.832 77.55C323.632 77.67 323.382 77.73 323.082 77.73C322.742 77.73 322.372 77.63 321.972 77.43C321.572 77.21 321.102 76.97 320.562 76.71C320.022 76.45 319.382 76.22 318.642 76.02C317.922 75.8 317.072 75.69 316.092 75.69C315.292 75.69 314.562 75.79 313.902 75.99C313.262 76.17 312.712 76.44 312.252 76.8C311.812 77.14 311.472 77.55 311.232 78.03C310.992 78.49 310.872 78.99 310.872 79.53C310.872 80.25 311.092 80.85 311.532 81.33C311.972 81.81 312.552 82.23 313.272 82.59C313.992 82.93 314.812 83.24 315.732 83.52C316.652 83.8 317.592 84.1 318.552 84.42C319.512 84.74 320.452 85.11 321.372 85.53C322.292 85.95 323.112 86.47 323.832 87.09C324.552 87.69 325.132 88.43 325.572 89.31C326.012 90.17 326.232 91.22 326.232 92.46C326.232 93.9 325.972 95.23 325.452 96.45C324.932 97.67 324.172 98.73 323.172 99.63C322.172 100.53 320.922 101.23 319.422 101.73C317.942 102.23 316.242 102.48 314.322 102.48C313.262 102.48 312.232 102.38 311.232 102.18C310.252 102 309.312 101.75 308.412 101.43C307.532 101.09 306.702 100.69 305.922 100.23C305.162 99.77 304.482 99.27 303.882 98.73L305.382 96.27C305.562 95.97 305.782 95.74 306.042 95.58C306.322 95.4 306.662 95.31 307.062 95.31C307.482 95.31 307.892 95.45 308.292 95.73C308.712 95.99 309.192 96.28 309.732 96.6C310.292 96.92 310.962 97.22 311.742 97.5C312.522 97.76 313.492 97.89 314.652 97.89C315.612 97.89 316.442 97.78 317.142 97.56C317.842 97.32 318.422 97 318.882 96.6C319.342 96.2 319.682 95.75 319.902 95.25C320.122 94.73 320.232 94.18 320.232 93.6C320.232 92.82 320.012 92.18 319.572 91.68C319.132 91.18 318.542 90.75 317.802 90.39C317.082 90.03 316.252 89.71 315.312 89.43C314.392 89.15 313.452 88.85 312.492 88.53C311.532 88.21 310.582 87.84 309.642 87.42C308.722 87 307.892 86.47 307.152 85.83C306.432 85.17 305.852 84.38 305.412 83.46C304.972 82.52 304.752 81.38 304.752 80.04C304.752 78.82 304.992 77.66 305.472 76.56C305.972 75.46 306.692 74.49 307.632 73.65C308.592 72.81 309.762 72.15 311.142 71.67C312.542 71.17 314.152 70.92 315.972 70.92C318.032 70.92 319.902 71.25 321.582 71.91C323.262 72.57 324.672 73.47 325.812 74.61L324.372 76.95ZM367.305 83.25C367.305 82.17 367.145 81.17 366.825 80.25C366.525 79.31 366.075 78.5 365.475 77.82C364.875 77.12 364.125 76.58 363.225 76.2C362.345 75.8 361.325 75.6 360.165 75.6C357.825 75.6 355.985 76.27 354.645 77.61C353.305 78.95 352.455 80.83 352.095 83.25H367.305ZM351.915 87.21C351.995 88.95 352.265 90.46 352.725 91.74C353.185 93 353.795 94.05 354.555 94.89C355.335 95.73 356.255 96.36 357.315 96.78C358.395 97.18 359.595 97.38 360.915 97.38C362.175 97.38 363.265 97.24 364.185 96.96C365.105 96.66 365.905 96.34 366.585 96C367.265 95.64 367.845 95.32 368.325 95.04C368.805 94.74 369.245 94.59 369.645 94.59C370.165 94.59 370.565 94.79 370.845 95.19L372.675 97.56C371.915 98.46 371.055 99.22 370.095 99.84C369.135 100.46 368.115 100.97 367.035 101.37C365.955 101.75 364.845 102.02 363.705 102.18C362.565 102.36 361.455 102.45 360.375 102.45C358.255 102.45 356.285 102.1 354.465 101.4C352.665 100.68 351.095 99.63 349.755 98.25C348.435 96.87 347.395 95.16 346.635 93.12C345.895 91.08 345.525 88.73 345.525 86.07C345.525 83.95 345.855 81.97 346.515 80.13C347.195 78.29 348.155 76.69 349.395 75.33C350.655 73.97 352.175 72.9 353.955 72.12C355.755 71.32 357.785 70.92 360.045 70.92C361.925 70.92 363.665 71.23 365.265 71.85C366.865 72.45 368.245 73.34 369.405 74.52C370.565 75.7 371.465 77.15 372.105 78.87C372.765 80.57 373.095 82.51 373.095 84.69C373.095 85.69 372.985 86.36 372.765 86.7C372.545 87.04 372.145 87.21 371.565 87.21H351.915ZM385.14 75.45C385.8 74.77 386.48 74.16 387.18 73.62C387.9 73.06 388.66 72.58 389.46 72.18C390.26 71.78 391.11 71.47 392.01 71.25C392.91 71.03 393.89 70.92 394.95 70.92C396.63 70.92 398.1 71.2 399.36 71.76C400.64 72.32 401.71 73.11 402.57 74.13C403.45 75.15 404.11 76.38 404.55 77.82C404.99 79.24 405.21 80.81 405.21 82.53V102H398.79V82.53C398.79 80.47 398.31 78.87 397.35 77.73C396.41 76.59 394.97 76.02 393.03 76.02C391.59 76.02 390.25 76.35 389.01 77.01C387.79 77.67 386.64 78.57 385.56 79.71V102H379.11V71.4H383.01C383.89 71.4 384.45 71.81 384.69 72.63L385.14 75.45ZM41.89 115.8V159H38.32C37.78 159 37.32 158.91 36.94 158.73C36.56 158.53 36.2 158.21 35.86 157.77L12.13 127.29C12.19 127.87 12.23 128.45 12.25 129.03C12.29 129.59 12.31 130.11 12.31 130.59V159H6.13V115.8H9.79C10.09 115.8 10.34 115.82 10.54 115.86C10.76 115.88 10.96 115.93 11.14 116.01C11.32 116.09 11.49 116.21 11.65 116.37C11.81 116.53 11.98 116.73 12.16 116.97L35.92 147.48C35.86 146.86 35.81 146.25 35.77 145.65C35.75 145.05 35.74 144.49 35.74 143.97V115.8H41.89ZM76.1988 128.4V159H72.2988C71.4388 159 70.8888 158.59 70.6488 157.77L70.1688 154.92C69.5288 155.6 68.8488 156.22 68.1288 156.78C67.4288 157.34 66.6788 157.82 65.8788 158.22C65.0788 158.62 64.2188 158.93 63.2988 159.15C62.3988 159.37 61.4288 159.48 60.3888 159.48C58.7088 159.48 57.2288 159.2 55.9488 158.64C54.6688 158.08 53.5888 157.29 52.7088 156.27C51.8488 155.25 51.1988 154.03 50.7588 152.61C50.3188 151.17 50.0988 149.59 50.0988 147.87V128.4H56.5488V147.87C56.5488 149.93 57.0188 151.53 57.9588 152.67C58.9188 153.81 60.3688 154.38 62.3087 154.38C63.7288 154.38 65.0488 154.06 66.2688 153.42C67.5088 152.76 68.6688 151.86 69.7488 150.72V128.4H76.1988ZM84.0316 159V128.4H87.9316C88.8116 128.4 89.3716 128.81 89.6116 129.63L90.0316 132.3C90.5916 131.66 91.1716 131.08 91.7716 130.56C92.3716 130.02 93.0116 129.56 93.6916 129.18C94.3916 128.78 95.1316 128.47 95.9116 128.25C96.7116 128.03 97.5716 127.92 98.4916 127.92C99.4716 127.92 100.372 128.06 101.192 128.34C102.012 128.62 102.732 129.02 103.352 129.54C103.992 130.06 104.542 130.69 105.002 131.43C105.462 132.17 105.842 133 106.142 133.92C106.602 132.86 107.182 131.95 107.882 131.19C108.582 130.43 109.362 129.81 110.222 129.33C111.082 128.85 111.992 128.5 112.952 128.28C113.932 128.04 114.922 127.92 115.922 127.92C117.562 127.92 119.022 128.18 120.302 128.7C121.602 129.22 122.692 129.98 123.572 130.98C124.472 131.96 125.152 133.17 125.612 134.61C126.072 136.05 126.302 137.69 126.302 139.53V159H119.852V139.53C119.852 137.37 119.382 135.75 118.442 134.67C117.522 133.57 116.152 133.02 114.332 133.02C113.512 133.02 112.742 133.16 112.022 133.44C111.302 133.72 110.672 134.13 110.132 134.67C109.592 135.21 109.162 135.89 108.842 136.71C108.542 137.51 108.392 138.45 108.392 139.53V159H101.942V139.53C101.942 137.29 101.492 135.65 100.592 134.61C99.6916 133.55 98.3716 133.02 96.6316 133.02C95.4316 133.02 94.3216 133.33 93.3016 133.95C92.2816 134.55 91.3416 135.38 90.4816 136.44V159H84.0316ZM140.286 151.32C141.186 152.48 142.166 153.3 143.226 153.78C144.306 154.24 145.476 154.47 146.736 154.47C149.276 154.47 151.256 153.55 152.676 151.71C154.096 149.87 154.806 147.02 154.806 143.16C154.806 139.64 154.186 137.07 152.946 135.45C151.726 133.83 149.976 133.02 147.696 133.02C146.116 133.02 144.736 133.38 143.556 134.1C142.396 134.8 141.306 135.81 140.286 137.13V151.32ZM140.286 132.45C141.546 131.07 142.956 129.97 144.516 129.15C146.076 128.33 147.856 127.92 149.856 127.92C151.636 127.92 153.236 128.27 154.656 128.97C156.096 129.65 157.316 130.64 158.316 131.94C159.316 133.24 160.086 134.82 160.626 136.68C161.166 138.52 161.436 140.6 161.436 142.92C161.436 145.4 161.126 147.66 160.506 149.7C159.906 151.72 159.036 153.46 157.896 154.92C156.756 156.36 155.376 157.48 153.756 158.28C152.136 159.06 150.326 159.45 148.326 159.45C147.346 159.45 146.456 159.35 145.656 159.15C144.856 158.97 144.116 158.7 143.436 158.34C142.756 157.98 142.126 157.55 141.546 157.05C140.986 156.55 140.446 155.98 139.926 155.34L139.656 157.71C139.556 158.17 139.376 158.5 139.116 158.7C138.856 158.9 138.496 159 138.036 159H133.836V114.6H140.286V132.45ZM187.773 140.25C187.773 139.17 187.613 138.17 187.293 137.25C186.993 136.31 186.543 135.5 185.943 134.82C185.343 134.12 184.593 133.58 183.693 133.2C182.813 132.8 181.793 132.6 180.633 132.6C178.293 132.6 176.453 133.27 175.113 134.61C173.773 135.95 172.923 137.83 172.563 140.25H187.773ZM172.383 144.21C172.463 145.95 172.733 147.46 173.193 148.74C173.653 150 174.263 151.05 175.023 151.89C175.803 152.73 176.723 153.36 177.783 153.78C178.863 154.18 180.063 154.38 181.383 154.38C182.643 154.38 183.733 154.24 184.653 153.96C185.573 153.66 186.373 153.34 187.053 153C187.733 152.64 188.313 152.32 188.793 152.04C189.273 151.74 189.713 151.59 190.113 151.59C190.633 151.59 191.033 151.79 191.313 152.19L193.143 154.56C192.383 155.46 191.523 156.22 190.563 156.84C189.603 157.46 188.583 157.97 187.503 158.37C186.423 158.75 185.313 159.02 184.173 159.18C183.033 159.36 181.923 159.45 180.843 159.45C178.723 159.45 176.753 159.1 174.933 158.4C173.133 157.68 171.563 156.63 170.223 155.25C168.903 153.87 167.863 152.16 167.103 150.12C166.363 148.08 165.993 145.73 165.993 143.07C165.993 140.95 166.323 138.97 166.983 137.13C167.663 135.29 168.623 133.69 169.863 132.33C171.123 130.97 172.643 129.9 174.423 129.12C176.223 128.32 178.253 127.92 180.513 127.92C182.393 127.92 184.133 128.23 185.733 128.85C187.333 129.45 188.713 130.34 189.873 131.52C191.033 132.7 191.933 134.15 192.573 135.87C193.233 137.57 193.563 139.51 193.563 141.69C193.563 142.69 193.453 143.36 193.233 143.7C193.013 144.04 192.613 144.21 192.033 144.21H172.383ZM205.668 134.07C206.628 132.13 207.788 130.61 209.148 129.51C210.508 128.39 212.138 127.83 214.038 127.83C214.698 127.83 215.318 127.91 215.898 128.07C216.478 128.21 216.998 128.43 217.458 128.73L217.008 133.59C216.928 133.93 216.798 134.17 216.618 134.31C216.458 134.43 216.238 134.49 215.958 134.49C215.658 134.49 215.228 134.44 214.668 134.34C214.108 134.22 213.518 134.16 212.898 134.16C211.998 134.16 211.198 134.29 210.498 134.55C209.818 134.81 209.198 135.19 208.638 135.69C208.098 136.19 207.618 136.8 207.198 137.52C206.778 138.24 206.388 139.06 206.028 139.98V159H199.578V128.4H203.328C204.008 128.4 204.478 128.53 204.738 128.79C204.998 129.03 205.178 129.46 205.278 130.08L205.668 134.07ZM238.12 153.45C239.7 153.45 241.03 153.27 242.11 152.91C243.21 152.53 244.1 152.02 244.78 151.38C245.48 150.74 245.98 149.99 246.28 149.13C246.6 148.25 246.76 147.31 246.76 146.31C246.76 144.27 246.06 142.67 244.66 141.51C243.28 140.33 241.09 139.74 238.09 139.74H229.42V153.45H238.12ZM229.42 121.29V134.79H236.44C239.44 134.79 241.68 134.21 243.16 133.05C244.64 131.89 245.38 130.22 245.38 128.04C245.38 125.66 244.68 123.94 243.28 122.88C241.9 121.82 239.73 121.29 236.77 121.29H229.42ZM236.77 115.8C239.53 115.8 241.89 116.07 243.85 116.61C245.81 117.13 247.42 117.88 248.68 118.86C249.94 119.84 250.86 121.04 251.44 122.46C252.04 123.86 252.34 125.44 252.34 127.2C252.34 128.22 252.18 129.21 251.86 130.17C251.56 131.11 251.08 132 250.42 132.84C249.78 133.66 248.97 134.4 247.99 135.06C247.01 135.72 245.85 136.27 244.51 136.71C250.63 138.01 253.69 141.26 253.69 146.46C253.69 148.3 253.34 149.99 252.64 151.53C251.96 153.05 250.96 154.37 249.64 155.49C248.34 156.59 246.73 157.45 244.81 158.07C242.89 158.69 240.7 159 238.24 159H222.4V115.8H236.77ZM266.383 114.6V159H259.933V114.6H266.383ZM287.574 127.92C289.834 127.92 291.874 128.29 293.694 129.03C295.534 129.77 297.094 130.82 298.374 132.18C299.674 133.54 300.674 135.19 301.374 137.13C302.074 139.07 302.424 141.25 302.424 143.67C302.424 146.09 302.074 148.27 301.374 150.21C300.674 152.15 299.674 153.81 298.374 155.19C297.094 156.55 295.534 157.6 293.694 158.34C291.874 159.08 289.834 159.45 287.574 159.45C285.294 159.45 283.234 159.08 281.394 158.34C279.574 157.6 278.014 156.55 276.714 155.19C275.414 153.81 274.414 152.15 273.714 150.21C273.014 148.27 272.664 146.09 272.664 143.67C272.664 141.25 273.014 139.07 273.714 137.13C274.414 135.19 275.414 133.54 276.714 132.18C278.014 130.82 279.574 129.77 281.394 129.03C283.234 128.29 285.294 127.92 287.574 127.92ZM287.574 154.41C290.334 154.41 292.384 153.49 293.724 151.65C295.084 149.79 295.764 147.14 295.764 143.7C295.764 140.26 295.084 137.61 293.724 135.75C292.384 133.87 290.334 132.93 287.574 132.93C284.774 132.93 282.694 133.87 281.334 135.75C279.974 137.61 279.294 140.26 279.294 143.7C279.294 147.14 279.974 149.79 281.334 151.65C282.694 153.49 284.774 154.41 287.574 154.41ZM330.251 134.4C330.051 134.66 329.861 134.86 329.681 135C329.501 135.14 329.241 135.21 328.901 135.21C328.561 135.21 328.201 135.09 327.821 134.85C327.461 134.61 327.021 134.35 326.501 134.07C326.001 133.77 325.391 133.5 324.671 133.26C323.951 133.02 323.051 132.9 321.971 132.9C320.571 132.9 319.341 133.15 318.281 133.65C317.241 134.15 316.361 134.87 315.641 135.81C314.941 136.73 314.411 137.86 314.051 139.2C313.711 140.52 313.541 142.01 313.541 143.67C313.541 145.39 313.731 146.92 314.111 148.26C314.491 149.6 315.031 150.73 315.731 151.65C316.451 152.57 317.311 153.27 318.311 153.75C319.331 154.23 320.471 154.47 321.731 154.47C322.971 154.47 323.981 154.32 324.761 154.02C325.541 153.72 326.191 153.39 326.711 153.03C327.231 152.67 327.671 152.34 328.031 152.04C328.411 151.74 328.811 151.59 329.231 151.59C329.751 151.59 330.151 151.79 330.431 152.19L332.261 154.56C331.521 155.46 330.701 156.22 329.801 156.84C328.901 157.46 327.951 157.97 326.951 158.37C325.951 158.75 324.911 159.02 323.831 159.18C322.751 159.36 321.661 159.45 320.561 159.45C318.661 159.45 316.881 159.1 315.221 158.4C313.581 157.68 312.141 156.65 310.901 155.31C309.681 153.95 308.711 152.3 307.991 150.36C307.291 148.4 306.941 146.17 306.941 143.67C306.941 141.41 307.261 139.32 307.901 137.4C308.541 135.46 309.471 133.79 310.691 132.39C311.931 130.99 313.461 129.9 315.281 129.12C317.101 128.32 319.201 127.92 321.581 127.92C323.801 127.92 325.751 128.28 327.431 129C329.131 129.72 330.641 130.74 331.961 132.06L330.251 134.4ZM343.9 114.6V140.34H345.28C345.72 140.34 346.08 140.28 346.36 140.16C346.64 140.04 346.93 139.79 347.23 139.41L355.81 129.6C356.11 129.2 356.44 128.9 356.8 128.7C357.16 128.5 357.62 128.4 358.18 128.4H364.03L353.71 140.04C353.11 140.82 352.45 141.44 351.73 141.9C352.13 142.18 352.48 142.5 352.78 142.86C353.08 143.2 353.37 143.59 353.65 144.03L364.66 159H358.9C358.38 159 357.93 158.92 357.55 158.76C357.19 158.58 356.87 158.26 356.59 157.8L347.74 145.8C347.44 145.34 347.14 145.05 346.84 144.93C346.54 144.79 346.09 144.72 345.49 144.72H343.9V159H337.45V114.6H343.9ZM387.067 133.95C386.907 134.23 386.727 134.43 386.527 134.55C386.327 134.67 386.077 134.73 385.777 134.73C385.437 134.73 385.067 134.63 384.667 134.43C384.267 134.21 383.797 133.97 383.257 133.71C382.717 133.45 382.077 133.22 381.337 133.02C380.617 132.8 379.767 132.69 378.787 132.69C377.987 132.69 377.257 132.79 376.597 132.99C375.957 133.17 375.407 133.44 374.947 133.8C374.507 134.14 374.167 134.55 373.927 135.03C373.687 135.49 373.567 135.99 373.567 136.53C373.567 137.25 373.787 137.85 374.227 138.33C374.667 138.81 375.247 139.23 375.967 139.59C376.687 139.93 377.507 140.24 378.427 140.52C379.347 140.8 380.287 141.1 381.247 141.42C382.207 141.74 383.147 142.11 384.067 142.53C384.987 142.95 385.807 143.47 386.527 144.09C387.247 144.69 387.827 145.43 388.267 146.31C388.707 147.17 388.927 148.22 388.927 149.46C388.927 150.9 388.667 152.23 388.147 153.45C387.627 154.67 386.867 155.73 385.867 156.63C384.867 157.53 383.617 158.23 382.117 158.73C380.637 159.23 378.937 159.48 377.017 159.48C375.957 159.48 374.927 159.38 373.927 159.18C372.947 159 372.007 158.75 371.107 158.43C370.227 158.09 369.397 157.69 368.617 157.23C367.857 156.77 367.177 156.27 366.577 155.73L368.077 153.27C368.257 152.97 368.477 152.74 368.737 152.58C369.017 152.4 369.357 152.31 369.757 152.31C370.177 152.31 370.587 152.45 370.987 152.73C371.407 152.99 371.887 153.28 372.427 153.6C372.987 153.92 373.657 154.22 374.437 154.5C375.217 154.76 376.187 154.89 377.347 154.89C378.307 154.89 379.137 154.78 379.837 154.56C380.537 154.32 381.117 154 381.577 153.6C382.037 153.2 382.377 152.75 382.597 152.25C382.817 151.73 382.927 151.18 382.927 150.6C382.927 149.82 382.707 149.18 382.267 148.68C381.827 148.18 381.237 147.75 380.497 147.39C379.777 147.03 378.947 146.71 378.007 146.43C377.087 146.15 376.147 145.85 375.187 145.53C374.227 145.21 373.277 144.84 372.337 144.42C371.417 144 370.587 143.47 369.847 142.83C369.127 142.17 368.547 141.38 368.107 140.46C367.667 139.52 367.447 138.38 367.447 137.04C367.447 135.82 367.687 134.66 368.167 133.56C368.667 132.46 369.387 131.49 370.327 130.65C371.287 129.81 372.457 129.15 373.837 128.67C375.237 128.17 376.847 127.92 378.667 127.92C380.727 127.92 382.597 128.25 384.277 128.91C385.957 129.57 387.367 130.47 388.507 131.61L387.067 133.95ZM394.509 155.28C394.509 154.7 394.609 154.16 394.809 153.66C395.029 153.14 395.319 152.69 395.679 152.31C396.059 151.93 396.499 151.63 396.999 151.41C397.519 151.19 398.069 151.08 398.649 151.08C399.229 151.08 399.769 151.19 400.269 151.41C400.789 151.63 401.239 151.93 401.619 152.31C401.999 152.69 402.299 153.14 402.519 153.66C402.739 154.16 402.849 154.7 402.849 155.28C402.849 155.88 402.739 156.43 402.519 156.93C402.299 157.43 401.999 157.87 401.619 158.25C401.239 158.63 400.789 158.92 400.269 159.12C399.769 159.34 399.229 159.45 398.649 159.45C398.069 159.45 397.519 159.34 396.999 159.12C396.499 158.92 396.059 158.63 395.679 158.25C395.319 157.87 395.029 157.43 394.809 156.93C394.609 156.43 394.509 155.88 394.509 155.28ZM394.509 133.41C394.509 132.83 394.609 132.29 394.809 131.79C395.029 131.27 395.319 130.82 395.679 130.44C396.059 130.06 396.499 129.76 396.999 129.54C397.519 129.32 398.069 129.21 398.649 129.21C399.229 129.21 399.769 129.32 400.269 129.54C400.789 129.76 401.239 130.06 401.619 130.44C401.999 130.82 402.299 131.27 402.519 131.79C402.739 132.29 402.849 132.83 402.849 133.41C402.849 134.01 402.739 134.56 402.519 135.06C402.299 135.56 401.999 136 401.619 136.38C401.239 136.76 400.789 137.06 400.269 137.28C399.769 137.48 399.229 137.58 398.649 137.58C398.069 137.58 397.519 137.48 396.999 137.28C396.499 137.06 396.059 136.76 395.679 136.38C395.319 136 395.029 135.56 394.809 135.06C394.609 134.56 394.509 134.01 394.509 133.41ZM443.404 153.33C445.064 153.33 446.544 153.05 447.844 152.49C449.164 151.93 450.274 151.15 451.174 150.15C452.094 149.15 452.794 147.95 453.274 146.55C453.754 145.13 453.994 143.56 453.994 141.84V115.8H460.984V141.84C460.984 144.38 460.574 146.73 459.754 148.89C458.954 151.05 457.794 152.92 456.274 154.5C454.754 156.06 452.904 157.29 450.724 158.19C448.564 159.07 446.124 159.51 443.404 159.51C440.684 159.51 438.234 159.07 436.054 158.19C433.894 157.29 432.054 156.06 430.534 154.5C429.014 152.92 427.844 151.05 427.024 148.89C426.224 146.73 425.824 144.38 425.824 141.84V115.8H432.844V141.81C432.844 143.53 433.084 145.1 433.564 146.52C434.044 147.92 434.734 149.13 435.634 150.15C436.534 151.15 437.634 151.93 438.934 152.49C440.254 153.05 441.744 153.33 443.404 153.33ZM474.612 132.45C475.272 131.77 475.952 131.16 476.652 130.62C477.372 130.06 478.132 129.58 478.932 129.18C479.732 128.78 480.582 128.47 481.482 128.25C482.382 128.03 483.362 127.92 484.422 127.92C486.102 127.92 487.572 128.2 488.832 128.76C490.112 129.32 491.182 130.11 492.042 131.13C492.922 132.15 493.582 133.38 494.022 134.82C494.462 136.24 494.682 137.81 494.682 139.53V159H488.262V139.53C488.262 137.47 487.782 135.87 486.822 134.73C485.882 133.59 484.442 133.02 482.502 133.02C481.062 133.02 479.722 133.35 478.482 134.01C477.262 134.67 476.112 135.57 475.032 136.71V159H468.582V128.4H472.482C473.362 128.4 473.922 128.81 474.162 129.63L474.612 132.45ZM518.565 145.62C516.265 145.7 514.325 145.89 512.745 146.19C511.165 146.47 509.885 146.84 508.905 147.3C507.925 147.74 507.215 148.27 506.775 148.89C506.355 149.51 506.145 150.19 506.145 150.93C506.145 151.65 506.255 152.27 506.475 152.79C506.715 153.29 507.035 153.71 507.435 154.05C507.855 154.37 508.335 154.61 508.875 154.77C509.435 154.91 510.045 154.98 510.705 154.98C512.385 154.98 513.825 154.67 515.025 154.05C516.245 153.41 517.425 152.49 518.565 151.29V145.62ZM501.465 132.66C504.925 129.44 509.045 127.83 513.825 127.83C515.585 127.83 517.145 128.12 518.505 128.7C519.885 129.26 521.035 130.06 521.955 131.1C522.895 132.14 523.605 133.38 524.085 134.82C524.585 136.24 524.835 137.82 524.835 139.56V159H521.955C521.335 159 520.865 158.91 520.545 158.73C520.225 158.53 519.955 158.14 519.735 157.56L519.105 155.07C518.325 155.77 517.555 156.4 516.795 156.96C516.035 157.5 515.245 157.96 514.425 158.34C513.625 158.72 512.755 159 511.815 159.18C510.895 159.38 509.875 159.48 508.755 159.48C507.515 159.48 506.355 159.31 505.275 158.97C504.215 158.63 503.295 158.12 502.515 157.44C501.735 156.74 501.115 155.88 500.655 154.86C500.215 153.84 499.995 152.64 499.995 151.26C499.995 150.08 500.305 148.93 500.925 147.81C501.565 146.69 502.605 145.69 504.045 144.81C505.505 143.91 507.415 143.17 509.775 142.59C512.155 142.01 515.085 141.68 518.565 141.6V139.56C518.565 137.36 518.095 135.72 517.155 134.64C516.215 133.56 514.835 133.02 513.015 133.02C511.775 133.02 510.735 133.18 509.895 133.5C509.055 133.8 508.325 134.13 507.705 134.49C507.085 134.85 506.535 135.19 506.055 135.51C505.575 135.81 505.065 135.96 504.525 135.96C504.085 135.96 503.705 135.85 503.385 135.63C503.085 135.39 502.835 135.1 502.635 134.76L501.465 132.66ZM28.99 199.8L23.05 184.02C22.57 182.8 22.08 181.25 21.58 179.37C21.36 180.31 21.12 181.18 20.86 181.98C20.6 182.76 20.36 183.45 20.14 184.05L14.2 199.8H28.99ZM42.28 216H36.85C36.23 216 35.73 215.85 35.35 215.55C34.97 215.23 34.68 214.84 34.48 214.38L30.88 204.84H12.28L8.68 214.38C8.52 214.78 8.24 215.15 7.84 215.49C7.44 215.83 6.94 216 6.34 216H0.91L18.04 172.8H25.15L42.28 216ZM70.6005 185.4L58.3005 216H52.4805L40.1805 185.4H45.4905C45.9905 185.4 46.4005 185.53 46.7205 185.79C47.0605 186.03 47.2805 186.32 47.3805 186.66L54.1605 204.48C54.4405 205.32 54.6905 206.15 54.9105 206.97C55.1305 207.79 55.3205 208.62 55.4805 209.46C55.6405 208.62 55.8305 207.8 56.0505 207C56.2905 206.18 56.5505 205.34 56.8305 204.48L63.7305 186.66C63.8505 186.3 64.0705 186 64.3905 185.76C64.7105 185.52 65.1005 185.4 65.5605 185.4H70.6005ZM94.1992 197.25C94.1992 196.17 94.0392 195.17 93.7192 194.25C93.4192 193.31 92.9692 192.5 92.3692 191.82C91.7692 191.12 91.0192 190.58 90.1192 190.2C89.2392 189.8 88.2192 189.6 87.0592 189.6C84.7192 189.6 82.8792 190.27 81.5392 191.61C80.1992 192.95 79.3492 194.83 78.9892 197.25H94.1992ZM78.8092 201.21C78.8892 202.95 79.1592 204.46 79.6192 205.74C80.0792 207 80.6892 208.05 81.4492 208.89C82.2292 209.73 83.1492 210.36 84.2092 210.78C85.2892 211.18 86.4892 211.38 87.8092 211.38C89.0692 211.38 90.1592 211.24 91.0792 210.96C91.9992 210.66 92.7992 210.34 93.4792 210C94.1592 209.64 94.7392 209.32 95.2192 209.04C95.6992 208.74 96.1392 208.59 96.5392 208.59C97.0592 208.59 97.4592 208.79 97.7392 209.19L99.5692 211.56C98.8092 212.46 97.9492 213.22 96.9892 213.84C96.0292 214.46 95.0092 214.97 93.9292 215.37C92.8492 215.75 91.7392 216.02 90.5992 216.18C89.4592 216.36 88.3492 216.45 87.2692 216.45C85.1492 216.45 83.1792 216.1 81.3592 215.4C79.5592 214.68 77.9892 213.63 76.6492 212.25C75.3292 210.87 74.2892 209.16 73.5292 207.12C72.7892 205.08 72.4192 202.73 72.4192 200.07C72.4192 197.95 72.7492 195.97 73.4092 194.13C74.0892 192.29 75.0492 190.69 76.2892 189.33C77.5492 187.97 79.0692 186.9 80.8492 186.12C82.6492 185.32 84.6792 184.92 86.9392 184.92C88.8192 184.92 90.5592 185.23 92.1592 185.85C93.7592 186.45 95.1392 187.34 96.2992 188.52C97.4592 189.7 98.3592 191.15 98.9992 192.87C99.6592 194.57 99.9892 196.51 99.9892 198.69C99.9892 199.69 99.8792 200.36 99.6592 200.7C99.4392 201.04 99.0392 201.21 98.4592 201.21H78.8092ZM112.034 189.45C112.694 188.77 113.374 188.16 114.074 187.62C114.794 187.06 115.554 186.58 116.354 186.18C117.154 185.78 118.004 185.47 118.904 185.25C119.804 185.03 120.784 184.92 121.844 184.92C123.524 184.92 124.994 185.2 126.254 185.76C127.534 186.32 128.604 187.11 129.464 188.13C130.344 189.15 131.004 190.38 131.444 191.82C131.884 193.24 132.104 194.81 132.104 196.53V216H125.684V196.53C125.684 194.47 125.204 192.87 124.244 191.73C123.304 190.59 121.864 190.02 119.924 190.02C118.484 190.02 117.144 190.35 115.904 191.01C114.684 191.67 113.534 192.57 112.454 193.71V216H106.004V185.4H109.904C110.784 185.4 111.344 185.81 111.584 186.63L112.034 189.45ZM149.037 216.48C146.497 216.48 144.537 215.77 143.157 214.35C141.797 212.91 141.117 210.89 141.117 208.29V190.47H137.757C137.397 190.47 137.087 190.36 136.827 190.14C136.567 189.9 136.437 189.55 136.437 189.09V186.48L141.387 185.76L142.797 176.91C142.897 176.57 143.067 176.3 143.307 176.1C143.547 175.88 143.867 175.77 144.267 175.77H147.567V185.82H156.057V190.47H147.567V207.84C147.567 208.94 147.837 209.78 148.377 210.36C148.917 210.94 149.637 211.23 150.537 211.23C151.037 211.23 151.467 211.17 151.827 211.05C152.187 210.91 152.497 210.77 152.757 210.63C153.017 210.47 153.237 210.33 153.417 210.21C153.617 210.07 153.807 210 153.987 210C154.347 210 154.637 210.2 154.857 210.6L156.777 213.75C155.777 214.63 154.597 215.31 153.237 215.79C151.877 216.25 150.477 216.48 149.037 216.48ZM186.941 185.4V216H183.041C182.181 216 181.631 215.59 181.391 214.77L180.911 211.92C180.271 212.6 179.591 213.22 178.871 213.78C178.171 214.34 177.421 214.82 176.621 215.22C175.821 215.62 174.961 215.93 174.041 216.15C173.141 216.37 172.171 216.48 171.131 216.48C169.451 216.48 167.971 216.2 166.691 215.64C165.411 215.08 164.331 214.29 163.451 213.27C162.591 212.25 161.941 211.03 161.501 209.61C161.061 208.17 160.841 206.59 160.841 204.87V185.4H167.291V204.87C167.291 206.93 167.761 208.53 168.701 209.67C169.661 210.81 171.111 211.38 173.051 211.38C174.471 211.38 175.791 211.06 177.011 210.42C178.251 209.76 179.411 208.86 180.491 207.72V185.4H186.941ZM200.864 191.07C201.824 189.13 202.984 187.61 204.344 186.51C205.704 185.39 207.334 184.83 209.234 184.83C209.894 184.83 210.514 184.91 211.094 185.07C211.674 185.21 212.194 185.43 212.654 185.73L212.204 190.59C212.124 190.93 211.994 191.17 211.814 191.31C211.654 191.43 211.434 191.49 211.154 191.49C210.854 191.49 210.424 191.44 209.864 191.34C209.304 191.22 208.714 191.16 208.094 191.16C207.194 191.16 206.394 191.29 205.694 191.55C205.014 191.81 204.394 192.19 203.834 192.69C203.294 193.19 202.814 193.8 202.394 194.52C201.974 195.24 201.584 196.06 201.224 196.98V216H194.774V185.4H198.524C199.204 185.4 199.674 185.53 199.934 185.79C200.194 186.03 200.374 186.46 200.474 187.08L200.864 191.07ZM232.803 202.62C230.503 202.7 228.563 202.89 226.983 203.19C225.403 203.47 224.123 203.84 223.143 204.3C222.163 204.74 221.453 205.27 221.013 205.89C220.593 206.51 220.383 207.19 220.383 207.93C220.383 208.65 220.493 209.27 220.713 209.79C220.953 210.29 221.273 210.71 221.673 211.05C222.093 211.37 222.573 211.61 223.113 211.77C223.673 211.91 224.283 211.98 224.943 211.98C226.623 211.98 228.063 211.67 229.263 211.05C230.483 210.41 231.663 209.49 232.803 208.29V202.62ZM215.703 189.66C219.163 186.44 223.283 184.83 228.063 184.83C229.823 184.83 231.383 185.12 232.743 185.7C234.123 186.26 235.273 187.06 236.193 188.1C237.133 189.14 237.843 190.38 238.323 191.82C238.823 193.24 239.073 194.82 239.073 196.56V216H236.193C235.573 216 235.103 215.91 234.783 215.73C234.463 215.53 234.193 215.14 233.973 214.56L233.343 212.07C232.563 212.77 231.793 213.4 231.033 213.96C230.273 214.5 229.483 214.96 228.663 215.34C227.863 215.72 226.993 216 226.053 216.18C225.133 216.38 224.113 216.48 222.993 216.48C221.753 216.48 220.593 216.31 219.513 215.97C218.453 215.63 217.533 215.12 216.753 214.44C215.973 213.74 215.353 212.88 214.893 211.86C214.453 210.84 214.233 209.64 214.233 208.26C214.233 207.08 214.543 205.93 215.163 204.81C215.803 203.69 216.843 202.69 218.283 201.81C219.743 200.91 221.653 200.17 224.013 199.59C226.393 199.01 229.323 198.68 232.803 198.6V196.56C232.803 194.36 232.333 192.72 231.393 191.64C230.453 190.56 229.073 190.02 227.253 190.02C226.013 190.02 224.973 190.18 224.133 190.5C223.293 190.8 222.563 191.13 221.943 191.49C221.323 191.85 220.773 192.19 220.293 192.51C219.813 192.81 219.303 192.96 218.763 192.96C218.323 192.96 217.943 192.85 217.623 192.63C217.323 192.39 217.073 192.1 216.873 191.76L215.703 189.66ZM308.731 172.8V216H302.551V186.39C302.551 185.91 302.561 185.39 302.581 184.83C302.621 184.25 302.671 183.67 302.731 183.09L288.841 208.74C288.301 209.8 287.471 210.33 286.351 210.33H285.361C284.221 210.33 283.391 209.8 282.871 208.74L268.771 183.03C268.831 183.61 268.871 184.19 268.891 184.77C268.931 185.35 268.951 185.89 268.951 186.39V216H262.771V172.8H268.021C268.641 172.8 269.121 172.86 269.461 172.98C269.801 173.08 270.111 173.41 270.391 173.97L284.251 199.08C284.551 199.66 284.831 200.26 285.091 200.88C285.371 201.48 285.621 202.1 285.841 202.74C286.081 202.1 286.331 201.47 286.591 200.85C286.871 200.21 287.161 199.6 287.461 199.02L301.111 173.97C301.391 173.41 301.701 173.08 302.041 172.98C302.381 172.86 302.861 172.8 303.481 172.8H308.731ZM333.292 202.62C330.992 202.7 329.052 202.89 327.472 203.19C325.892 203.47 324.612 203.84 323.632 204.3C322.652 204.74 321.942 205.27 321.502 205.89C321.082 206.51 320.872 207.19 320.872 207.93C320.872 208.65 320.982 209.27 321.202 209.79C321.442 210.29 321.762 210.71 322.162 211.05C322.582 211.37 323.062 211.61 323.602 211.77C324.162 211.91 324.772 211.98 325.432 211.98C327.112 211.98 328.552 211.67 329.752 211.05C330.972 210.41 332.152 209.49 333.292 208.29V202.62ZM316.192 189.66C319.652 186.44 323.772 184.83 328.552 184.83C330.312 184.83 331.872 185.12 333.232 185.7C334.612 186.26 335.762 187.06 336.682 188.1C337.622 189.14 338.332 190.38 338.812 191.82C339.312 193.24 339.562 194.82 339.562 196.56V216H336.682C336.062 216 335.592 215.91 335.272 215.73C334.952 215.53 334.682 215.14 334.462 214.56L333.832 212.07C333.052 212.77 332.282 213.4 331.522 213.96C330.762 214.5 329.972 214.96 329.152 215.34C328.352 215.72 327.482 216 326.542 216.18C325.622 216.38 324.602 216.48 323.482 216.48C322.242 216.48 321.082 216.31 320.002 215.97C318.942 215.63 318.022 215.12 317.242 214.44C316.462 213.74 315.842 212.88 315.382 211.86C314.942 210.84 314.722 209.64 314.722 208.26C314.722 207.08 315.032 205.93 315.652 204.81C316.292 203.69 317.332 202.69 318.772 201.81C320.232 200.91 322.142 200.17 324.502 199.59C326.882 199.01 329.812 198.68 333.292 198.6V196.56C333.292 194.36 332.822 192.72 331.882 191.64C330.942 190.56 329.562 190.02 327.742 190.02C326.502 190.02 325.462 190.18 324.622 190.5C323.782 190.8 323.052 191.13 322.432 191.49C321.812 191.85 321.262 192.19 320.782 192.51C320.302 192.81 319.792 192.96 319.252 192.96C318.812 192.96 318.432 192.85 318.112 192.63C317.812 192.39 317.562 192.1 317.362 191.76L316.192 189.66ZM356.517 216.48C353.977 216.48 352.017 215.77 350.637 214.35C349.277 212.91 348.597 210.89 348.597 208.29V190.47H345.237C344.877 190.47 344.567 190.36 344.307 190.14C344.047 189.9 343.917 189.55 343.917 189.09V186.48L348.867 185.76L350.277 176.91C350.377 176.57 350.547 176.3 350.787 176.1C351.027 175.88 351.347 175.77 351.747 175.77H355.047V185.82H363.537V190.47H355.047V207.84C355.047 208.94 355.317 209.78 355.857 210.36C356.397 210.94 357.117 211.23 358.017 211.23C358.517 211.23 358.947 211.17 359.307 211.05C359.667 210.91 359.977 210.77 360.237 210.63C360.497 210.47 360.717 210.33 360.897 210.21C361.097 210.07 361.287 210 361.467 210C361.827 210 362.117 210.2 362.337 210.6L364.257 213.75C363.257 214.63 362.077 215.31 360.717 215.79C359.357 216.25 357.957 216.48 356.517 216.48ZM388.457 197.25C388.457 196.17 388.297 195.17 387.977 194.25C387.677 193.31 387.227 192.5 386.627 191.82C386.027 191.12 385.277 190.58 384.377 190.2C383.497 189.8 382.477 189.6 381.317 189.6C378.977 189.6 377.137 190.27 375.797 191.61C374.457 192.95 373.607 194.83 373.247 197.25H388.457ZM373.067 201.21C373.147 202.95 373.417 204.46 373.877 205.74C374.337 207 374.947 208.05 375.707 208.89C376.487 209.73 377.407 210.36 378.467 210.78C379.547 211.18 380.747 211.38 382.067 211.38C383.327 211.38 384.417 211.24 385.337 210.96C386.257 210.66 387.057 210.34 387.737 210C388.417 209.64 388.997 209.32 389.477 209.04C389.957 208.74 390.397 208.59 390.797 208.59C391.317 208.59 391.717 208.79 391.997 209.19L393.827 211.56C393.067 212.46 392.207 213.22 391.247 213.84C390.287 214.46 389.267 214.97 388.187 215.37C387.107 215.75 385.997 216.02 384.857 216.18C383.717 216.36 382.607 216.45 381.527 216.45C379.407 216.45 377.437 216.1 375.617 215.4C373.817 214.68 372.247 213.63 370.907 212.25C369.587 210.87 368.547 209.16 367.787 207.12C367.047 205.08 366.677 202.73 366.677 200.07C366.677 197.95 367.007 195.97 367.667 194.13C368.347 192.29 369.307 190.69 370.547 189.33C371.807 187.97 373.327 186.9 375.107 186.12C376.907 185.32 378.937 184.92 381.197 184.92C383.077 184.92 384.817 185.23 386.417 185.85C388.017 186.45 389.397 187.34 390.557 188.52C391.717 189.7 392.617 191.15 393.257 192.87C393.917 194.57 394.247 196.51 394.247 198.69C394.247 199.69 394.137 200.36 393.917 200.7C393.697 201.04 393.297 201.21 392.717 201.21H373.067ZM400.262 216V185.4H404.162C405.042 185.4 405.602 185.81 405.842 186.63L406.262 189.3C406.822 188.66 407.402 188.08 408.002 187.56C408.602 187.02 409.242 186.56 409.922 186.18C410.622 185.78 411.362 185.47 412.142 185.25C412.942 185.03 413.802 184.92 414.722 184.92C415.702 184.92 416.602 185.06 417.422 185.34C418.242 185.62 418.962 186.02 419.582 186.54C420.222 187.06 420.772 187.69 421.232 188.43C421.692 189.17 422.072 190 422.372 190.92C422.832 189.86 423.412 188.95 424.112 188.19C424.812 187.43 425.592 186.81 426.452 186.33C427.312 185.85 428.222 185.5 429.182 185.28C430.162 185.04 431.152 184.92 432.152 184.92C433.792 184.92 435.252 185.18 436.532 185.7C437.832 186.22 438.922 186.98 439.802 187.98C440.702 188.96 441.382 190.17 441.842 191.61C442.302 193.05 442.532 194.69 442.532 196.53V216H436.082V196.53C436.082 194.37 435.612 192.75 434.672 191.67C433.752 190.57 432.382 190.02 430.562 190.02C429.742 190.02 428.972 190.16 428.252 190.44C427.532 190.72 426.902 191.13 426.362 191.67C425.822 192.21 425.392 192.89 425.072 193.71C424.772 194.51 424.622 195.45 424.622 196.53V216H418.172V196.53C418.172 194.29 417.722 192.65 416.822 191.61C415.922 190.55 414.602 190.02 412.862 190.02C411.662 190.02 410.552 190.33 409.532 190.95C408.512 191.55 407.572 192.38 406.712 193.44V216H400.262ZM466.417 202.62C464.117 202.7 462.177 202.89 460.597 203.19C459.017 203.47 457.737 203.84 456.757 204.3C455.777 204.74 455.067 205.27 454.627 205.89C454.207 206.51 453.997 207.19 453.997 207.93C453.997 208.65 454.107 209.27 454.327 209.79C454.567 210.29 454.887 210.71 455.287 211.05C455.707 211.37 456.187 211.61 456.727 211.77C457.287 211.91 457.897 211.98 458.557 211.98C460.237 211.98 461.677 211.67 462.877 211.05C464.097 210.41 465.277 209.49 466.417 208.29V202.62ZM449.317 189.66C452.777 186.44 456.897 184.83 461.677 184.83C463.437 184.83 464.997 185.12 466.357 185.7C467.737 186.26 468.887 187.06 469.807 188.1C470.747 189.14 471.457 190.38 471.937 191.82C472.437 193.24 472.687 194.82 472.687 196.56V216H469.807C469.187 216 468.717 215.91 468.397 215.73C468.077 215.53 467.807 215.14 467.587 214.56L466.957 212.07C466.177 212.77 465.407 213.4 464.647 213.96C463.887 214.5 463.097 214.96 462.277 215.34C461.477 215.72 460.607 216 459.667 216.18C458.747 216.38 457.727 216.48 456.607 216.48C455.367 216.48 454.207 216.31 453.127 215.97C452.067 215.63 451.147 215.12 450.367 214.44C449.587 213.74 448.967 212.88 448.507 211.86C448.067 210.84 447.847 209.64 447.847 208.26C447.847 207.08 448.157 205.93 448.777 204.81C449.417 203.69 450.457 202.69 451.897 201.81C453.357 200.91 455.267 200.17 457.627 199.59C460.007 199.01 462.937 198.68 466.417 198.6V196.56C466.417 194.36 465.947 192.72 465.007 191.64C464.067 190.56 462.687 190.02 460.867 190.02C459.627 190.02 458.587 190.18 457.747 190.5C456.907 190.8 456.177 191.13 455.557 191.49C454.937 191.85 454.387 192.19 453.907 192.51C453.427 192.81 452.917 192.96 452.377 192.96C451.937 192.96 451.557 192.85 451.237 192.63C450.937 192.39 450.687 192.1 450.487 191.76L449.317 189.66ZM470.587 172.32L463.357 180.09C463.037 180.45 462.717 180.7 462.397 180.84C462.097 180.98 461.697 181.05 461.197 181.05H457.357L461.707 173.79C461.987 173.29 462.307 172.92 462.667 172.68C463.047 172.44 463.597 172.32 464.317 172.32H470.587ZM509.532 216H503.082V190.47H488.172V207.84C488.172 208.94 488.442 209.78 488.982 210.36C489.522 210.94 490.242 211.23 491.142 211.23C491.642 211.23 492.072 211.17 492.432 211.05C492.792 210.91 493.102 210.77 493.362 210.63C493.622 210.47 493.842 210.33 494.022 210.21C494.222 210.07 494.412 210 494.592 210C494.952 210 495.242 210.2 495.462 210.6L497.382 213.75C496.382 214.63 495.202 215.31 493.842 215.79C492.482 216.25 491.082 216.48 489.642 216.48C487.102 216.48 485.142 215.77 483.762 214.35C482.402 212.91 481.722 210.89 481.722 208.29V190.47H478.362C478.002 190.47 477.692 190.36 477.432 190.14C477.172 189.9 477.042 189.55 477.042 189.09V186.48L481.992 185.76L483.402 176.91C483.502 176.57 483.672 176.3 483.912 176.1C484.152 175.88 484.472 175.77 484.872 175.77H488.172V185.82H509.532V216ZM510.852 176.01C510.852 176.59 510.732 177.14 510.492 177.66C510.272 178.16 509.962 178.61 509.562 179.01C509.162 179.39 508.692 179.7 508.152 179.94C507.632 180.16 507.082 180.27 506.502 180.27C505.922 180.27 505.372 180.16 504.852 179.94C504.352 179.7 503.902 179.39 503.502 179.01C503.122 178.61 502.812 178.16 502.572 177.66C502.352 177.14 502.242 176.59 502.242 176.01C502.242 175.41 502.352 174.85 502.572 174.33C502.812 173.79 503.122 173.33 503.502 172.95C503.902 172.55 504.352 172.24 504.852 172.02C505.372 171.78 505.922 171.66 506.502 171.66C507.082 171.66 507.632 171.78 508.152 172.02C508.692 172.24 509.162 172.55 509.562 172.95C509.962 173.33 510.272 173.79 510.492 174.33C510.732 174.85 510.852 175.41 510.852 176.01ZM539.314 191.4C539.114 191.66 538.924 191.86 538.744 192C538.564 192.14 538.304 192.21 537.964 192.21C537.624 192.21 537.264 192.09 536.884 191.85C536.524 191.61 536.084 191.35 535.564 191.07C535.064 190.77 534.454 190.5 533.734 190.26C533.014 190.02 532.114 189.9 531.034 189.9C529.634 189.9 528.404 190.15 527.344 190.65C526.304 191.15 525.424 191.87 524.704 192.81C524.004 193.73 523.474 194.86 523.114 196.2C522.774 197.52 522.604 199.01 522.604 200.67C522.604 202.39 522.794 203.92 523.174 205.26C523.554 206.6 524.094 207.73 524.794 208.65C525.514 209.57 526.374 210.27 527.374 210.75C528.394 211.23 529.534 211.47 530.794 211.47C532.034 211.47 533.044 211.32 533.824 211.02C534.604 210.72 535.254 210.39 535.774 210.03C536.294 209.67 536.734 209.34 537.094 209.04C537.474 208.74 537.874 208.59 538.294 208.59C538.814 208.59 539.214 208.79 539.494 209.19L541.324 211.56C540.584 212.46 539.764 213.22 538.864 213.84C537.964 214.46 537.014 214.97 536.014 215.37C535.014 215.75 533.974 216.02 532.894 216.18C531.814 216.36 530.724 216.45 529.624 216.45C527.724 216.45 525.944 216.1 524.284 215.4C522.644 214.68 521.204 213.65 519.964 212.31C518.744 210.95 517.774 209.3 517.054 207.36C516.354 205.4 516.004 203.17 516.004 200.67C516.004 198.41 516.324 196.32 516.964 194.4C517.604 192.46 518.534 190.79 519.754 189.39C520.994 187.99 522.524 186.9 524.344 186.12C526.164 185.32 528.264 184.92 530.644 184.92C532.864 184.92 534.814 185.28 536.494 186C538.194 186.72 539.704 187.74 541.024 189.06L539.314 191.4ZM562.862 202.62C560.562 202.7 558.622 202.89 557.042 203.19C555.462 203.47 554.182 203.84 553.202 204.3C552.222 204.74 551.512 205.27 551.072 205.89C550.652 206.51 550.442 207.19 550.442 207.93C550.442 208.65 550.552 209.27 550.772 209.79C551.012 210.29 551.332 210.71 551.732 211.05C552.152 211.37 552.632 211.61 553.172 211.77C553.732 211.91 554.342 211.98 555.002 211.98C556.682 211.98 558.122 211.67 559.322 211.05C560.542 210.41 561.722 209.49 562.862 208.29V202.62ZM545.762 189.66C549.222 186.44 553.342 184.83 558.122 184.83C559.882 184.83 561.442 185.12 562.802 185.7C564.182 186.26 565.332 187.06 566.252 188.1C567.192 189.14 567.902 190.38 568.382 191.82C568.882 193.24 569.132 194.82 569.132 196.56V216H566.252C565.632 216 565.162 215.91 564.842 215.73C564.522 215.53 564.252 215.14 564.032 214.56L563.402 212.07C562.622 212.77 561.852 213.4 561.092 213.96C560.332 214.5 559.542 214.96 558.722 215.34C557.922 215.72 557.052 216 556.112 216.18C555.192 216.38 554.172 216.48 553.052 216.48C551.812 216.48 550.652 216.31 549.572 215.97C548.512 215.63 547.592 215.12 546.812 214.44C546.032 213.74 545.412 212.88 544.952 211.86C544.512 210.84 544.292 209.64 544.292 208.26C544.292 207.08 544.602 205.93 545.222 204.81C545.862 203.69 546.902 202.69 548.342 201.81C549.802 200.91 551.712 200.17 554.072 199.59C556.452 199.01 559.382 198.68 562.862 198.6V196.56C562.862 194.36 562.392 192.72 561.452 191.64C560.512 190.56 559.132 190.02 557.312 190.02C556.072 190.02 555.032 190.18 554.192 190.5C553.352 190.8 552.622 191.13 552.002 191.49C551.382 191.85 550.832 192.19 550.352 192.51C549.872 192.81 549.362 192.96 548.822 192.96C548.382 192.96 548.002 192.85 547.682 192.63C547.382 192.39 547.132 192.1 546.932 191.76L545.762 189.66ZM13.18 273H6.13V229.8H13.18V273ZM27.7764 246.45C28.4364 245.77 29.1164 245.16 29.8164 244.62C30.5364 244.06 31.2964 243.58 32.0964 243.18C32.8964 242.78 33.7464 242.47 34.6464 242.25C35.5464 242.03 36.5264 241.92 37.5864 241.92C39.2664 241.92 40.7364 242.2 41.9964 242.76C43.2764 243.32 44.3464 244.11 45.2064 245.13C46.0864 246.15 46.7464 247.38 47.1864 248.82C47.6264 250.24 47.8464 251.81 47.8464 253.53V273H41.4264V253.53C41.4264 251.47 40.9464 249.87 39.9864 248.73C39.0464 247.59 37.6064 247.02 35.6664 247.02C34.2264 247.02 32.8864 247.35 31.6464 248.01C30.4264 248.67 29.2764 249.57 28.1964 250.71V273H21.7464V242.4H25.6464C26.5264 242.4 27.0864 242.81 27.3264 243.63L27.7764 246.45ZM55.3792 273V242.4H59.2792C60.1592 242.4 60.7192 242.81 60.9592 243.63L61.3792 246.3C61.9392 245.66 62.5192 245.08 63.1192 244.56C63.7192 244.02 64.3592 243.56 65.0392 243.18C65.7392 242.78 66.4792 242.47 67.2592 242.25C68.0592 242.03 68.9192 241.92 69.8392 241.92C70.8192 241.92 71.7192 242.06 72.5392 242.34C73.3592 242.62 74.0792 243.02 74.6992 243.54C75.3392 244.06 75.8892 244.69 76.3492 245.43C76.8092 246.17 77.1892 247 77.4892 247.92C77.9492 246.86 78.5292 245.95 79.2292 245.19C79.9292 244.43 80.7092 243.81 81.5692 243.33C82.4292 242.85 83.3392 242.5 84.2992 242.28C85.2792 242.04 86.2692 241.92 87.2692 241.92C88.9092 241.92 90.3692 242.18 91.6492 242.7C92.9492 243.22 94.0392 243.98 94.9192 244.98C95.8192 245.96 96.4992 247.17 96.9592 248.61C97.4192 250.05 97.6492 251.69 97.6492 253.53V273H91.1992V253.53C91.1992 251.37 90.7292 249.75 89.7892 248.67C88.8692 247.57 87.4992 247.02 85.6792 247.02C84.8592 247.02 84.0892 247.16 83.3692 247.44C82.6492 247.72 82.0192 248.13 81.4792 248.67C80.9392 249.21 80.5092 249.89 80.1892 250.71C79.8892 251.51 79.7392 252.45 79.7392 253.53V273H73.2892V253.53C73.2892 251.29 72.8392 249.65 71.9392 248.61C71.0392 247.55 69.7192 247.02 67.9792 247.02C66.7792 247.02 65.6692 247.33 64.6492 247.95C63.6292 248.55 62.6892 249.38 61.8292 250.44V273H55.3792ZM125.254 254.25C125.254 253.17 125.094 252.17 124.774 251.25C124.474 250.31 124.024 249.5 123.424 248.82C122.824 248.12 122.074 247.58 121.174 247.2C120.294 246.8 119.274 246.6 118.114 246.6C115.774 246.6 113.934 247.27 112.594 248.61C111.254 249.95 110.404 251.83 110.044 254.25H125.254ZM109.864 258.21C109.944 259.95 110.214 261.46 110.674 262.74C111.134 264 111.744 265.05 112.504 265.89C113.284 266.73 114.204 267.36 115.264 267.78C116.344 268.18 117.544 268.38 118.864 268.38C120.124 268.38 121.214 268.24 122.134 267.96C123.054 267.66 123.854 267.34 124.534 267C125.214 266.64 125.794 266.32 126.274 266.04C126.754 265.74 127.194 265.59 127.594 265.59C128.114 265.59 128.514 265.79 128.794 266.19L130.624 268.56C129.864 269.46 129.004 270.22 128.044 270.84C127.084 271.46 126.064 271.97 124.984 272.37C123.904 272.75 122.794 273.02 121.654 273.18C120.514 273.36 119.404 273.45 118.324 273.45C116.204 273.45 114.234 273.1 112.414 272.4C110.614 271.68 109.044 270.63 107.704 269.25C106.384 267.87 105.344 266.16 104.584 264.12C103.844 262.08 103.474 259.73 103.474 257.07C103.474 254.95 103.804 252.97 104.464 251.13C105.144 249.29 106.104 247.69 107.344 246.33C108.604 244.97 110.124 243.9 111.904 243.12C113.704 242.32 115.734 241.92 117.994 241.92C119.874 241.92 121.614 242.23 123.214 242.85C124.814 243.45 126.194 244.34 127.354 245.52C128.514 246.7 129.414 248.15 130.054 249.87C130.714 251.57 131.044 253.51 131.044 255.69C131.044 256.69 130.934 257.36 130.714 257.7C130.494 258.04 130.094 258.21 129.514 258.21H109.864ZM143.149 248.07C144.109 246.13 145.269 244.61 146.629 243.51C147.989 242.39 149.619 241.83 151.519 241.83C152.179 241.83 152.799 241.91 153.379 242.07C153.959 242.21 154.479 242.43 154.939 242.73L154.489 247.59C154.409 247.93 154.279 248.17 154.099 248.31C153.939 248.43 153.719 248.49 153.439 248.49C153.139 248.49 152.709 248.44 152.149 248.34C151.589 248.22 150.999 248.16 150.379 248.16C149.479 248.16 148.679 248.29 147.979 248.55C147.299 248.81 146.679 249.19 146.119 249.69C145.579 250.19 145.099 250.8 144.679 251.52C144.259 252.24 143.869 253.06 143.509 253.98V273H137.059V242.4H140.809C141.489 242.4 141.959 242.53 142.219 242.79C142.479 243.03 142.659 243.46 142.759 244.08L143.149 248.07ZM177.302 247.95C177.142 248.23 176.962 248.43 176.762 248.55C176.562 248.67 176.312 248.73 176.012 248.73C175.672 248.73 175.302 248.63 174.902 248.43C174.502 248.21 174.032 247.97 173.492 247.71C172.952 247.45 172.312 247.22 171.572 247.02C170.852 246.8 170.002 246.69 169.022 246.69C168.222 246.69 167.492 246.79 166.832 246.99C166.192 247.17 165.642 247.44 165.182 247.8C164.742 248.14 164.402 248.55 164.162 249.03C163.922 249.49 163.802 249.99 163.802 250.53C163.802 251.25 164.022 251.85 164.462 252.33C164.902 252.81 165.482 253.23 166.202 253.59C166.922 253.93 167.742 254.24 168.662 254.52C169.582 254.8 170.522 255.1 171.482 255.42C172.442 255.74 173.382 256.11 174.302 256.53C175.222 256.95 176.042 257.47 176.762 258.09C177.482 258.69 178.062 259.43 178.502 260.31C178.942 261.17 179.162 262.22 179.162 263.46C179.162 264.9 178.902 266.23 178.382 267.45C177.862 268.67 177.102 269.73 176.102 270.63C175.102 271.53 173.852 272.23 172.352 272.73C170.872 273.23 169.172 273.48 167.252 273.48C166.192 273.48 165.162 273.38 164.162 273.18C163.182 273 162.242 272.75 161.342 272.43C160.462 272.09 159.632 271.69 158.852 271.23C158.092 270.77 157.412 270.27 156.812 269.73L158.312 267.27C158.492 266.97 158.712 266.74 158.972 266.58C159.252 266.4 159.592 266.31 159.992 266.31C160.412 266.31 160.822 266.45 161.222 266.73C161.642 266.99 162.122 267.28 162.662 267.6C163.222 267.92 163.892 268.22 164.672 268.5C165.452 268.76 166.422 268.89 167.582 268.89C168.542 268.89 169.372 268.78 170.072 268.56C170.772 268.32 171.352 268 171.812 267.6C172.272 267.2 172.612 266.75 172.832 266.25C173.052 265.73 173.162 265.18 173.162 264.6C173.162 263.82 172.942 263.18 172.502 262.68C172.062 262.18 171.472 261.75 170.732 261.39C170.012 261.03 169.182 260.71 168.242 260.43C167.322 260.15 166.382 259.85 165.422 259.53C164.462 259.21 163.512 258.84 162.572 258.42C161.652 258 160.822 257.47 160.082 256.83C159.362 256.17 158.782 255.38 158.342 254.46C157.902 253.52 157.682 252.38 157.682 251.04C157.682 249.82 157.922 248.66 158.402 247.56C158.902 246.46 159.622 245.49 160.562 244.65C161.522 243.81 162.692 243.15 164.072 242.67C165.472 242.17 167.082 241.92 168.902 241.92C170.962 241.92 172.832 242.25 174.512 242.91C176.192 243.57 177.602 244.47 178.742 245.61L177.302 247.95ZM191.943 242.4V273H185.493V242.4H191.943ZM193.023 233.16C193.023 233.74 192.903 234.29 192.663 234.81C192.443 235.33 192.133 235.79 191.733 236.19C191.333 236.57 190.863 236.88 190.323 237.12C189.803 237.34 189.243 237.45 188.643 237.45C188.063 237.45 187.513 237.34 186.993 237.12C186.493 236.88 186.053 236.57 185.673 236.19C185.293 235.79 184.983 235.33 184.743 234.81C184.523 234.29 184.413 233.74 184.413 233.16C184.413 232.56 184.523 232 184.743 231.48C184.983 230.96 185.293 230.51 185.673 230.13C186.053 229.73 186.493 229.42 186.993 229.2C187.513 228.96 188.063 228.84 188.643 228.84C189.243 228.84 189.803 228.96 190.323 229.2C190.863 229.42 191.333 229.73 191.733 230.13C192.133 230.51 192.443 230.96 192.663 231.48C192.903 232 193.023 232.56 193.023 233.16ZM226.987 242.4L214.687 273H208.867L196.567 242.4H201.877C202.377 242.4 202.787 242.53 203.107 242.79C203.447 243.03 203.667 243.32 203.767 243.66L210.547 261.48C210.827 262.32 211.077 263.15 211.297 263.97C211.517 264.79 211.707 265.62 211.867 266.46C212.027 265.62 212.217 264.8 212.437 264C212.677 263.18 212.937 262.34 213.217 261.48L220.117 243.66C220.237 243.3 220.457 243 220.777 242.76C221.097 242.52 221.487 242.4 221.947 242.4H226.987ZM247.042 259.62C244.742 259.7 242.802 259.89 241.222 260.19C239.642 260.47 238.362 260.84 237.382 261.3C236.402 261.74 235.692 262.27 235.252 262.89C234.832 263.51 234.622 264.19 234.622 264.93C234.622 265.65 234.732 266.27 234.952 266.79C235.192 267.29 235.512 267.71 235.912 268.05C236.332 268.37 236.812 268.61 237.352 268.77C237.912 268.91 238.522 268.98 239.182 268.98C240.862 268.98 242.302 268.67 243.502 268.05C244.722 267.41 245.902 266.49 247.042 265.29V259.62ZM229.942 246.66C233.402 243.44 237.522 241.83 242.302 241.83C244.062 241.83 245.622 242.12 246.982 242.7C248.362 243.26 249.512 244.06 250.432 245.1C251.372 246.14 252.082 247.38 252.562 248.82C253.062 250.24 253.312 251.82 253.312 253.56V273H250.432C249.812 273 249.342 272.91 249.022 272.73C248.702 272.53 248.432 272.14 248.212 271.56L247.582 269.07C246.802 269.77 246.032 270.4 245.272 270.96C244.512 271.5 243.722 271.96 242.902 272.34C242.102 272.72 241.232 273 240.292 273.18C239.372 273.38 238.352 273.48 237.232 273.48C235.992 273.48 234.832 273.31 233.752 272.97C232.692 272.63 231.772 272.12 230.992 271.44C230.212 270.74 229.592 269.88 229.132 268.86C228.692 267.84 228.472 266.64 228.472 265.26C228.472 264.08 228.782 262.93 229.402 261.81C230.042 260.69 231.082 259.69 232.522 258.81C233.982 257.91 235.892 257.17 238.252 256.59C240.632 256.01 243.562 255.68 247.042 255.6V253.56C247.042 251.36 246.572 249.72 245.632 248.64C244.692 247.56 243.312 247.02 241.492 247.02C240.252 247.02 239.212 247.18 238.372 247.5C237.532 247.8 236.802 248.13 236.182 248.49C235.562 248.85 235.012 249.19 234.532 249.51C234.052 249.81 233.542 249.96 233.002 249.96C232.562 249.96 232.182 249.85 231.862 249.63C231.562 249.39 231.312 249.1 231.112 248.76L229.942 246.66ZM268.278 229.8V246.96C268.278 248.76 268.198 250.53 268.038 252.27C267.878 253.99 267.668 255.85 267.408 257.85H263.058C262.778 255.85 262.558 253.99 262.398 252.27C262.258 250.53 262.188 248.76 262.188 246.96V229.8H268.278ZM260.958 269.28C260.958 268.7 261.058 268.16 261.258 267.66C261.478 267.14 261.778 266.69 262.158 266.31C262.538 265.93 262.978 265.63 263.478 265.41C263.978 265.19 264.528 265.08 265.128 265.08C265.708 265.08 266.248 265.19 266.748 265.41C267.268 265.63 267.708 265.93 268.068 266.31C268.448 266.69 268.748 267.14 268.968 267.66C269.188 268.16 269.298 268.7 269.298 269.28C269.298 269.88 269.188 270.43 268.968 270.93C268.748 271.43 268.448 271.87 268.068 272.25C267.708 272.63 267.268 272.92 266.748 273.12C266.248 273.34 265.708 273.45 265.128 273.45C264.528 273.45 263.978 273.34 263.478 273.12C262.978 272.92 262.538 272.63 262.158 272.25C261.778 271.87 261.478 271.43 261.258 270.93C261.058 270.43 260.958 269.88 260.958 269.28Z" fill="#9D2121"/>
</svg>
